<?xml version="1.0" encoding="UTF-8" standalone="no"?>
<!DOCTYPE svg  PUBLIC '-//W3C//DTD SVG 1.1//EN'  'http://www.w3.org/Graphics/SVG/1.1/DTD/svg11.dtd'>
<svg xmlns="http://www.w3.org/2000/svg">
<defs>
<font id="LoversQuarrel-Regular" horiz-adv-x="269">
<font-face underline-position="-36" font-weight="400" descent="-200" panose-1="2 0 6 4 6 0 0 2 0 2" units-per-em="1000" unicode-range="U+0020-25CA" bbox="-269 -400 1157 726" x-height="216" underline-thickness="6" font-family="LoversQuarrel" ascent="800" cap-height="596"/>
<missing-glyph horiz-adv-x="1000"/>
<glyph glyph-name=".notdef" horiz-adv-x="1000"/>
<glyph glyph-name=".null" horiz-adv-x="0"/>
<glyph glyph-name="nonmarkingreturn" horiz-adv-x="333"/>
<glyph glyph-name="space" horiz-adv-x="184" unicode=" "/>
<glyph glyph-name="exclam" horiz-adv-x="277" unicode="!" d="M125 9q0 -13 -9 -20q-9 -9 -23 -9q-13 0 -22 9q-10 7 -10 20t10 22q9 9 22 9q14 0 23 -9t9 -22zM160 121q-6 -18 -21 -18q-12 0 -12 13q0 3 2 9q21 54 96 201q74 146 118 218q0 2 5 2q12 0 23 -10q10 -8 14 -13t4 -8q0 -44 -23.5 -101t-57.5 -106.5t-67.5 -92.5 t-56.5 -69z"/>
<glyph glyph-name="quotedbl" horiz-adv-x="212" unicode='&quot;' d="M97 448q0 -20 -26 -85q-6 -17 -35 -86h-9l18 158q2 14 11 22q12 10 23 10q18 0 18 -19zM201 447q0 -17 -27 -84q-6 -17 -35 -86h-10l19 159q1 12 11 22q10 9 23 9q19 0 19 -20z"/>
<glyph glyph-name="numbersign" horiz-adv-x="497" unicode="#" d="M325 278h-92l-57 -94h93zM479 310l-18 -32h-100l-55 -94h107l-19 -31h-107l-93 -153h-35l91 153h-92l-93 -153h-35l92 153h-105l20 31h104l56 94h-114l20 32h113l92 154h37l-94 -154h94l92 154h36l-92 -154h98z"/>
<glyph glyph-name="dollar" horiz-adv-x="299" unicode="$" d="M243 371h-10q-30 0 -58 -20q-28 -22 -28 -54q0 -16 8 -28q8 -16 16 -28zM184 116q0 29 -27 65l-94 -169q45 0 82 29q39 30 39 75zM317 325q0 -18 -11 -31q-10 -13 -26 -13q-14 0 -21 9q-9 9 -8 21q1 28 30 28q17 0 20 -11q-5 33 -42 40l-78 -141q45 -60 45 -99 q0 -60 -58 -97q-50 -32 -113 -32l-18 -36l-23 -4l23 41q-63 12 -82 35q1 5 12 16h6q28 -28 72 -37l100 181q-40 50 -40 85q0 50 50 79q42 24 94 24l19 35l21 4l-22 -41q50 -8 50 -56z"/>
<glyph glyph-name="percent" horiz-adv-x="414" unicode="%" d="M358 163q0 30 -25 30q-19 0 -45 -26q-25 -27 -42 -62q-23 -51 -23 -81q0 -29 24 -29q26 0 68 52q15 18 28 55q15 37 15 61zM189 466q-21 0 -45 -25q-25 -25 -43 -63q-22 -48 -22 -80q0 -29 22 -29q18 0 38 17q-10 16 -10 33q0 28 22 28q20 0 20 -20q0 -4 -1 -7 q12 16 27 51q16 39 16 65q0 30 -24 30zM327 214q49 -1 49 -51q0 -54 -47 -118q-48 -64 -94 -64h-2q-47 2 -47 58q0 29 14 63q20 47 57 80q35 32 67 32h3zM413 441l-410 -497h-24l-1 3q102 107 313 368q-62 -55 -106 -55q-24 0 -39 17q-29 -23 -58 -23q-47 2 -47 59 q0 29 14 63q21 47 57 80q35 32 67 32h3q49 -2 49 -49q0 -32 -25 -84q-23 -45 -47 -67q7 -16 27 -16q32 0 89 45q20 16 68 70q50 54 53 56q4 2 9 2q8 0 8 -4z"/>
<glyph glyph-name="ampersand" horiz-adv-x="476" unicode="&amp;" d="M294 260l2 29q-18 -6 -38 -9l-3 -46q21 16 39 26zM387 507q-7 0 -21 -14q-18 -20 -33 -78q16 10 39 36.5t23 42.5q0 11 -8 13zM205 334q-23 -15 -42 -30q35 -15 72 -15h7q0 23 -2 65q-17 -8 -35 -20zM310 391l-53 -28q1 -16 1 -51v-22q13 1 39 7q8 64 13 94zM263 8 q10 52 29 232q-25 -12 -39 -23q-1 -17 -4.5 -50t-4.5 -45q-8 -69 -19 -119q12 1 38 5zM146 313q9 5 93 50q-4 58 -22 106q-28 74 -84 74q-30 0 -51.5 -24t-21.5 -61q0 -49 38 -101q22 -29 48 -44zM485 215q-6 49 -71 54q-2 0 -7 0.5t-8 0.5q-45 0 -85 -21q-2 -26 -3.5 -73 t-4 -85.5t-7.5 -71.5q100 26 151 99q35 49 35 89v8zM175 4q13 -2 39 -2q11 49 19 120q3 27 7 85q-36 -26 -48 -59q-4 -8 -4 -25t7 -25q3 -3 -1.5 -3t-6.5 3q-6 12 -6 27q0 17 4 27q14 36 56 72q1 18 1 55h-13q-42 0 -77 16q-18 -14 -50 -46q-28 -29 -50 -67t-22 -70 q0 -1 0.5 -4t0.5 -5q7 -47 51 -70.5t93 -28.5zM149 -178q33 36 62 166q-9 -1 -27 -1q-23 0 -35 1q-23 2 -47 8.5t-51 18t-45.5 33t-22.5 49.5q0 2 -0.5 5t-0.5 4q0 29 19 63.5t41 58.5q37 41 92 77q-27 18 -47 46q-39 54 -39 105q0 42 26.5 68.5t62.5 26.5q67 0 97 -77 q17 -46 22 -103l56 31q14 80 35 105q18 23 35 23h3q20 -1 24 -28v-7q0 -15 -7.5 -29.5t-22.5 -27t-24 -18.5t-25 -16q-8 -35 -12 -100q40 15 69 43t39 61q1 4 5 3t3 -5q-10 -34 -42 -63.5t-75 -46.5q0 -5 -0.5 -15t-0.5 -15q53 33 106 33q11 0 17 -1q65 -6 72 -60 q0 -1 0.5 -5t0.5 -6q0 -42 -41 -102q-61 -89 -172 -119q-34 -229 -149 -229q-2 0 -5.5 0.5t-5.5 0.5q-26 3 -49 19.5t-26 44.5q-2 4 2 4q4 -2 4 -4q11 -46 59 -51h7q81 0 126 203q-38 -6 -40 -6q-31 -131 -67 -171q-5 -5 -7 1q-1 2 1 4z"/>
<glyph glyph-name="quotesingle" horiz-adv-x="145" unicode="&apos;" d="M184 346q0 -17 -26 -54q-30 -42 -62 -60q-16 -9 -23 -9q-2 0 -2 2q0 7 12 20q28 33 50 72q-16 2 -16 27q0 12 11 23q10 10 25 10h4q27 0 27 -31z"/>
<glyph glyph-name="parenleft" horiz-adv-x="353" unicode="(" d="M407 565q-124 -50 -223 -183q-105 -141 -105 -277q0 -146 20 -172q4 -5 4 -12q0 -10 -10 -10q-8 0 -17 9q-15 15 -27 81q-9 56 -9 94q0 164 92 289q67 92 203 176q41 25 56 25q16 0 16 -20z"/>
<glyph glyph-name="parenright" horiz-adv-x="411" unicode=")" d="M373 397q0 -167 -92 -290q-67 -93 -202 -176q-40 -25 -56 -25t-16 19q123 52 221 184q105 141 105 276q0 148 -20 172q-5 8 -5 14q0 10 11 10q8 0 17 -9q15 -17 27 -82q10 -53 10 -93z"/>
<glyph glyph-name="asterisk" horiz-adv-x="287" unicode="*" d="M261 259q10 0 10 -6q0 -14 -22 -15l-88 -3q20 -43 35 -70q0 -1 0.5 -2t0.5 -2q0 -6 -5 -14q-6 -6 -11 -6q-8 0 -24 37l-20 45l-72 -79q-4 -3 -9 -3q-17 0 -17 13q0 5 6 11l67 68l-88 -4q-6 0 -9 6q-4 5 -4 12q0 12 14 12h96q-12 27 -38 84q-2 4 -2 7q0 7 7 7q11 0 18 -14 q15 -26 39 -76l78 78q4 4 8 4q6 0 6 -8q0 -10 -10 -20l-56 -62h90z"/>
<glyph glyph-name="plus" horiz-adv-x="305" unicode="+" d="M307 159q12 0 12 -10q0 -8 -14 -8q-6 0 -17 -0.5t-32.5 -1.5t-38.5 -2q-5 -23 -16 -92q0 -4 -8 -7q-7 -4 -14 -4q-12 0 -10 11q1 5 9 35.5t14 54.5q-36 -1 -94 -6q-7 0 -7 14q0 18 15 18h39q48 -2 54 -2q4 19 23 97q3 14 14 14q8 0 5 -11q-5 -18 -20 -100h86z"/>
<glyph glyph-name="comma" horiz-adv-x="155" unicode="," d="M128 22q0 -19 -26 -55q-31 -42 -62 -60q-16 -10 -22 -10q-3 0 -3 2q0 6 13 21q19 19 51 71q-18 3 -18 28q0 12 11 23q11 10 31 10q11 0 18 -8t7 -22z"/>
<glyph glyph-name="hyphen" horiz-adv-x="253" unicode="-" d="M213 125q-52 -1 -82 -6q-45 -6 -82 -7h-6q-22 0 -22 8q0 5 13 15q15 9 26 13q18 6 50 6q31 0 103 -9q30 -3 30 -11t-30 -9z"/>
<glyph glyph-name="period" horiz-adv-x="160" unicode="." d="M125 9q0 -13 -9 -20q-9 -9 -23 -9q-13 0 -22 9q-10 7 -10 20t10 22q9 9 22 9q14 0 23 -9t9 -22z"/>
<glyph glyph-name="slash" horiz-adv-x="365" unicode="/" d="M563 517q10 -7 10 -14q0 -5 -5 -5q-4 0 -12 5q-8 4 -17 4q-43 0 -142 -110q-59 -65 -186 -228q-114 -146 -182 -191q-7 -5 -11 -5q-5 0 -5 4q0 5 6 10q96 88 170 198q15 21 42 61.5l39 58.5q61 89 123 149q78 73 132 73q18 0 38 -10z"/>
<glyph glyph-name="zero" horiz-adv-x="547" unicode="0" d="M460 100q-62 -57 -144 -93q-81 -36 -150 -36h-5q-70 2 -114 40t-44 101q0 23 6 47q23 86 90 141q47 40 128 72q89 36 152 36q15 0 22 -1q10 0 10 -7q0 -6 -12 -8q-71 -6 -137 -31q-71 -25 -119 -66q-48 -42 -77 -98q-29 -54 -29 -103q0 -47 28 -74q32 -29 96 -29 q63 0 136 35q65 31 126 86q40 37 65 81t25 83q0 72 -91 72q-14 0 -22 -1q-110 -9 -200 -87q-2 -3 -6 -3q-12 0 -9 11q5 19 62 49q82 46 157 48h13q62 0 96 -26q34 -27 34 -74q0 -39 -23 -83q-24 -45 -64 -82z"/>
<glyph glyph-name="one" horiz-adv-x="244" unicode="1" d="M271 388q-36 -47 -101 -163q-73 -135 -109 -225q-3 -7 -14 -7t-11 10q0 2 2 8q62 128 74 155q37 79 67 158l-26 -19q-21 -15 -36 -28q-7 -6 -11 -6q-3 0 -3 4q0 7 12 17q10 9 50.5 49.5t71.5 70.5q3 1 8 1q10 0 18 -7t8 -15v-3z"/>
<glyph glyph-name="two" horiz-adv-x="377" unicode="2" d="M285 -33q-1 0 -3 -1l-3 1q-4 3 -4 6t7 7q19 10 19 19q0 14 -37 26q-36 12 -69 12q-53 -1 -167 -42q-14 -6 -23 -6q-14 0 -14 11q0 13 17 29q18 15 37 15q65 22 156 82q103 69 156 135q41 52 41 89q0 40 -47 40q-52 0 -116.5 -43.5t-79.5 -93.5q-3 -9 -9 -9q-3 0 -3 5 q0 1 0.5 2.5t0.5 3.5q14 65 70 108.5t129 43.5q36 0 57 -21q20 -22 20 -55q0 -49 -39 -92q-33 -36 -84 -68q-15 -10 -43.5 -27t-40.5 -25q-75 -49 -90 -64q186 0 186 -53q0 -27 -24 -35z"/>
<glyph glyph-name="three" horiz-adv-x="377" unicode="3" d="M147 386q61 26 125 26q70 0 118 -27.5t48 -69.5q0 -34 -36 -69q-25 -23 -59 -38.5t-59.5 -21.5t-69.5 -14q70 -3 101.5 -27t31.5 -58q0 -36 -37.5 -66t-90.5 -45t-105 -15q-47 0 -79 14.5t-36 42.5v5q0 19 14.5 34t39.5 19q11 0 11 -4q0 -5 -12 -5q-12 2 -23 -12 q-11 -12 -11 -25q0 -6 1 -9q12 -39 95 -39q69 0 128.5 28.5t59.5 74.5q0 48 -81 68q-39 10 -77 10h-8q-17 0 -17 9q0 12 23 11h14q59 0 121.5 16.5t95.5 48.5t33 61q0 35 -38.5 59t-86.5 24q-69 0 -130.5 -28.5t-63.5 -72.5q0 -15 -8 -15q-7 0 -7 13q0 64 75 97z"/>
<glyph glyph-name="four" horiz-adv-x="368" unicode="4" d="M307 352q-58 -48 -115 -90q-71 -52 -89 -67h56q7 0 18.5 -0.5t16.5 -0.5l17 -1q5 0 6 -1q14 0 90 160zM371 376q-13 -11 -64 -94q-54 -84 -54 -93q3 -1 8 -2q18 -5 36 -6q24 -6 24 -16q0 -9 -9 -9v2q-1 -2 -3 -2l-5 1l-17 3q-24 4 -31 4q-3 0 -7 -1h-12q-13 -26 -60 -122 l-25 -53q0 -1 -13 -23q-12 0 -12 16t34 88q44 93 44 95q-1 1 -9 1q-91 0 -172 -26q-15 0 -15 14q0 8 26 26q4 2 10.5 6t12 7.5t10.5 7.5q17 12 47.5 33t55.5 38.5t47 33.5q82 61 133 124q20 0 20 -38v-15z"/>
<glyph glyph-name="five" horiz-adv-x="367" unicode="5" d="M401 361q-71 -3 -100 -6q-62 -6 -97 -20h-5l-6 -2q-6 0 -6 -2q-18 -21 -46 -72q51 16 82 16q101 0 101 -84q0 -71 -66 -142q-70 -76 -151 -76q-41 0 -72 25q-34 27 -34 71q0 4 10 32q11 24 16 24q9 0 9 -10q0 -1 -5 -16q-6 -15 -6 -24q0 -78 77 -78q40 0 77 22 q42 24 72 73q33 51 33 91q0 37 -17 52q-15 14 -55 14q-44 0 -108 -64l-4 -4q-4 -3 -11 -3q-18 0 -18 15q0 2 2 8q3 3 4 7l8 12q3 4 7.5 11t8.5 12.5t8 9.5q29 44 38 71l-10 5q-5 3 -5 12l20 16q15 12 20 12h15q9 -1 14 -1q23 0 76 6q48 7 77 7q24 0 47 -5v-15z"/>
<glyph glyph-name="six" horiz-adv-x="328" unicode="6" d="M305 429q-1 -6 -14 -16q-85 -57 -150 -135q-73 -89 -88 -177q-2 -16 -2 -26q0 -35 14 -58q17 -28 48 -28q46 0 88 42q39 38 58 92q7 20 7 44q0 61 -51 61q-30 0 -75 -33q-13 -7 -17 -7l-2 1q-2 4 -2 7q0 15 36 36q37 20 54 20q42 0 68 -29t26 -70q0 -63 -66 -125 q-66 -60 -130 -60q-44 0 -68 40q-21 34 -21 81q0 87 96 203q92 110 177 143q4 2 10 2t6 -3q0 -1 -2 -5z"/>
<glyph glyph-name="seven" horiz-adv-x="331" unicode="7" d="M332 367q0 -21 -59 -83q-15 -16 -59 -60.5t-75 -79t-51 -64.5q-35 -52 -35 -97v-6q-1 -4 -4 -4q-6 0 -18 18q-8 19 -8 32q0 8 2 15.5t7 15.5t8 12.5t11.5 15t11.5 14.5q11 15 70 82.5t107.5 127t48.5 71.5q0 9 -18 8q-71 -5 -131 -29t-80 -45q-6 -7 -11 6q-2 5 -2 10 q0 14 9 26q2 4 6.5 6.5t12 4.5t9.5 3q112 41 188 41q17 0 38.5 -12.5t21.5 -28.5z"/>
<glyph glyph-name="eight" horiz-adv-x="344" unicode="8" d="M167 119q0 6 -11 34q-12 34 -17 42q-57 -38 -92 -82q-11 -14 -24 -42t-13 -49q0 -33 38 -33q36 0 76 38q43 41 43 92zM316 349q-18 35 -67 35q-39 0 -71 -23.5t-32 -62.5q0 -24 18 -60q141 104 152 111zM439 397q-15 -10 -30.5 -18.5t-31.5 -16t-23 -11.5q10 -21 14 -41 q1 -19 -8 -19q-6 0 -11 5q-7 5 -24 38q-13 -4 -80.5 -55.5t-72.5 -59.5q28 -55 28 -86q0 -65 -51 -115q-47 -47 -106 -47h-7q-29 2 -43 20q-15 18 -15 44q0 47 75 117q32 28 77 64q-16 35 -16 68q0 61 45 91q39 29 96 29q65 0 90 -37q73 39 92 45q2 1 5 1q4 0 4 -4 q0 -7 -7 -12z"/>
<glyph glyph-name="nine" horiz-adv-x="340" unicode="9" d="M319 320l-4 3v-2l-2 3q-2 0 -2 5q1 6 5 19q5 18 5 28q0 37 -48 37q-60 0 -139 -74q-78 -75 -78 -135q0 -35 31 -35q23 0 63 20q35 17 57 34q15 11 39 38q34 37 37 40q1 3 6 3q8 0 17 -9q9 -10 9 -15q0 -4 -54 -88q-94 -148 -108 -219q-3 -13 -4 -17q-3 -11 -12 -11 q-8 0 -8 12q3 78 94 255q-38 -28 -70 -43q-47 -22 -78 -22q-54 0 -54 66v11q4 66 95 138q86 70 156 70q71 0 71 -55q0 -18 -8 -36q-9 -18 -16 -21z"/>
<glyph glyph-name="colon" horiz-adv-x="160" unicode=":" d="M131 27q0 -13 -10 -22q-9 -9 -22 -9q-14 0 -23 9t-9 22q0 12 9 21t23 9q13 0 22 -9q10 -9 10 -21zM192 148q0 -13 -9 -22q-11 -9 -23 -9t-23 9q-9 9 -9 22t9 22q11 9 23 9t23 -9q9 -9 9 -22z"/>
<glyph glyph-name="semicolon" horiz-adv-x="155" unicode=";" d="M128 22q0 -19 -26 -55q-31 -42 -62 -60q-16 -10 -22 -10q-3 0 -3 2q0 6 13 21q19 19 51 71q-18 3 -18 28q0 12 11 23q11 10 31 10q11 0 18 -8t7 -22zM216 169q0 -12 -9 -21q-11 -9 -23 -9t-23 9q-9 9 -9 21t9 21q11 9 23 9t23 -9q9 -9 9 -21z"/>
<glyph glyph-name="less" horiz-adv-x="219" unicode="&lt;" d="M222 198q-8 -12 -51 -45q-38 -26 -57 -40l-1 -90l-3 -7l-5 -2q-1 0 -5 2q-5 13 -14 51q-9 40 -11 52q136 86 142 86l4 -2z"/>
<glyph glyph-name="equal" horiz-adv-x="305" unicode="=" d="M273 148q0 -7 -12 -7q-49 0 -100 -6l-52 -6q-11 0 -11 20q0 12 11 12h98q66 0 66 -13zM273 215q0 -8 -12 -8q-57 0 -100 -5l-52 -6q-11 0 -11 19q0 13 11 13h98q66 0 66 -13z"/>
<glyph glyph-name="greater" horiz-adv-x="219" unicode="&gt;" d="M165 100l-136 -85l-5 -1q-3 0 -5 1l-1 3q0 9 53 48l55 39l1 91l3 6l5 3l6 -3q7 -15 14 -51z"/>
<glyph glyph-name="question" horiz-adv-x="400" unicode="?" d="M121 9q0 -13 -9 -20q-9 -9 -23 -9q-13 0 -22 9q-10 7 -10 20t10 22q9 9 22 9q14 0 23 -9t9 -22zM405 473q0 -46 -44 -94q-30 -34 -96 -83q-62 -47 -94 -76q-43 -37 -43 -75v-1q0 -9 8 -9q0 -2 -1.5 -7t-1.5 -7q-1 -12 -14 -12q-12 0 -18 12q-5 10 -5 18q0 39 43 89 q24 28 93 91q45 38 92 88q40 40 40 74q0 31 -32 31q-77 0 -163 -55q-65 -41 -89 -76q-4 -6 -13 -6t-9 8t7 18q25 37 96 82q88 58 164 58q29 0 52 -16q28 -21 28 -52z"/>
<glyph glyph-name="at" horiz-adv-x="650" unicode="@" d="M600 366q11 19 11 37q0 41 -57.5 63.5t-135.5 22.5q-71 0 -119 -17q-83 -30 -137 -76q-55 -49 -88 -112q-34 -64 -34 -119t33 -85q37 -34 111 -34t155 40q75 37 138 94q45 40 71 88q11 19 19 40q-77 -90 -169 -136q-32 -17 -57 -17q-6 0 -14 2q-37 12 -37 93v9l-2 -3 q-3 -3 -6.5 -9t-9 -14t-11.5 -17t-13 -18t-15 -17t-15.5 -14.5t-16 -10t-15.5 -3.5h-3q-33 4 -33 46q0 36 25.5 85.5t62.5 83.5q45 43 88 43q20 0 39 -10q17 -9 17 -29q0 -23 -19 -26q6 10 6 20q0 22 -25 22q-24 0 -51 -24q-30 -25 -59 -65t-42 -72q-11 -27 -11 -40t9 -13 q12 0 36 23q15 14 74 97q16 21 23 21q8 0 8 -17q0 -8 -0.5 -24.5t-0.5 -24.5q0 -23 2 -32q8 -44 31 -44q11 0 29 9q114 62 180 144q4 15 4 33q0 78 -98 78q-16 0 -25 -1h-11q-25 0 -25 6q0 7 35 8h13q67 0 102 -28q27 -21 33 -56zM578 257q-27 -48 -67 -86q-66 -60 -151 -99 q-92 -39 -166 -39h-6q-77 0 -127 44q-48 43 -48 112q0 25 6 52q24 94 99 157q51 42 142 80q76 31 170 31q81 0 136.5 -25t55.5 -73q0 -28 -20 -59v-11q0 -34 -24 -84z"/>
<glyph glyph-name="A" horiz-adv-x="769" unicode="A" d="M475 188q-3 0 -9.5 0.5t-10.5 0.5q-3 0 -11 -0.5t-12 -0.5q-39 -57 -85 -98q13 -5 23 -8q21 20 56 56.5t49 49.5zM418 187q-74 -7 -152 -20q30 -49 71 -71q43 39 81 91zM653 392q-12 -21 -28.5 -46t-29 -42t-36 -49.5t-34.5 -46.5q2 0 13.5 -0.5t20.5 -0.5q25 0 75 2 q3 78 19 183zM253 165q-96 -19 -144 -34q-82 -28 -89 -79q0 -2 -0.5 -5t-0.5 -4q0 -31 29 -50t65 -23q18 -2 28 -2q104 0 220 105l-23 9q-102 -89 -203 -89q-29 0 -54 7q-5 1 -2 6q1 3 4 2q24 -6 49 -6q97 0 196 86q-46 27 -75 77zM429 202q24 35 41 70q38 79 38 140 q0 62 -33.5 98t-81.5 36q-64 0 -113 -64t-49 -183q0 -60 24 -111q91 13 174 14zM542 145q-59 -79 -136 -79q-7 0 -23 2q-107 -86 -186 -111q-44 -14 -81 -14q-14 0 -21 1q-39 5 -64 27.5t-25 59.5q0 9 1 14q6 39 36 68.5t73 43.5q50 17 125 29q-25 57 -25 113 q0 124 56 191.5t127 67.5q52 0 87 -37t35 -102q0 -69 -41 -152q-14 -28 -38 -64h45q20 20 121 161q17 24 47 62q10 65 10 80q0 38 -19 38q-9 0 -21 -8q-15 -10 -34 -32t-22 -29q-5 -11 -11 -7q-4 3 -1 10q6 12 25 35t41 37q23 16 44 16q36 0 36 -50q0 -25 -12.5 -133.5 t-15.5 -170.5q50 3 63 12q11 7 12 2q0 -7 -10 -13q-25 -15 -65 -21q0 -8 -0.5 -23t-0.5 -23q0 -56 8 -91q16 -65 51 -65q20 0 40.5 20.5t35.5 54.5q2 5 4.5 6.5t4.5 -0.5t2 -5t-1 -5q-14 -41 -44.5 -67t-62.5 -26q-28 0 -48.5 22t-27.5 67q-5 38 -5 88q0 29 1 42 q-38 -2 -58 -2q-13 0 -36 0.5t-31 0.5q-53 -58 -114 -109q3 0 7.5 -0.5t6.5 -0.5q73 0 129 74q4 5 6 -1q1 -2 0 -4z"/>
<glyph glyph-name="B" horiz-adv-x="592" unicode="B" d="M179 285q-45 -131 -52 -149q23 4 38 5q26 87 51 151q-14 -3 -37 -7zM268 498q-40 -74 -81 -189q26 4 39 8q46 116 92 189q-20 -2 -50 -8zM177 307q42 115 81 188q-93 -21 -155.5 -68.5t-62.5 -85.5q0 -40 72 -40q8 0 34 2q22 2 31 4zM111 125q-84 -16 -139 -42 q-48 -23 -71.5 -52t-23.5 -57q0 -24 16 -39.5t41 -15.5q66 0 125 96q22 35 52 110zM274 330q88 28 157 78q5 4 9 4q3 0 3 -4q0 -7 -9 -13q-97 -65 -170 -89q-21 -51 -31 -84q68 0 108 10q116 24 177 71.5t61 97.5q0 46 -60.5 76.5t-145.5 31.5h-11q-43 -68 -88 -179z M208 144h10q145 0 157 -94q1 -5 -4 -5q-2 0 -3 3q-15 87 -152 87h-10q-26 -89 -35 -134q4 4 11 14.5t17 27t14 22.5q3 6 15.5 20.5t19.5 19.5q14 10 22 10q5 0 5 -3q0 -1 -2 -3q-43 -37 -43 -83q0 -25 17 -41t50 -16q29 0 73 15q68 24 117 65q49 42 49 79q0 40 -52.5 65.5 t-134.5 25.5q-55 0 -122 -14q-8 -26 -19 -61zM336 585q-25 -14 -59 -72q28 4 49 5q31 46 56 57q12 6 26 6q26 0 50.5 -16t24.5 -27q0 -4 -5 -4q-3 0 -4.5 2t-4.5 6.5t-8 8.5q-25 14 -36 14q-3 0 -13 -2q-16 -4 -44 -44h7q99 -1 170 -31.5t71 -86.5v-7q-5 -61 -86 -108 t-147 -54q90 0 143.5 -32t53.5 -79q0 -36 -31 -70q-34 -38 -99 -71t-132 -33q-22 0 -41 4q-26 5 -43.5 27.5t-17.5 50.5q0 4 2 12t2 12l-11 -12q-27 -39 -44 -70q-1 -2 -4 -2q-8 0 -18.5 9.5t-10.5 19.5q0 35 30 134q-13 -1 -39 -5q-29 -80 -53 -119q-60 -99 -134 -99 q-31 0 -52 19t-21 48q0 68 104 115q66 28 148 43q21 54 54 149q-6 0 -16 -2q-10 -1 -28 -1q-50 0 -76.5 19t-26.5 50q0 49 65 97.5t180 65.5q35 64 66 80q1 1 2 1q2 0 3 -3.5t-2 -4.5z"/>
<glyph glyph-name="C" horiz-adv-x="553" unicode="C" d="M91 30q14 -55 52 -84.5t84 -29.5q66 0 114 55q-26 -6 -41 -7q-24 -2 -35 -2q-106 0 -174 68zM77 160q11 80 51 152q50 91 123 136.5t141 45.5q48 0 77.5 -22t28.5 -59q27 -1 51 -9q-10 65 -94 96q-34 13 -80 13q-76 0 -149.5 -40.5t-120.5 -131.5q-33 -63 -33 -131 q0 -23 5 -50zM551 390q-28 7 -55 8q-5 -27 -23 -52q-29 -44 -76.5 -67.5t-100.5 -23.5h-10q-15 0 -15 5q0 4 14 4h3h3q54 0 102 23t72 61q16 27 21 50q-60 0 -122.5 -19.5t-96.5 -49.5q-45 -39 -45 -79q0 -30 25.5 -49t66.5 -19q31 0 67 12q66 23 118.5 81t51.5 115z M488 414q0 33 -25 52t-66 19q-65 0 -137.5 -47t-122.5 -137q-43 -80 -52 -171q23 -63 77.5 -101t128.5 -38q3 0 9 0.5t9 0.5q18 1 52 7q18 33 18 69q0 51 -33 69q-2 1 -1.5 3.5t2 3.5t3.5 0q41 -21 41 -77q0 -30 -16 -64q102 31 152 111q24 38 31 38q2 0 2 -4q0 -14 -19 -42 q-25 -37 -73.5 -74t-108.5 -56q-50 -70 -129 -70q-55 0 -98.5 37.5t-55.5 103.5q-53 65 -53 153q0 94 61 184q45 67 126.5 108t166.5 41q39 0 78 -11q48 -13 81.5 -46t32.5 -80q4 -1 12 -5q8 -5 8 -12q0 -6 -10 0l-11 5q-7 -59 -61 -117.5t-119 -83.5q-44 -16 -83 -16 q-49 0 -80.5 23t-31.5 59q0 50 60 100q37 30 95.5 48t118.5 18q3 0 10 -0.5t11 -0.5z"/>
<glyph glyph-name="D" horiz-adv-x="724" unicode="D" d="M325 507q-2 -6 -24 -52q18 -1 38 -8q20 38 36 61q-33 0 -50 -1zM420 379q-25 28 -52 43q-17 -37 -35 -86q49 21 87 43zM297 447q-34 -69 -62 -145q24 6 48 15q23 63 52 120q-16 7 -38 10zM222 298q28 71 65 150q-4 1 -12 1h-9q-52 0 -87.5 -34t-35.5 -67q0 -8 1 -11 q1 -4 -3 -5t-5 3q-2 8 -2 14q0 38 37.5 73t98.5 35h5q11 0 16 -1l2 5q7 13 21 45q-113 -11 -183 -52q-43 -25 -68 -58.5t-25 -61.5q0 -53 79 -53q9 0 29 2q35 3 76 15zM226 275q-38 -104 -51 -172q-11 -51 -11 -98q0 -78 31 -118.5t80 -40.5q44 0 89 32.5t77 90.5 q-24 -3 -46 -3q-51 0 -83 16.5t-32 47.5q0 3 2 11t2 12l-12 -16q-25 -37 -41 -66q-1 -2 -4 -2q-8 0 -18.5 9.5t-10.5 19.5q0 85 75 293q-32 -12 -47 -16zM457 4q9 20 15 42q17 60 17 120q0 124 -61 203q-51 -34 -105 -58q-32 -90 -57 -180.5t-29 -129.5q4 4 10.5 15 t15.5 26.5t14 22.5q3 6 15 20.5t19 19.5q13 10 22 10q5 0 5 -3q0 -1 -2 -3q-45 -39 -45 -68q0 -22 25 -34.5t65 -12.5q37 0 76 10zM486 40l-11 -31q77 24 131 73q98 89 98 191q0 91 -79.5 157t-211.5 76q-21 -31 -40 -73q31 -16 59 -46q44 27 73 57q8 8 9.5 7t0 -6t-3.5 -7 q-29 -30 -71 -61q65 -81 65 -210q0 -69 -19 -127zM458 -28q-35 -67 -86 -104.5t-100 -37.5q-54 0 -89 45t-35 130q0 41 11 99q15 71 53 168q-24 -6 -54 -10q-9 -1 -25 -1q-53 0 -83 24.5t-30 61.5q0 34 25.5 68.5t72.5 58.5q74 37 201 45q17 37 22 69q0 2 2 2q5 0 5 -9 q0 -17 -17 -62q4 0 12.5 0.5t13.5 0.5t13 -0.5t13 -0.5q22 31 44 42q12 6 26 6q26 0 50.5 -16t24.5 -27q0 -4 -5 -4q-3 0 -4.5 2t-4.5 6.5t-8 7.5q-17 14 -35 14q-4 0 -14 -2q-17 -3 -37 -31q152 -12 239.5 -82t87.5 -167q0 -115 -120 -220q-66 -57 -169 -76z"/>
<glyph glyph-name="E" horiz-adv-x="522" unicode="E" d="M535 417q6 13 6 28q0 17 -8 33q-27 -40 -27 -68q0 -9 7 -9q12 0 22 16zM115 40q-2 30 -2 48q0 96 42 187l-46 -7l-3 -7q-26 -53 -26 -111q0 -66 35 -110zM363 127q42 -45 55 -95q45 32 70 70q15 22 15 40q0 26 -31 26q-19 0 -50 -12q-24 -9 -59 -29zM142 -25 q19 -66 59 -101t85 -35q51 0 86.5 41.5t35.5 113.5q0 7 -1 10q-84 -46 -173 -46q-46 0 -82 13q-8 3 -10 4zM423 -6q0 -77 -39.5 -121t-95.5 -44q-52 0 -97 39.5t-65 113.5q-90 47 -90 159q0 54 24 117q-6 -1 -18 -5h-2q-5 0 -5 6q0 7 6 16t14 11l20 4l6 12q50 97 149.5 164 t205.5 67q27 0 50 -4q32 -5 52 -25q27 33 43 45q5 3 7 3q6 0 6 -5q0 -2 -3 -5q-23 -18 -45 -46q16 -19 16 -46q0 -12 -4 -23q-6 -16 -21 -26t-29 -10q-22 0 -22 24q0 6 1 9q2 14 15.5 34t23.5 30q-15 17 -44 21q-21 3 -41 3q-100 0 -181 -59t-135 -154q16 2 44 4 q79 139 234 184q4 1 5.5 -3t-2.5 -5q-134 -36 -216 -175q60 3 121 3q25 0 70 -0.5t63 -0.5q12 0 12 -6q0 -7 -18 -7q-139 0 -262 -15q-48 -96 -48 -194q0 -37 4 -62q12 -12 32 -22q40 -21 90 -21q77 0 151 45q-12 51 -52 98q-22 -13 -38 -26q-43 -34 -67 -63q-7 -8 -7 -3 q0 8 4 12q36 40 75 73q21 16 23 17q-58 58 -123 59q-3 0 -4 2t0.5 4t3.5 2q69 -2 132 -61q24 15 63 32q27 10 50 10q27 0 42.5 -13t15.5 -34q0 -34 -35 -70q-26 -26 -66 -51q0 -3 0.5 -9t0.5 -9z"/>
<glyph glyph-name="F" horiz-adv-x="534" unicode="F" d="M554 218q4 -1 4 -4q0 -4 -5 -7t-10 -2q-24 7 -59 7q-68 -125 -165 -229t-177 -129h-1q-1 -1 -2 -1q-6 0 -7.5 7t5.5 10q74 24 160 121.5t148 219.5q-22 -2 -34 -4q-11 -25 -25.5 -49.5t-33.5 -48.5t-33 -41t-38.5 -41t-36 -34.5t-39 -35.5t-34.5 -31q-4 -4 -4 3q0 3 2 5 q4 4 26.5 24.5t33 31t32.5 33t36.5 40t32.5 41.5t33 49t27 51q-93 -18 -177.5 -58.5t-118.5 -90.5q-1 -1 -2 -1q-6 0 -6 27q0 11 2 14q35 53 123.5 87.5t188.5 43.5q32 78 32 160q0 120 -94 165q-65 -14 -128.5 -52.5t-103.5 -91.5q28 -19 64 -34q50 -21 115 -29 q31 53 53 124q2 8 7.5 3.5t2.5 -12.5q-20 -67 -45 -117q36 -2 53 -2q3 0 4 -2t0 -4t-4 -2q-37 0 -57 2q-12 -23 -29 -45q-67 -91 -147 -91q-43 0 -70.5 28t-27.5 72q0 54 43 114l4 5q-29 28 -29 56q0 44 60.5 76.5t136.5 32.5q50 0 92 -16q24 4 54 4q76 0 123.5 -35.5 t47.5 -104.5q0 -24 -8 -59q-16 -64 -56 -143q37 -3 61 -10zM420 228q11 1 34 1q39 80 58 153q8 35 8 59q0 59 -34 87.5t-90 28.5q-20 0 -39 -3q92 -50 92 -170q0 -82 -29 -156zM310 562q-33 10 -71 10q-69 0 -123.5 -29t-54.5 -69q0 -24 20 -45q83 100 229 133zM280 336 q-71 7 -119 27q-39 17 -63 33q-40 -57 -40 -104q0 -32 19 -51.5t50 -19.5q69 0 131 82q10 13 22 33z"/>
<glyph glyph-name="G" horiz-adv-x="572" unicode="G" d="M96 105q24 75 65 145q-18 3 -43 13q-26 -55 -26 -108q0 -30 4 -50zM372 -42q-73 -51 -124 -127l-16 -26q48 8 87 47t53 102v4zM391 -10q45 26 92 37q37 120 62 240q-70 -115 -166 -193q13 -34 13 -69q0 -3 -0.5 -8t-0.5 -7zM477 10q-45 -14 -88 -41l-1 -5 q-13 -75 -59 -119t-102 -49q-29 -51 -29 -81q0 -29 27 -29q38 0 97.5 51t97.5 128q32 66 57 145zM204 -196q17 27 46 62q59 71 126 114q1 8 1 22q0 36 -10 63q-97 -75 -177 -78h-6q-62 0 -97 35q-2 -16 -2 -22q-2 -24 -2 -33q0 -75 34.5 -117t86.5 -46zM521 497 q-96 0 -182 -62.5t-151 -162.5q25 -4 61 -4q138 0 260 86q85 60 85 113q0 30 -28.5 48.5t-73.5 18.5q-48 0 -98 -20q-81 -32 -152.5 -94t-111.5 -134q21 -8 46 -12q66 103 155 167t190 64q4 0 4 -4t-4 -4zM525 34q22 2 33 2q15 0 15 -6q0 -7 -12 -7q-20 0 -41 -3 q-28 -80 -63 -148q-48 -90 -119 -143t-123 -53q-45 0 -45 41q0 30 29 79q-54 6 -90 51t-36 123q0 20 1 31l4 31q-31 39 -31 114q0 65 40 134q-62 40 -62 110q0 64 50.5 117.5t119.5 54.5q12 0 13 -7q2 -4 -5 -6h-2q-61 -1 -108 -49.5t-47 -105.5q0 -59 54 -93 q48 73 125.5 134t163.5 93q54 20 108 20t87.5 -21t33.5 -57q0 -55 -78 -122q-53 -46 -133.5 -77t-153.5 -31q-40 0 -80 7q-47 -78 -71 -161q24 -71 102 -73h3q71 0 156 63q-27 60 -86 60q-13 0 -28 -3q-9 -2 -23.5 -17t-13.5 -30q0 -2 -2 -3.5t-4 -0.5t-2 3v2 q0 19 16.5 35.5t27.5 18.5q15 4 31 4q65 0 95 -61q106 85 177 222q10 15 16 10q8 1 15.5 -2.5t7.5 -8.5q0 -81 -65 -271z"/>
<glyph glyph-name="H" horiz-adv-x="833" unicode="H" d="M493 262q-28 -10 -43 -13q-9 -22 -22 -44q15 1 43 1q13 28 22 56zM451 527q33 -56 33 -128q0 -68 -30 -141q28 7 42 14q25 79 25 151q0 22 -1 32q-4 37 -18 58t-32 21q-8 0 -19 -7zM463 188q-3 0 -10 0.5t-11 0.5t-12 -0.5t-12 -0.5q-50 -80 -124 -130t-152 -50 q-11 0 -31 2q-2 0 -3 2.5t0.5 4t3.5 1.5q20 -2 30 -2q76 0 146.5 47.5t117.5 124.5q-75 -3 -162.5 -16t-136.5 -29q-34 -11 -58.5 -32t-24.5 -51q0 -33 30.5 -53t69.5 -25q20 -2 31 -2q161 0 308 208zM441 256q29 69 29 138q0 70 -30 123q-40 -47 -40 -181q0 -7 -4 -7 q-6 1 -8 9q-4 28 -4 58q0 98 46 137l-7 9q-43 58 -100 58q-32 0 -66 -21q-52 -36 -52 -116q0 -78 50.5 -142.5t135.5 -68.5q29 0 50 4zM627 387q-30 -64 -91 -103q-11 -34 -31 -77q109 2 154 4q7 39 25.5 95t45 113.5t62 98t69.5 40.5h6q15 -2 15 -8q0 -3 -7 -3q-1 0 -3 0.5 t-4 0.5h-5q-27 0 -57 -40t-52 -97t-38 -110t-21 -88q46 5 59 13q12 8 11.5 1.5t-8.5 -11.5q-18 -13 -65 -21q-6 -45 -6 -78q0 -78 32 -98q6 -5 19 -5q23 0 52.5 19.5t44.5 44.5q8 12 11 12q2 0 2 -4q0 -11 -4 -16q-15 -25 -55.5 -52.5t-69.5 -27.5q-7 0 -10 1 q-27 6 -42.5 30.5t-15.5 84.5q0 38 5 76l1 9q-70 -5 -161 -5q-47 -72 -126.5 -131.5t-159.5 -85.5q-42 -14 -79 -14q-15 0 -22 1q-41 5 -68.5 30t-27.5 65v6q2 39 29.5 68.5t70.5 44.5q82 27 305 35l21 42q-24 -3 -48 -3q-91 4 -145.5 68t-54.5 144q0 88 63 130q34 23 76 23 q63 0 107 -59l6 -9q16 8 30 8q29 0 52 -26t29 -73q3 -21 3 -43q0 -51 -17 -111q55 39 81 95q2 5 6 1q3 -2 1 -5z"/>
<glyph glyph-name="I" horiz-adv-x="441" unicode="I" d="M409 27q14 -6 24.5 -16.5t10.5 -19.5q0 -15 -27 -15q-15 0 -32 4q-73 14 -138 18q-26 -33 -51 -46q-11 -7 -27 -7q-12 0 -25 5q-38 -42 -77 -62q-28 -15 -56 -15t-39 18q-1 1 -1 3q0 3 2.5 4t4.5 -1q13 -16 36 -16t53 16q37 20 68 57q-16 7 -27.5 18t-11.5 17q0 4 5 4 q3 0 4.5 -2t4.5 -6.5t8 -7.5q12 -10 25 -13q16 19 26 36q-141 -3 -141 -47q0 -10 10 -22.5t20 -18.5q8 -5 -2 -6q-8 -1 -14 3q-41 28 -41 51q0 64 172 64q7 0 10 -1q27 46 49 107q-2 0 -7 -0.5t-8 -0.5q-77 0 -137 52t-73 151q-4 36 -4 52q0 98 48 155t112 57q39 0 73 -23.5 t52 -68.5h17h31q20 0 30 1q17 21 29 21q10 0 11 -20q95 -4 106 -14q2 -2 3 -4q0 -1 1 -2v-2q0 -4 -5 -4q-1 0 -10 1t-17 1t-38.5 0.5t-43.5 0.5q-25 -171 -70 -307q51 36 61 90q1 5 5 1q3 -2 2 -5q-16 -65 -73 -101q-31 -89 -66 -143q68 -8 130 -23q16 -4 29 -4q12 0 12 5 q0 8 -28 26q-4 3 0 5q2 1 5 0zM214 -1q-11 1 -31 1h-1q-11 -18 -27 -37q3 0 11 2q24 6 48 34zM197 23q10 0 32 -2q30 46 55 119q-13 -4 -35 -8q-19 -53 -52 -109zM295 482q6 -22 9 -50q1 -10 1 -33q0 -116 -51 -256q20 4 34 10q28 85 46.5 181t19.5 148q-5 0 -15.5 0.5 t-15.5 0.5t-14.5 -0.5t-13.5 -0.5zM235 140q47 135 47 253q0 15 -2 41q-2 19 -8 46q-86 -9 -133.5 -40t-47.5 -69q0 -29 29 -53t83 -33q7 -2 2 -6.5t-12 -2.5q-137 40 -137 107q0 41 57 75t152 44q-16 42 -44 63.5t-61 21.5q-56 0 -98.5 -54.5t-42.5 -146.5q0 -30 4 -55 q13 -96 67.5 -144t124.5 -48q13 0 20 1z"/>
<glyph glyph-name="J" horiz-adv-x="421" unicode="J" d="M261 422q46 -60 46 -159q0 -48 -13 -108l42 7q62 189 74 319q-94 -7 -110 -11q-35 -9 -64 -20q17 -17 25 -28zM331 147q-17 -2 -41 -8q-38 -150 -137.5 -266t-206.5 -116q-9 0 -25 2q-3 0 -3 3q0 5 4 5q16 -2 24 -2q104 0 199 112.5t132 257.5q-194 -50 -298 -164 q-94 -100 -94 -175q0 -32 20 -51t55 -19q68 0 157 62q116 81 214 359zM281 152q12 54 12 105q0 97 -45 158q-15 18 -27 29q-84 -39 -84 -100q0 -43 40.5 -77t94.5 -39q8 -1 2.5 -7t-13.5 -5q-76 15 -117.5 48.5t-41.5 75.5q0 70 97 119q-25 13 -51 13q-34 0 -66 -21 q-61 -39 -61 -128q0 -62 34.5 -109t92.5 -49q15 -1 14 -4t-15 -2q-64 3 -102 50.5t-38 110.5q0 91 71 138q34 23 76 23q32 0 59 -15q21 9 52 19q42 12 136 18l20 2l6 5q6 5 13.5 10t12.5 5t6 -4q1 -2 1 -6v-6.5t1 -2.5q94 -4 105 -14q3 -2 3 -4q0 -1 1 -2v-2q0 -4 -5 -4 q-1 0 -10 1t-17 1l-81 1q-18 -145 -79 -315l44 3h9q15 0 15 -4q0 -7 -18 -7q-27 -2 -54 -6q-110 -305 -244 -388q-92 -58 -164 -58q-48 0 -75 26.5t-27 70.5t28.5 96.5t84.5 102.5q120 108 304 148z"/>
<glyph glyph-name="K" horiz-adv-x="655" unicode="K" d="M341 324q-4 -20 -14 -60l23 -36l44 89q-31 6 -53 7zM303 331q20 97 20 151q-11 1 -34 1q-9 -80 -25 -156q24 4 39 4zM447 98q53 28 67 75q3 12 3 25q0 37 -28.5 69t-83.5 47l-50 -92q6 -8 38.5 -52.5t53.5 -71.5zM281 483q-104 -3 -162 -36t-58 -76q0 -26 24.5 -48.5 t69.5 -33.5q50 25 100 36q17 75 26 158zM169 286l4 -1q8 -2 0 -7q-5 -4 -11 -2l-7 2q-70 -39 -103 -88q-33 -48 -33 -94q0 -34 18.5 -55t46.5 -21q29 0 58 24.5t50 74.5q37 87 61 197q-42 -8 -84 -30zM376 506q17 0 17 -11q0 -12 -22 -12q-12 -82 -28 -152q33 -2 54 -7 q45 90 90 143t115 70q2 1 4.5 1.5t5.5 1t5 0.5q5 1 16 1q47 0 80.5 -32.5t38.5 -81.5v-3q1 -4 1 -6q0 -6 -2 -6q-4 0 -4 12q-5 44 -38 67.5t-77 23.5q-13 0 -20 -1q-58 -7 -106.5 -59t-95.5 -134q58 -16 90.5 -50t32.5 -74q0 -10 -4 -26q-16 -52 -76 -81q53 -68 85 -90 q37 -24 60 -24q38 0 38 50q0 44 -28 85q-2 2 -2 4t2 2t7 -5q33 -38 33 -83q0 -32 -19.5 -54t-51.5 -22q-46 0 -97 45q-37 31 -67 79q-13 -3 -28 -3q-39 0 -72 21q-3 2 -1 5.5t6 1.5q31 -19 66 -19q16 0 24 2q-18 30 -48 88.5t-38 73.5q-67 -247 -156 -295q-11 -6 -27 -6 q-25 0 -49.5 16t-24.5 27q0 4 5 4q3 0 4.5 -2t4.5 -6.5t8 -7.5q17 -14 35 -14q4 0 14 2q51 12 95 117.5t71 240.5q-27 -2 -40 -5q-27 -119 -63 -202q-24 -56 -57.5 -84t-66.5 -28q-32 0 -53.5 23.5t-21.5 61.5q0 50 38 106q31 46 105 87q-118 40 -118 101q0 47 72.5 83 t186.5 39q3 30 3 49q0 3 4 3q5 0 4 -4q0 -18 -3 -48h29h15q17 21 29 21q10 0 11 -20z"/>
<glyph glyph-name="L" horiz-adv-x="433" unicode="L" d="M299 242q-16 -4 -35 -4q-8 -32 -13 -48q18 2 39 6zM245 172q-14 -39 -26 -64l34 -18q10 20 32 89q-14 -3 -40 -7zM251 238q-82 3 -132 59q0 -1 -0.5 -5t-0.5 -5q0 -44 37 -70.5t83 -26.5q5 16 13 48zM243 71q-15 8 -35 18q-43 -71 -99 -71h-4q-5 0 -5 4t4 4h4q53 0 91 67 q-54 24 -76 28q-9 2 -26 2q-34 0 -52.5 -16.5t-18.5 -39.5q0 -25 20.5 -45.5t58.5 -24.5q7 -1 19 -1q39 0 68.5 19t39.5 37zM495 367q31 68 31 130q0 64 -30 64q-23 0 -57.5 -52t-75.5 -162q-14 -37 -28 -83q58 30 92 99q2 5 6 1q3 -2 1 -4q-38 -77 -102 -107l-17 -50 q123 34 180 164zM253 246q19 91 19 157q0 87 -26 130t-64 43q-37 0 -66.5 -38t-29.5 -96q0 -55 28 -111q16 27 43 45q7 5 9 1q1 -1 -1 -2q-32 -26 -43 -60q20 -31 56 -49.5t75 -19.5zM105 315q-35 51 -35 117q0 47 20 86t57 58q18 9 36 9q43 0 74 -46.5t31 -135.5 q0 -68 -22 -157q15 0 35 5q31 163 71 234q54 100 108 100q30 0 48.5 -32.5t18.5 -81.5q0 -60 -27 -115q-27 -56 -82 -103.5t-129 -69.5q-17 -56 -40 -103q18 -11 47 -27t101 -45.5t122 -34.5q2 0 6.5 -0.5t7.5 -0.5q58 0 73 41q4 9 8 7q2 0 2 -3t-1 -5q-12 -34 -45.5 -50 t-71.5 -16q-12 0 -18 1q-45 5 -105.5 33.5t-98.5 54.5l-37 26q-51 -78 -126 -78q-14 0 -31 3q-52 9 -80 39t-28 64q0 30 21 50t59 20q12 0 27 -3q38 -8 109 -43q11 22 23 58h-12q-60 0 -94.5 25t-34.5 67q0 25 13 52z"/>
<glyph glyph-name="M" horiz-adv-x="833" unicode="M" d="M551 110l-29 8q-22 -66 -50 -121q21 10 79 113zM467 424q7 10 25 33q-35 59 -107 72q56 -38 82 -105zM501 440q-12 -20 -24 -45q14 -50 14 -111q0 -58 -14 -128q-1 -6 -5 -23l30 -3q24 96 24 177q0 80 -25 133zM139 -53q97 19 174 163q-94 -23 -137 -74q-37 -43 -37 -81 v-8zM465 370q-15 -34 -42 -107.5t-39 -100.5l-13 -30q26 3 52 3q25 0 37 -1q3 12 7 36q8 48 8 99q0 54 -10 101zM339 545q-38 16 -78 16q-57 0 -106 -30q-44 -26 -66 -68.5t-22 -89.5q0 -16 1 -23l9 18q40 69 112 118t150 59zM879 434q4 0 5 -3t-0.5 -6t-5.5 -3h-2 q-37 0 -69 -79t-47 -164.5t-15 -133.5v-11q6 -67 44 -67t76 60q5 8 9 5.5t0 -10.5q-17 -33 -45.5 -53t-56.5 -20q-30 0 -50 24.5t-20 71.5q0 36 10.5 96.5t30 128t54.5 116t77 48.5h5zM365 120q-88 -167 -222 -186q15 -42 74 -42q36 0 71 17q63 29 106 86.5t63 129.5 q-8 1 -24 1q-35 0 -68 -6zM554 498q5 1 6 -3q-2 -7 -10 -10q-8 -1 -18 -8q33 -49 33 -134q0 -95 -41 -218q11 -2 31 -8l13 23q96 158 146 225q128 168 221 168q23 0 38 -18t15 -44q0 -13 -5 -15q-3 3 -4 7q0 44 -46 44q-17 0 -39 -9q-39 -18 -84.5 -61.5t-87.5 -100 t-76 -107t-66 -100.5q-7 -12 -11 -18q86 -35 86 -101q0 -20 -7 -38q-1 -2 -3.5 -2.5t-4 1.5t-0.5 4q7 18 7 37q0 63 -82 93l-2 -3q-77 -118 -101 -118q-6 0 -4 6q25 64 42 131q-10 2 -30 4q-24 -84 -73 -140.5t-106 -82.5q-35 -17 -74 -17q-71 0 -90 47q-7 -1 -21 -1 q-16 0 -33 2.5t-34 14t-17 29.5q0 9 4.5 14t9.5 5t5 -3q0 -2 -2 -4q-3 -5 -3 -9q0 -10 11.5 -19t21.5 -12q20 -5 39 -5q11 0 15 1q-1 3 -1 11q0 39 39 84q50 58 159 84q14 26 24 51q5 10 27 62t43 94t42 76q-27 84 -90 124q-7 1 -21 1q-69 0 -141.5 -54t-104.5 -129 q-9 -19 -16 -51q30 -59 89 -59h2q41 0 77 25.5t40 58.5q0 2 2 3t4 -0.5t2 -3.5q-4 -36 -43 -63.5t-82 -27.5h-2q-56 0 -91 46q-1 -6 -1 -19q0 -46 24 -75t76 -29q43 0 77.5 24.5t51.5 47.5q5 8 6 3q1 -4 -2 -10q-11 -27 -58 -57.5t-94 -30.5q-58 0 -86 35t-28 88q0 34 11 69 q-7 21 -7 48q0 47 25 92t75 75q51 31 111 31q47 0 88 -20l5 -3q7 1 21 1q102 0 150 -61q13 9 28 12z"/>
<glyph glyph-name="N" horiz-adv-x="686" unicode="N" d="M441 269q12 1 37 1q-6 30 -13 84q-10 -44 -24 -85zM560 243l4 -23q10 -56 19 -86q7 29 18 86q-21 14 -41 23zM551 247q-16 7 -37 10q27 -136 49 -186q8 17 16 48q-12 35 -23 100zM590 112q27 -79 60 -79q2 0 8 2q21 11 21 51q0 43 -31 87q-17 22 -34 36q-15 -65 -24 -97z M512 266q19 -3 37 -9q-9 47 -22 92t-34 98t-50.5 85.5t-63.5 32.5q-8 0 -12 -1q-16 -3 -33 -16q112 -12 147 -141q16 -57 31 -141zM411 252q-67 -18 -123 -71q-36 -35 -36 -74q0 -42 36 -62q75 88 123 207zM320 379q-27 37 -27 85q0 38 17 67q-5 1 -15 1q-59 0 -115 -44 t-84 -116q-19 -47 -19 -95q0 -77 56 -77h6q29 3 56.5 31t39.5 49q5 7 7 3q2 -3 0 -8q-10 -24 -47.5 -58.5t-69.5 -36.5h-7q-35 0 -51.5 27.5t-16.5 70.5q0 58 25 108q37 73 105.5 118t137.5 45h6q18 20 42 23q12 2 18 2q32 0 59 -21.5t44.5 -51.5t32.5 -77.5t23 -84.5 t16 -86q20 -8 44 -25q10 47 16.5 76t19 72.5t26 70.5t32.5 54t44 40t55 13q38 0 64 -28.5t26 -53.5q0 -3 -1.5 -5t-3.5 -1t-3 5q-5 17 -24.5 34t-47.5 17q-27 0 -50.5 -12t-41.5 -36.5t-32.5 -50.5t-27 -64.5t-20.5 -68.5t-18 -72q20 -16 38 -40q33 -46 33 -94 q0 -44 -26 -57q-6 -3 -11 -3q-36 0 -64 75q-8 -27 -16 -43q33 -66 72 -66q16 0 32.5 10t27 20t11.5 10q2 0 2 -2t2 -3q1 -1 0 -2q-44 -46 -89 -46q-42 0 -78 49q-6 -5 -18 -5q-15 0 -15 9q0 2 3.5 3t10 2.5t10.5 3.5q-41 86 -62 221h-11l-31 -3q-46 -122 -133 -218 q10 -3 22 -3q36 0 68 29q5 5 6 -2q1 -2 -1 -4q-34 -31 -73 -31q-16 0 -28 4q-30 -33 -61 -57q-87 -70 -175 -70q-29 0 -47 17t-18 46q0 34 25 66q0 3 4 3q2 0 2 -3l-8 -20q-8 -19 -8 -35q0 -25 15 -43.5t39 -18.5q110 0 217 122q-45 26 -45 74q0 42 38 77q59 58 140 75 q27 68 33 130q-38 118 -130 135q-18 -29 -18 -66q0 -43 26 -81q1 -2 0 -4t-3 -2t-4 2z"/>
<glyph glyph-name="O" horiz-adv-x="534" unicode="O" d="M143 6q-55 52 -82 126q-1 -5 -1 -16q0 -41 21.5 -70t61.5 -40zM145 340l-5 10q-7 22 -11 39q-27 -30 -42 -62q-17 -33 -21 -69v-12v-24q25 62 79 118zM418 469q61 -82 84 -192q3 -16 7 -46q15 40 15 88q0 55 -29 94.5t-77 55.5zM217 -31q45 -21 97 -21q62 0 110 46 t64 122q-50 -64 -122.5 -103.5t-148.5 -43.5zM380 491q-67 72 -133 72q-24 0 -44 -10q-67 -33 -67 -118v-8q91 66 217 66q9 0 27 -2zM355 319q-25 -61 -82 -61q-31 0 -62.5 17.5t-52.5 44.5q-63 -70 -87 -144q18 -110 93 -173q12 -2 19 -2q3 0 7 0.5t7 0.5q82 4 169 59.5 t130 138.5q-2 39 -10 77q-24 117 -93 199q-17 4 -40 4q-132 0 -215 -82q5 -26 13 -45l3 -5q90 86 181 86q12 0 12 -7q0 -6 -13 -6q-78 0 -169 -93q19 -27 48.5 -44.5t58.5 -17.5q53 0 75 56q1 4 5 2.5t3 -5.5zM125 420v8q0 96 74 132q26 12 53 12q79 0 151 -85 q67 -14 111 -62.5t44 -118.5q0 -86 -51 -164q-14 -90 -68 -146t-126 -56q-62 0 -116 28q-79 1 -117.5 39t-38.5 100q0 32 9 65q-11 41 -11 95v1q-1 65 54 122q14 15 32 30z"/>
<glyph glyph-name="P" horiz-adv-x="606" unicode="P" d="M467 362l-19 8l-6 -20zM376 382q-16 -42 -22 -62l40 12q2 6 8 22.5t9 24.5q-14 2 -23 2q-4 1 -12 1zM364 382q-108 -3 -196 -68q17 -14 56 -14q16 0 36 3q33 3 78 13q9 27 26 66zM537 255q-2 63 -56 98q-30 -16 -45 -23q-26 -90 -31 -104q10 2 27.5 3.5t22.5 2.5 q41 8 82 23zM346 296l-8 -28q-10 -36 -26 -75.5t-42 -88t-63.5 -79.5t-78.5 -31q-9 0 -13 1q-28 3 -49.5 22t-29.5 52q-11 -25 -11 -46q0 -31 22 -50t65 -19q47 0 86 22.5t67.5 62.5t46.5 76.5t35 83.5l39 110q-9 -3 -40 -13zM433 480q-24 -18 -54 -90q6 0 9 -1q14 0 26 -3 q36 88 65 123q-87 -1 -165 -31t-119.5 -68t-41.5 -69q0 -11 6 -19q91 66 209 68q36 79 60 97q2 1 4 0t2.5 -3t-1.5 -4zM450 378q18 -8 25 -12q36 17 70 42q5 4 9 4q3 0 3 -4q0 -7 -10 -13q-33 -22 -58 -37q53 -37 55 -100q71 27 108.5 64t40.5 74v5q0 44 -55.5 74t-135.5 33 q-24 -34 -52 -130zM156 304q-92 -72 -107 -166l-1 -5q73 82 206 96q6 1 6 -5t-7 -8q-72 -11 -125.5 -46t-81.5 -80q3 -40 22 -62t47 -25q2 0 6 -0.5t6 -0.5q39 0 73.5 29.5t58.5 77t38.5 85t25.5 76.5l7 22q-21 -5 -63 -11q-9 -1 -26 -1q-58 0 -85 24zM32 110q0 15 3 30 q16 97 112 173q-12 15 -12 35q0 61 94 116t256 55h3q26 27 55 33h1q9 0 5 -8q-2 -5 -9 -6q-15 -3 -31 -20q93 -4 157 -34.5t64 -83.5v-6q-4 -45 -54.5 -86.5t-131.5 -67.5q-9 -79 -83 -112q-5 -2 -6 3q-1 3 2 4q33 15 53.5 42.5t25.5 59.5q-61 -18 -136 -24l-9 -27 q-90 -246 -278 -246q-52 0 -79.5 25.5t-27.5 65.5q0 39 26 79z"/>
<glyph glyph-name="Q" horiz-adv-x="535" unicode="Q" d="M123 382q-22 -25 -36 -55q-22 -44 -22 -91q0 -9 1 -14q15 38 45 78q1 44 12 82zM272 -24q38 -23 77 -23q20 0 38 6q44 15 66 51.5t22 81.5v9q-85 -97 -203 -125zM111 259q-27 -41 -41 -84q-9 -30 -9 -58q0 -52 32 -83.5t92 -31.5h12q3 0 9 0.5t9 0.5q-90 90 -103 244 q0 2 -0.5 6t-0.5 6zM456 469q0 19 -6 35q-23 65 -103 65q-51 0 -103 -32t-83 -93q86 49 192 49q57 0 103 -24zM634 -261q-33 -48 -105 -48q-26 0 -47 6q-43 12 -91 44.5t-84 67.5t-81.5 72.5t-81.5 54.5q-22 11 -42 11q-29 0 -46.5 -20t-17.5 -48q0 -25 16.5 -46t47.5 -30 q12 -3 12 -8q0 -4 -7 -4t-11 2q-38 13 -57.5 36t-19.5 49q0 32 26 55.5t66 23.5q25 0 46 -8q42 -14 89.5 -49t83.5 -68.5t89.5 -67.5t108.5 -48q15 -5 33 -5q43 0 65 30q8 8 11 5q0 -2 -3 -7zM524 319q0 84 -63 128q-8 -34 -33.5 -58t-58.5 -25q-4 0 -4 4t4 4q31 1 55 24 t30 56q-45 28 -101 28q-127 0 -209 -76q-13 -40 -17 -84q44 50 99 82t109 32q5 0 9.5 -2t3.5 -7q-1 -4 -14 -4q-49 0 -106.5 -40t-102.5 -101l2 -35q12 -148 106 -239q64 12 127 51t105 95q-14 37 -47.5 63t-68.5 26q-46 0 -71 -47q-1 -2 -3 -2t-3.5 2t-0.5 4q30 52 78 52 q36 0 71 -26t52 -62q52 73 52 157zM485 113q1 -6 1 -19q0 -48 -24.5 -87.5t-72.5 -55.5q-21 -7 -45 -7q-47 0 -91 29q-28 -5 -52 -5q-81 0 -120.5 38t-39.5 102q0 44 16 89q-18 32 -18 71q0 66 54 122q19 22 48 41q32 69 90 107.5t116 38.5q40 0 69.5 -18.5t41.5 -53.5 q6 -16 6 -40q94 -53 94 -159q0 -104 -73 -193z"/>
<glyph glyph-name="R" horiz-adv-x="688" unicode="R" d="M333 485q18 -44 18 -106q0 -34 -4 -61q20 5 47 14q45 127 85 177q-77 -1 -146 -24zM332 315q6 36 6 73q0 55 -14 94q-67 -23 -113 -59.5t-55 -68.5q13 -3 28 -3q43 0 72 29q5 5 6 -2q1 -2 -1 -4q-32 -32 -78 -32q-9 0 -29 4v-5q0 -40 71 -40q9 0 35 2q36 3 72 12z M317 499q-19 38 -51 59q-35 22 -73 22q-49 0 -84.5 -34t-35.5 -86q0 -17 2 -26q9 -49 62 -73q7 40 53.5 78t126.5 60zM502 508q-26 -37 -60 -158q58 26 103 58q5 4 9 4q3 0 3 -4q0 -7 -10 -13q-61 -42 -111 -65q-12 -42 -29 -97l4 -6q43 5 44 5q113 24 173.5 70t64.5 94v5 q0 44 -55.5 74t-135.5 33zM84 -19h7q45 0 83.5 24.5t65.5 66.5t45 84t31 89q7 27 11 46q-21 -4 -60 -10q-10 -1 -28 -1q-51 0 -78 20t-25 51q-29 11 -50 32.5t-26 48.5q-3 14 -3 27q0 55 40.5 92t94.5 37q42 0 78 -23q35 -23 56 -64q75 18 162 18q26 27 55 33q7 1 7 -4 q0 -8 -10 -10q-15 -3 -31 -20q93 -4 157 -34.5t64 -83.5v-6q-5 -62 -93.5 -114t-216.5 -65q9 -13 43.5 -65t51 -75.5t46.5 -57t57 -51.5q35 -24 60 -24q38 0 38 51q0 45 -29 84q-4 6 0 6t8 -5q32 -37 32 -83q0 -32 -19.5 -53.5t-51.5 -21.5q-47 0 -97 44q-25 22 -49 55.5 t-38.5 60t-36.5 70.5t-33 63h-2l-9 -27q-90 -246 -278 -246q-51 0 -79 25.5t-28 65.5q0 65 66.5 125t181.5 73q6 1 6 -5t-7 -8q-101 -15 -164.5 -75t-63.5 -118q0 -31 22 -50t65 -19q47 0 86 22.5t67.5 62.5t46.5 76.5t35 83.5l39 109l-42 -13q-4 -25 -12 -51 q-13 -47 -32.5 -90t-48.5 -86t-70 -69t-89 -26h-8q-6 1 -4 6q1 3 4 2z"/>
<glyph glyph-name="S" horiz-adv-x="520" unicode="S" d="M518 424q11 17 11 35q0 12 -5 25q-29 -37 -35 -62q0 -1 -0.5 -2.5t-0.5 -2.5q0 -9 7 -9q14 0 23 16zM158 96q20 52 50 100q-84 -17 -124 -65q30 -26 74 -35zM461 239q14 28 14 57q0 26 -14 42.5t-39 16.5q-30 0 -69 -23q80 -59 108 -93zM131 -35q0 19 3 42q6 38 21 82 q-43 9 -77 35q-4 -5 -10 -15q-15 -29 -15 -54q0 -66 78 -90zM170 94l18 -2h15q113 0 196 70q20 17 35 35q-26 46 -118 110q-21 -18 -22 -19q-34 -30 -66 -76q24 4 51 4q15 0 22 -1q11 -2 10 -11q-1 -5 -7 -4q-10 2 -34 2q-28 0 -51 -4q-31 -51 -49 -104zM440 183 q-10 -12 -29 -28q-82 -70 -207 -70h-17q-7 0 -19 2q-11 -31 -16 -67q-3 -33 -3 -59q26 -4 42 -4q33 0 77 11q83 20 132.5 66t49.5 101q0 19 -6 37q-3 9 -4 11zM217 209q37 55 72 85l20 17q-36 28 -39 31q-44 41 -44 85q0 43 42 79h-7q-106 0 -180 -83q-62 -68 -62 -151 q0 -77 52 -129q54 47 146 66zM366 -84q-5 -38 -44.5 -66t-84.5 -28q-42 0 -71.5 29t-33.5 91q-55 8 -82 35.5t-27 66.5q0 31 16 62q9 16 25 31q-61 58 -61 141q0 82 61 149q78 87 195 87q3 0 8.5 -0.5t8.5 -0.5q29 22 68 35q36 11 71 11q83 0 118 -48q27 28 49 43q2 2 7 2 q6 0 6 -4q0 -3 -5 -6q-26 -19 -50 -44q10 -18 10 -37q0 -18 -8 -33q-7 -15 -22.5 -24.5t-29.5 -9.5q-21 0 -21 20q0 4 2 14q7 27 47 63q-20 50 -97 50q-36 0 -69 -13q-18 -7 -43 -24q80 -18 107 -81q1 -2 -0.5 -4t-3.5 -2t-3 2q-28 63 -106 79q-30 -27 -30 -60q0 -43 48 -85 l25 -20q43 26 78 26q30 0 47 -19.5t17 -50.5q0 -33 -17 -66l15 -24q16 -31 16 -61q0 -66 -65 -119t-168 -73q-49 -11 -95 -11q-4 0 -12 0.5t-11 0.5q6 -54 33 -79.5t64 -25.5q39 0 72.5 24.5t37.5 57.5q0 2 2.5 3t4 0t1.5 -4z"/>
<glyph glyph-name="T" horiz-adv-x="464" unicode="T" d="M109 337q-27 46 -27 101q0 34 10 61q-54 -26 -54 -78q0 -29 19 -52t52 -32zM323 513l-12 17q-44 59 -103 59q-35 0 -60 -20q-16 -12 -27 -29q22 2 36 2q21 0 47 -3q41 -5 119 -26zM353 484q17 -45 17 -106q0 -110 -54 -230.5t-136 -196.5q98 43 181 230q11 25 39 91 t48 108.5t41 74.5q-71 12 -136 29zM324 538q9 -14 19 -31q136 -35 155 -39q43 59 86 66q6 1 6 -3q-1 -8 -10 -10q-29 -5 -58 -57q46 -8 86 -8q97 0 155 50q3 3 5 1.5t2 -4.5q0 -6 -7 -13q-53 -46 -155 -46q-48 0 -93 7q-18 -37 -54 -136.5t-57 -146.5q-96 -218 -255 -242 q-74 -54 -140 -54q-8 0 -24 2q-4 0 -4 4t5 4q16 -2 23 -2q61 0 124 44q-8 -1 -25 -1q-49 0 -74.5 23t-25.5 60q0 66 71.5 129.5t190.5 76.5q6 1 6 -5q0 -7 -7 -8q-105 -16 -174 -79t-69 -121q0 -63 82 -63q24 0 50 7q85 71 141.5 193.5t56.5 235.5q0 68 -21 116 q-100 23 -135 26q-20 2 -29 2q-34 0 -67 -12q-10 -29 -10 -64q0 -60 28 -105q6 -1 17 -1q67 0 117 30t62 61q3 10 8 5q4 -4 1 -11q-14 -38 -63.5 -70t-121.5 -32h-3h-4q29 -32 71 -35q4 0 3.5 -3t-4.5 -3q-49 3 -82 42q-57 5 -90.5 38.5t-33.5 75.5q0 37 28.5 66.5 t82.5 39.5q13 21 34 38q29 22 70 22q65 0 110 -60z"/>
<glyph glyph-name="U" horiz-adv-x="707" unicode="U" d="M378 372q57 22 81 43q31 27 31 50q0 22 -23.5 36t-54.5 14h-8q-32 -4 -50 -9q21 -25 27 -58q3 -15 3 -29q0 -23 -6 -47zM110 337q9 -2 30 -4q3 0 9.5 -0.5t10.5 -0.5q84 0 175 27q12 33 12 67q0 9 -2 27q-4 25 -19 45q-115 -39 -196 -136zM-2 382q34 -28 90 -41 q20 27 26 34q80 92 204 131q-27 24 -73 24q-66 0 -140 -44t-107 -104zM105 329q-54 -77 -54 -153q0 -70 45 -115t115 -45h10l-1 4q-3 17 -3 32q0 44 20.5 95t51.5 109.5t43 92.5q-91 -24 -171 -24q-26 0 -47 3q-3 1 -9 1zM127 559q-17 7 -38 7q-47 0 -86.5 -34.5 t-39.5 -79.5q0 -13 2 -20q5 -15 12 -27q34 61 112 101t154 40q65 0 103 -32q26 6 55 9h7q33 0 62 -16.5t29 -42.5q0 -25 -34 -55q-30 -26 -89 -47q-11 -41 -66.5 -153t-55.5 -169q0 -13 1 -19q30 6 60 21q49 24 75.5 64.5t26.5 76.5q0 28 -16 38q-6 4 -1 6q2 1 4 0 q23 -14 23 -51q0 -39 -26 -80.5t-73 -64.5q-35 -18 -70 -24q9 -37 48 -37q77 0 173 161q32 53 79 165t87 233q3 15 25 15q14 0 24 -7t8 -18q-111 -262 -111 -431q0 -98 38 -98q17 0 34 17q26 26 40 63q1 4 5.5 2.5t4.5 -4.5q0 -29 -42 -73q-27 -28 -55 -28t-47 26.5 t-20 74.5v22q0 64 13 151q-47 -85 -65 -114q-109 -177 -194 -177q-60 0 -79 54h-5q-79 0 -131 53t-52 132q0 74 47 145q-55 12 -88 41l-2 -4q-12 -24 -12 -51q0 -56 55 -76q5 -2 1.5 -6t-9.5 -1q-60 31 -68 74q-2 8 -2 24q0 33 15 63q-12 17 -16 34q-2 7 -2 21 q0 48 40.5 84.5t91.5 36.5q21 0 42 -8q5 -2 3 -6q-1 -2 -5 -1z"/>
<glyph glyph-name="V" horiz-adv-x="543" unicode="V" d="M536 518q12 -11 12 -33q0 -15 -6 -28q-31 -74 -120 -109v-21q0 -84 -22.5 -177t-52.5 -153q9 5 24 25t27 40t27 46.5t18 31.5q4 7 28 47.5t40 67t46 73t53.5 78.5t56 70.5t59.5 62t57 39.5t55 16q24 0 39 -19t15 -45q0 -12 -5 -13q-3 0 -4 3q-1 2 -1 4q0 43 -46 43 q-20 0 -39 -8q-34 -16 -74 -54.5t-86.5 -102.5t-74 -104t-74.5 -115.5t-50 -80.5q-2 -2 -9 -12.5t-13.5 -20t-15.5 -22.5t-17.5 -23t-17 -19.5t-16 -15t-12.5 -5.5q-8 0 -4 6q22 54 39 139t17 164q0 16 -2 44q-9 -2 -34 -7q5 -33 5 -81q0 -97 -26.5 -187.5t-73.5 -146.5 q-1 -1 -3 -1q-3 0 -4 2t1 4q42 51 67 140.5t25 185.5q0 37 -5 82q-24 -2 -35 -2q-76 0 -137 31t-82 87q-27 -33 -42 -71q-15 -40 -15 -79q0 -40 19 -65.5t60 -25.5q34 0 62 21.5t40 40.5q6 9 6 1q0 -3 -2 -7q-10 -24 -47 -50.5t-73 -26.5q-46 0 -68.5 30.5t-22.5 77.5 q0 54 24 99q22 41 53 72q-4 16 -4 34q0 42 25.5 70.5t62.5 28.5q30 0 61 -21q19 -12 34 -28h5h4q74 0 111 -51.5t43 -135.5q81 35 110 102q6 15 6 30q0 16 -6 22q-5 4 1 6q2 1 4 0zM274 528q60 -72 78 -190q24 4 34 8q-14 156 -112 182zM338 336q-18 125 -78 195q-7 1 -22 1 q-74 0 -142 -75q19 -60 75.5 -91.5t129.5 -31.5q13 0 37 2zM247 545q-10 10 -27 22q-29 20 -57 20q-32 0 -53 -24t-21 -62q0 -13 3 -28q73 65 155 72z"/>
<glyph glyph-name="W" horiz-adv-x="816" unicode="W" d="M150 470q24 11 50 11q39 0 68 -27t35 -90q3 -24 3 -48q0 -58 -14 -122v-1q21 11 42 18q11 60 11 109q0 56 -14 97q-30 84 -112 84q-79 0 -141 -65.5t-62 -143.5q0 -38 18 -61.5t55 -23.5q35 0 70.5 24t57.5 56l4 4q2 0 2 -3q0 -2 -2 -6q-21 -34 -65 -63.5t-81 -29.5 q-41 0 -61.5 27t-20.5 69q0 48 20 90q28 61 91.5 101.5t130.5 40.5q155 0 155 -164q0 -55 -18 -129q35 11 66 14q38 5 66 5v18q0 64 15 125.5t44 78.5q8 5 16 5q27 0 27 -35q0 -48 -59 -149q0 -3 4 -43q102 -5 166 -49q119 159 119 286v5q-1 39 -19 63t-60 37q-9 3 -9 9 q0 4 6 4q7 0 12 -2q115 -37 115 -129q0 -101 -151 -283q49 -40 49 -90q0 -9 -1 -14q-5 -25 -28.5 -43t-49.5 -18q-28 0 -44 23q-1 2 0 4t3 2t4 -2q13 -19 37 -19q22 0 43.5 15.5t26.5 38.5q1 3 1 11q0 44 -49 83q-28 -33 -68.5 -77.5t-66.5 -74t-37 -47.5q-3 -4 -5 -4 q-7 0 -7 35t-14.5 110t-16.5 94q-36 -56 -103.5 -140t-118.5 -127q-19 -16 -30 -16q-8 0 -8 7q0 4 3 10q59 143 82 256q-23 -8 -42 -17q-35 -147 -106 -246q-50 -72 -111 -72q-23 0 -37 13.5t-14 37.5q0 40 38 93q75 105 215 175q16 72 16 135q0 15 -2 43q-6 60 -31.5 85 t-59.5 25q-21 0 -45 -10q-5 -3 -5 2q-1 4 2 5zM709 184q-60 38 -157 45q8 -68 10 -82q4 -24 4 -63q0 -55 -11 -84q16 23 70.5 84.5t83.5 99.5zM505 230q-50 -2 -76 -6q-30 -3 -60 -12q-33 -122 -102 -261q11 3 18 10q60 59 124 135.5t96 132.5v1zM273 176 q-125 -62 -196 -161q-38 -55 -38 -94q0 -21 11 -32.5t30 -11.5q51 0 98 66q60 85 95 233zM543 364q0 -19 2 -59q46 92 46 134q0 22 -11 22q-8 0 -16 -10.5t-14.5 -33.5t-6.5 -53z"/>
<glyph glyph-name="X" horiz-adv-x="577" unicode="X" d="M323 342q-19 -6 -38 -9q1 -14 1.5 -29.5t1 -34.5t0.5 -29l36 30q-1 20 -1 72zM238 518q37 -61 46 -177q20 3 39 9q-1 34 -4.5 58.5t-12 50.5t-26 41t-42.5 18zM217 533q-12 14 -20 20q-26 22 -54 22q-29 0 -49 -24.5t-20 -61.5q0 -13 3 -28q64 57 134 71q1 0 3 0.5t3 0.5 zM275 340q-5 119 -46 178q-8 0 -12 -1q-73 -7 -136 -72q12 -36 41 -63t74 -37q28 -6 57 -6q15 0 22 1zM440 494q5 -12 5 -24q0 -29 -21 -60.5t-61 -51.5q0 -18 2 -54l169 135q78 61 119 107q34 39 55 41q6 0 6 -5q0 -10 -25 -38q-22 -24 -122 -101q-155 -117 -201 -155v-48 v-30.5t1 -43.5t2.5 -46t6.5 -48.5t11.5 -39t18.5 -30.5t27 -10h3q25 2 50 18q21 13 34.5 26t42.5 50q6 7 10.5 3t-2.5 -13q-39 -46 -76 -77q-55 -47 -90 -50h-3q-77 0 -77 239v49v16q-4 -3 -11.5 -9.5t-13.5 -12t-12 -9.5l2 -61q0 -8 1 -32.5t2 -42.5t4 -44.5t9 -45 t15 -36.5t24 -27.5t34 -9.5q36 0 62 25q3 3 6 0t0 -6q-34 -29 -68 -29q-23 0 -40.5 9t-28 27.5t-17 37t-9.5 46t-4.5 46t-1.5 45.5t-1 37q-1 16 -1 50q-209 -181 -296 -340q-21 -38 -39 -40h-2q-6 0 -6 12q0 11 10 25q108 173 333 362v50q0 34 -1 52q-7 -1 -21 -1l-60 6 q-88 20 -119 101q-34 -37 -52 -82q-16 -37 -16 -76q0 -88 84 -88q36 0 65.5 21t42.5 39q5 7 6 2q0 -3 -2 -7q-10 -23 -49.5 -49t-78.5 -26q-49 0 -72.5 29.5t-23.5 73.5q0 51 26 96q25 45 65 84q-7 24 -7 47q0 40 20 63t51 23q34 0 69 -29q14 -12 23 -24q10 2 29 2 q27 0 47 -10t30.5 -24t17.5 -38t9 -44.5t3 -50.5q34 22 53.5 52.5t19.5 53.5q0 8 -3 14q-2 4 2 6t6 -2z"/>
<glyph glyph-name="Y" horiz-adv-x="707" unicode="Y" d="M564 246q-13 -28 -23 -69t-21 -97.5t-19 -88.5q32 12 40 16q0 2 3.5 28t8 57t14 77.5t21 91t30.5 95.5t42 93q-40 -48 -79 -107.5t-77.5 -125.5t-48.5 -82q-79 -119 -101 -119q-3 0 -4.5 2.5t0.5 4.5q48 117 48 264q0 18 -2 50q-9 -2 -23 -4h-4q2 -28 2 -43q0 -21 -4 -73 q-9 -99 -40 -195q-1 -5 -5 -2q-3 1 -2 4q29 89 37 194q4 50 4 71q0 15 -2 43q-24 -2 -35 -2q-83 0 -144 34q-56 32 -80 68q-4 -6 -15 -31q-11 -28 -11 -60q0 -72 62 -72q43 0 79 49q4 6 4 1q0 -2 -2 -6q-7 -18 -35.5 -39t-57.5 -21q-36 0 -53.5 24t-17.5 60q0 42 19 77 q12 22 19 31q-16 28 -16 56q0 38 26 64t65 26q49 0 98 -43h5q50 0 89 -28.5t58 -86.5q11 -32 14 -79q44 15 71 39.5t29 56.5q0 2 2 3t4 0t2 -4q-6 -70 -107 -103v-22q0 -76 -19.5 -156.5t-47.5 -137.5q9 4 24 24t27 40.5t27 47t18 31.5q9 15 41 72.5t57 100.5t66 97.5 t81 89.5q5 5 14 5q8 0 8 -7q0 -6 -5 -13q-47 -69 -77.5 -158t-40 -153.5t-14.5 -120t-6 -58.5q28 12 79 41q13 7 16 7q2 0 2 -1q0 -6 -22 -20q-54 -36 -80 -48q-23 -92 -77 -178t-137 -143q-63 -43 -130 -61q-34 -10 -72 -10q-89 0 -121 55q-11 17 -11 39q0 19 8 38 q-25 39 -25 83q0 53 36 91t84 38q37 0 68 -24q24 -18 36 -44q35 15 75.5 30.5t92 34t79.5 29.5q10 36 23 94.5t24 101t23 69.5q5 11 9 7q3 -3 0 -10zM496 -28q-23 -86 -55 -136q-45 -69 -115.5 -116.5t-140.5 -47.5q-8 0 -24 2q-68 8 -108 53q-5 -10 -5 -23q0 -11 6 -23 q22 -38 98 -38q43 0 88 12q107 28 190 118t108 216zM246 -136q3 -14 3 -27q0 -36 -19 -70q-1 -2 -3.5 -2t-3.5 1.5t0 4.5q15 27 15 56q0 11 -4 31q-69 -32 -118 -65q-41 -30 -58 -57q39 -46 105 -55q7 -1 20 -1q66 0 133 46.5t110 113.5q30 45 54 125q-140 -55 -234 -101z M224 -116q-12 22 -31 36q-31 24 -67 24q-43 0 -74 -32.5t-31 -79.5q0 -37 23 -76q21 35 62 63q51 35 118 65zM358 338q-11 83 -66 159q-17 22 -31 36q-2 0 -6.5 0.5t-6.5 0.5q-40 0 -79 -25.5t-65 -69.5q26 -39 80 -69q58 -33 142 -33q21 0 32 1zM247 545q-42 36 -86 36 q-34 0 -56.5 -22t-22.5 -56q0 -27 14 -52q61 82 151 94zM369 339l3 1q16 2 23 4q-5 46 -15 74q-29 90 -97 110q16 -18 24 -29q53 -77 62 -160z"/>
<glyph glyph-name="Z" horiz-adv-x="546" unicode="Z" d="M349 338q-24 -25 -86 -100q7 0 17 -0.5t12 -0.5q49 56 86 93q-17 6 -29 8zM124 25q-37 10 -67 11h-8q-44 0 -44 -19q0 -10 13.5 -18.5t33.5 -8.5q40 0 72 35zM202 1q-4 -12 -4 -27q0 -33 24 -55t68 -22q19 0 29 2q72 12 118 47q-3 0 -8 -0.5t-8 -0.5q-13 0 -27.5 1.5 t-26 3.5t-29 6.5t-26.5 6.5t-29 9t-26 9t-28.5 10.5t-26.5 9.5zM339 340q-19 3 -39 3q-64 0 -116.5 -20.5t-83 -52t-46.5 -64t-16 -61.5q0 -22 10 -36t28 -14q33 0 82 46q23 22 67 70q-72 -13 -73 -37q-1 -2 1 -8q0 -1 1 -2t1 -2l-1 -1q-3 0 -14 11q-5 9 -4 19q4 44 112 46 q68 79 91 103zM208 31q22 34 57 52q32 16 80 16q45 0 54 -21q2 -5 -3 -5q-3 -1 -4 2q-7 16 -47 16q-48 0 -76 -15q-35 -19 -54 -47q5 -2 40 -13t47.5 -14.5t40.5 -10.5t50.5 -9.5t46.5 -2.5q10 0 34 2q48 57 48 137q0 62 -30.5 116t-85.5 83q-14 -15 -40 -44.5t-32 -36.5 q63 -2 105 -12q5 0 5 -3q-1 -2 -5 -2h-3q-18 3 -56 3q-40 0 -60 -1q-22 -24 -47.5 -56t-55 -69.5t-43.5 -54.5q26 -7 34 -10zM454 433q-18 -9 -99 -88l29 -9q81 78 152 122q-30 2 -92.5 6.5t-115 7.5t-92.5 3q-20 0 -44 -5.5t-47 -22.5t-23 -43q0 -7 2.5 -14.5t4.5 -12 t2 -5.5q0 -6 -5 -6l-2 1q-11 19 -11 40v8q3 33 30.5 58t57.5 31q19 4 42 4q43 0 97.5 -6.5t119.5 -16.5t96 -14q38 21 69 21q23 0 23 -11q0 -23 -92 -23h-5q-60 -45 -140 -134q59 -32 92.5 -90t33.5 -122q0 -75 -43 -129q37 5 65 33.5t28 63.5q0 19 -8 35q-3 4 2 7q4 2 5 -1 q10 -21 10 -43q0 -47 -43 -84t-94 -46q-56 -44 -139 -57q-18 -3 -32 -3q-48 0 -73 24t-25 59q0 14 5 32l-44 15q-51 -43 -98 -43q-24 0 -39.5 11t-15.5 26t17 26.5t51 14.5q7 1 20 1q28 0 56 -6q1 1 54.5 70t79.5 100q-11 0 -32 -3q-36 -45 -74 -82q-49 -46 -88 -46 q-24 0 -38 19t-14 48q0 31 16 64t46.5 63.5t85 50t122.5 19.5q21 0 46 -5q79 81 107 94q10 5 10 1q0 -3 -9 -8z"/>
<glyph glyph-name="bracketleft" horiz-adv-x="585" unicode="[" d="M573 697q0 -9 -1 -13q-4 -1 -14 -1q-12 0 -36 2t-36 2q-43 0 -55 -7q-26 -16 -61 -60q-80 -94 -181.5 -282t-101.5 -278q0 -56 77 -56q12 0 37 2.5t38 2.5q29 0 29 -12q0 -14 -92 -14h-20h-4q-104 0 -104 36q0 76 61 222t146 279.5t147 178.5q25 19 70 19q101 0 101 -21z "/>
<glyph glyph-name="backslash" horiz-adv-x="551" unicode="\" d="M523 -84q0 -32 -26 -32q1 3 1 6t-0.5 7.5t-0.5 6.5q0 85 -51 200.5t-131 229.5t-156.5 207.5t-148.5 167.5q1 6 14 6q26 0 48 -19q27 -22 92 -106q51 -64 106 -143t115.5 -177.5t99 -194t38.5 -159.5z"/>
<glyph glyph-name="bracketright" horiz-adv-x="556" unicode="]" d="M538 679q0 -145 -83.5 -344t-186.5 -308q-42 -44 -175 -44h-24q-25 0 -37 2q28 24 52 24q3 0 14 -0.5t18 -0.5q48 0 82 11.5t61 43.5q79 94 159.5 281.5t80.5 298.5q0 13 -4 37q-13 9 -40 9q-17 0 -99 -5q32 32 109 32q4 0 12.5 0.5t13.5 0.5q47 0 47 -38z"/>
<glyph glyph-name="asciicircum" horiz-adv-x="323" unicode="^" d="M267 249q0 -4 -2 -5q-5 0 -8 1q-6 2 -7 4l-37 58l-108 -58q-4 -4 -14 -4q-8 -2 -8 2q0 1 0.5 1t0.5 1l122 86q10 2 23 2q8 0 8 -2z"/>
<glyph glyph-name="underscore" horiz-adv-x="760" unicode="_" d="M714 -48q-200 -6 -215 -8q-10 -1 -114.5 -2t-214.5 -2t-121 -1h-6q-22 0 -22 8q0 5 13 15q15 9 26 13q12 4 418 4q180 0 236 -7q30 -3 30 -11q0 -7 -30 -9z"/>
<glyph glyph-name="grave" horiz-adv-x="245" unicode="`" d="M79 415q-6 6 -6 17q0 13 9 13q5 0 15 -8q6 -5 22 -16.5t31.5 -23.5t30.5 -24q4 -3 4 -7q0 -7 -8 -7q-4 0 -6 1q-52 29 -92 55z"/>
<glyph glyph-name="a" d="M325 67q-3 -6 -17.5 -20.5t-41 -32t-49.5 -17.5q-8 0 -17 3q-37 13 -37 95v7l-3 -5q-4 -5 -10 -14.5t-14 -21t-17.5 -23t-19 -21t-20.5 -15.5t-20 -6h-3q-32 4 -32 45q0 37 25 86.5t62 84.5q47 42 90 42q19 0 38 -9q17 -10 17 -30q0 -23 -19 -26q6 10 6 20q0 22 -25 22 q-24 0 -52 -24q-29 -25 -58 -64.5t-43 -72.5q-10 -28 -10 -40q0 -13 9 -13q11 0 35 23q22 21 74 97q16 21 24 21t8 -22q-2 -30 -2 -44t2 -32q9 -44 31 -44q11 0 29 9q8 4 15.5 10t14 12t11 10.5l8.5 8.5l4 5q1 1 3 0t3 -3z" unicode="a"/>
<glyph glyph-name="b" horiz-adv-x="259" unicode="b" d="M334 486q5 -8 5 -10q0 -3 -4.5 -2.5t-6.5 2.5q-22 18 -51 18h-4q-47 -1 -111.5 -153t-69.5 -217q14 24 53 67t53 54q11 8 25 8q22 0 28 -18q2 -8 2 -19q0 -75 -43 -142q-24 -37 -62.5 -59t-74.5 -22q-14 0 -29 5q-27 10 -27 37q0 19 15 34q8 -65 49 -65h6q25 4 53.5 31.5 t45.5 63.5q25 53 25 97q0 25 -9 25q-2 0 -3 -1q-46 -23 -79 -74.5t-34 -102.5q0 -8 -4 -8q-5 0 -17 11.5t-13 12.5q0 47 24 147.5t64 176.5q45 87 98 120q4 2 23 7t28 5h3q28 -7 42 -29z"/>
<glyph glyph-name="c" horiz-adv-x="199" unicode="c" d="M202 66q-17 -21 -47.5 -44.5t-60.5 -33.5q-18 -6 -31 -6q-50 0 -50 67q0 25 6 47q20 76 73 133q23 25 50 25q20 0 36 -15q12 -9 12 -28q0 -4 -1 -6q-3 -7 -8 3q0 1 -1 3q-6 11 -22 11q-28 0 -57 -46t-43 -87q-9 -25 -9 -49q0 -39 30 -39q6 0 10 1q55 10 112 76q7 7 7 0 q0 -4 -6 -12z"/>
<glyph glyph-name="d" horiz-adv-x="306" unicode="d" d="M216 233q-31 0 -81 -56t-71 -107q-10 -28 -10 -40q0 -13 9 -13q11 0 35 23q35 34 84 105.5t49 81.5q0 6 -15 6zM350 77q0 -1 0.5 -1t0.5 -1q0 -16 -45 -48t-78 -32q-8 0 -16 3q-17 7 -17 52q0 11 1 23.5t2.5 23.5t3 19.5t2.5 13.5l1 6l-12 -14q-99 -126 -135 -126h-3 q-32 6 -32 46q0 61 57.5 137t119.5 76q21 0 38 -10q14 31 40 106q15 47 32.5 72.5t29.5 25.5q10 0 10 -17q0 -2 -0.5 -4t-0.5 -4q0 -3 -14.5 -31.5t-37.5 -77t-39 -89.5l-1 -2q-1 -1 -1 -2q5 -10 5 -16t-5 -6l-8 2q-20 -58 -20 -124q0 -46 14 -53q3 -2 11 -2q21 0 58 27 t38 27h1z"/>
<glyph glyph-name="e" horiz-adv-x="225" unicode="e" d="M181 179q3 12 3 19q0 22 -17 22q-20 0 -44 -24q-28 -26 -43 -55q74 2 86 2q12 24 15 36zM243 70q-24 -28 -70.5 -55t-85.5 -27q-30 0 -49 18q-21 19 -21 65q0 7 2 25q6 30 24.5 66.5t44.5 61.5q24 24 58 24q22 0 44 -13q19 -12 19 -35q0 -26 -22 -56h20q5 0 5 -1 q0 -5 -36 -13q-10 -12 -20 -19q-16 -12 -15 -4q0 4 5 9l10 11q-81 -6 -86 -7q-10 -24 -11 -52v-6q0 -28 14 -42t34 -14q1 0 4 0.5t5 0.5q64 11 124 74q8 8 8 0q0 -5 -5 -11z"/>
<glyph glyph-name="f" horiz-adv-x="151" unicode="f" d="M318 452q2 10 2 13q0 23 -26 23q-32 -1 -72 -54.5t-66 -107.5t-39 -92h88q8 0 8 -2q2 -5 -18 -9q-52 -12 -85 -12q-27 -66 -45 -194q-10 -83 -10 -117q0 -70 23 -93q5 -5 15 -10q7 -4 3 -6q-6 -2 -11 -2q-21 0 -42 17.5t-24 47.5q-1 8 -1 28q0 67 21.5 168t40.5 157 q-2 0 -4 -0.5t-4 -0.5q-13 0 -20 6t-7 12q0 5 3 5q5 1 19.5 2t18.5 2q51 133 85 187q57 91 115 91q12 0 22 -3q24 -8 24 -33q0 -17 -14 -23z"/>
<glyph glyph-name="g" horiz-adv-x="258" unicode="g" d="M174 16q-284 -171 -350 -242q-38 -42 -38 -77q0 -23 17 -40q29 -29 86 -29q52 0 105 22q65 25 113 76q74 79 74 207q0 45 -7 83zM260 84q-43 -43 -62 -55q4 -28 4 -65q0 -170 -97 -273q-46 -49 -105 -73q-44 -18 -87 -18q-73 0 -117 44q-30 30 -30 69q0 45 38 86 q39 42 98.5 80.5t144.5 84.5t124 70q-13 64 -17 68l-4 -5q-3 -5 -9 -14.5t-14 -21t-17.5 -23t-19 -21t-20.5 -15.5t-20 -6h-3q-32 4 -32 45q0 36 25.5 86t62.5 85q45 42 89 42q20 0 38 -9q17 -10 17 -30q0 -23 -19 -26q6 11 6 20q0 22 -25 22q-24 0 -52 -24 q-30 -25 -58.5 -64.5t-41.5 -72.5q-11 -27 -11 -40t9 -13q11 0 35 23q22 21 74 97q16 21 24 21t8 -19q0 -4 -0.5 -15t-0.5 -19q0 -25 2 -55q27 18 61 48q10 9 14 9q1 0 1 -1q0 -7 -13 -22z"/>
<glyph glyph-name="h" horiz-adv-x="242" unicode="h" d="M468 501q-19 50 -96 50q-15 0 -37 -4q-30 -6 -56 -18.5t-45 -26t-37.5 -37t-29.5 -40t-24.5 -46t-19.5 -45t-17.5 -48t-15.5 -42.5q67 19 173.5 68.5t156.5 87.5q52 40 52 81q0 11 -4 20zM477 512q7 -17 7 -37q0 -57 -57 -101q-40 -31 -107 -61.5t-109.5 -45 t-124.5 -40.5q-16 -43 -34 -160q14 21 44 59.5t39 50.5q3 13 15 27t20 14q7 0 7 -12q0 -6 -1 -10q-12 -76 -12 -108q0 -64 23 -64q13 0 31 14q13 9 26.5 24t23.5 27.5t11 13.5q2 2 4 -4l1 -2q-7 -17 -46.5 -58t-71.5 -41q-10 0 -18 4q-24 12 -24 79l5 66q0 1 -2.5 -1.5 t-8 -9t-11.5 -13.5t-14 -18t-14.5 -18.5t-15.5 -19t-13 -17.5q-1 -23 -13 -38t-20 -15q-3 0 -3 8q0 33 13 108.5t24 103.5q-31 -8 -33 -25q-2 -11 -7 -11q-4 0 -4 9q0 30 51 45q26 85 76 168t111 129q43 34 94 45q15 3 31 3q80 0 107 -68z"/>
<glyph glyph-name="i" horiz-adv-x="142" unicode="i" d="M177 86q-15 -25 -63 -60q-34 -25 -56 -25q-32 0 -32 56q0 16 1 25q3 28 33 134q1 7 20 7q23 0 23 -11t-7.5 -29.5t-17.5 -20.5q-5 -1 -15 -86q-2 -16 -2 -23q0 -30 16 -30q12 0 32 17q59 48 61 51q8 6 8 -2q0 -2 -1 -3zM145 303q0 -5 -12 -19.5t-22 -17.5q-1 0 -3 -0.5 t-3 -0.5q-8 0 -16.5 3.5t-8.5 7.5q0 1 1 2q35 29 58 29q6 0 6 -4z"/>
<glyph glyph-name="j" horiz-adv-x="138" unicode="j" d="M92 154q-4 -20 -13.5 -68t-16 -78.5t-19.5 -69t-28 -63.5q-17 -27 -45 -46.5t-61 -19.5q-17 0 -33 6q-13 3 -13 23q0 7 1 11q1 9 5 10t4 -9q-1 -10 8 -20t25 -10h2q28 1 53 31q19 22 36.5 59.5t29.5 76.5t23 82.5t16.5 75t9.5 57.5l5 25q1 4 10 4t19 -3.5t10 -6.5 q0 -4 -2.5 -17.5t-9.5 -30.5t-16 -19zM164 303q0 -5 -12.5 -19.5t-22.5 -17.5q-1 0 -3 -0.5t-3 -0.5q-8 0 -16.5 3.5t-8.5 7.5q0 1 1 2q35 29 59 29q6 0 6 -4z"/>
<glyph glyph-name="k" horiz-adv-x="207" unicode="k" d="M285 486q5 -8 5 -10q0 -7 -11 0q-20 18 -51 18h-4q-44 0 -85 -77t-64.5 -170t-33.5 -176q13 42 31 73l-4 12q-2 8 -2 12q0 13 5 13t11 -17v-1q27 45 59 77q47 46 101 46q28 0 37 -16q3 -5 -3 -7q-3 -1 -5 2q-3 6 -13 6q-35 0 -102 -62q-35 -35 -62 -70q23 -42 69 -84 t81 -50l2 -1q0 -1 -5.5 -2.5t-15 -3t-17.5 -1.5q-12 0 -21 3q-2 1 -8 3t-8.5 3t-7.5 4t-8.5 6t-8.5 8.5t-11 12.5q-31 40 -53 85q-36 -54 -45 -111v-5q0 -9 -4 -9q-5 0 -17 12l-13 13q0 32 17.5 123t42.5 172q44 144 126 186q22 12 44 12q33 0 52 -29z"/>
<glyph glyph-name="l" horiz-adv-x="166" unicode="l" d="M267 481q0 25 -14 25q-16 0 -39 -28q-29 -34 -69.5 -124.5t-58.5 -150.5q56 53 118.5 139t62.5 139zM83 181q-23 -81 -23 -124q0 -30 12 -39q7 -5 18 -5q23 0 55 18t50 41q6 9 11 9q2 0 2 -4q0 -10 -6 -18q-15 -20 -56 -42t-69 -22q-7 0 -10 1q-39 10 -39 68q0 35 9 74 h-4q-6 0 -6 5q0 9 18 28q60 250 158 332q23 18 45 18q15 0 24.5 -9t9.5 -26q0 -32 -15 -69.5t-31.5 -63.5t-51.5 -66t-49.5 -54.5z"/>
<glyph glyph-name="m" horiz-adv-x="402" unicode="m" d="M478 103q-5 -8 -24.5 -31t-54.5 -49t-62 -26q-12 0 -21 4q-34 16 -34 73q0 18 10 83q-60 -64 -88 -102q-1 -24 -21.5 -42.5t-31.5 -18.5q-2 0 -2 1q0 19 14.5 96t14.5 96q-2 -2 -38 -48.5t-58.5 -78.5t-26.5 -45q-5 -13 -16.5 -22t-20.5 -9q-6 0 -6 6q0 5 15.5 74.5 t15.5 112.5q0 5 -0.5 13.5t-0.5 12.5q0 13 14 23t27 10q11 0 11 -8q0 -4 -1 -7q-7 -18 -18 -91t-13 -76q39 35 98 134q21 34 36 34q17 0 17 -46q0 -55 -8 -103q8 10 28 32.5t35 41.5t31 41q4 14 16.5 28.5t20.5 14.5q7 0 7 -12q0 -7 -1 -12q-15 -88 -19 -116q-1 -6 -1 -16 q0 -50 35 -50q18 0 42 15q12 8 25.5 19.5t22 21t16 18.5t8.5 10q2 1 4 -0.5t3 -3.5v-2z"/>
<glyph glyph-name="n" horiz-adv-x="253" unicode="n" d="M268 24q1 1 2 1q2 0 2 -4q0 -11 -10 -21q-24 -26 -57 -26q-7 0 -10 1q-40 7 -40 67q0 20 4.5 45.5t9.5 44t11 36.5t6 20q-9 -12 -40.5 -47.5t-56.5 -65.5t-29 -42q-5 -14 -16.5 -23t-20.5 -9q-6 0 -6 6t14.5 64t14.5 98q0 5 -0.5 14t-0.5 13q0 13 13.5 23t25.5 10 q13 0 13 -11l-1 -2v-3q-2 -10 -9 -47.5t-12.5 -64t-7.5 -30.5q59 54 127 160q4 7 19 7q23 0 25 -10v-2q1 -1 1 -2q0 -7 -4.5 -20t-12.5 -36t-13 -45q-15 -64 -15 -99q0 -37 16 -37h2q29 4 56 37z"/>
<glyph glyph-name="o" horiz-adv-x="235" unicode="o" d="M183 169q-19 3 -30 14t-12 20l-1 9q-17 -4 -37 -39t-31 -76q-7 -25 -7 -46q0 -43 26 -43q27 0 56 47q15 24 25.5 57.5t10.5 51.5v5zM293 185q3 0 3 -2q0 -6 -11 -12q-22 -11 -54 -11q-20 0 -28 4q2 -15 -8.5 -47.5t-27.5 -61.5q-38 -67 -82 -67q-25 0 -41.5 23t-16.5 59 q0 26 11 59q37 112 91 117q6 7 17 7q19 0 39 -17t22 -39q14 -16 38 -16q8 0 24.5 2t23.5 2z"/>
<glyph glyph-name="p" horiz-adv-x="226" unicode="p" d="M162 109q-37 -32 -53 -57q-8 -13 -8 -23q0 -12 12 -12q21 0 36 27q14 27 14 56q0 2 -0.5 5t-0.5 4zM239 149q-42 -25 -42 -26q-2 -54 -24 -85t-56 -40q-12 -2 -15 -2q-22 0 -22 23q0 26 23 54q4 5 19 17t28 22l12 11q0 20 -16 56.5t-34 40.5q-1 0 -27 -73t-54 -165 t-32 -131q0 -4 -1.5 -13t-2.5 -18t-1 -17q0 -37 25 -41q10 -2 10 -6q0 -2 -7 -2q-8 0 -14 1q-20 3 -33.5 26.5t-13.5 53.5q0 13 3 25q10 47 39 139t53 161l25 68q-1 0 -4 1.5t-4.5 2t-3 2.5t-0.5 4q2 8 8 13.5t10.5 8t4.5 1.5q12 30 16 56q0 1 0.5 3t0.5 3q0 5 -1.5 8.5 t-3.5 5.5t-4.5 4t-3.5 3q-6 3 0 5q2 1 6 1h4q20 -5 30 -16t8 -19l-19 -64q61 -39 71 -110h1q2 0 8.5 3.5t17 9.5t16.5 9t9 3t3 -2q0 -7 -12 -15z"/>
<glyph glyph-name="q" horiz-adv-x="232" unicode="q" d="M227 245q17 -10 17 -30q0 -23 -19 -26q6 11 6 20q0 22 -25 22q-24 0 -52 -24q-29 -25 -58 -64.5t-43 -72.5q-10 -28 -10 -40q0 -13 9 -13q11 0 35 23q22 21 74 97q15 20 25 20q11 0 10 -23q-65 -179 -65 -262q0 -9 2 -25q5 -38 27 -51q10 -5 17 -5q21 0 30 16q5 9 8 6 q3 -2 -1 -11q-11 -25 -27 -25h-2q-42 6 -63 38t-21 72v6q1 83 50 209l-3 -5q-4 -5 -10 -14.5t-14 -21t-17.5 -23t-19 -21t-20.5 -15.5t-20 -6h-3q-32 4 -32 45q0 37 25 86.5t62 84.5q47 42 90 42q19 0 38 -9z"/>
<glyph glyph-name="r" horiz-adv-x="177" unicode="r" d="M207 192q-9 19 -26 19q-40 0 -98 -90q-29 -44 -50 -115q-2 -8 -9 -8q-9 0 -9 8q0 21 13 110t13 100q1 11 13.5 19t24.5 8q15 0 15 -10q0 -3 -1 -5q-1 -4 -14.5 -53.5t-17.5 -58.5q24 42 61 81.5t57 39.5h1q18 0 27.5 -14.5t9.5 -29.5q0 -8 -3 -8t-7 7z"/>
<glyph glyph-name="s" horiz-adv-x="198" unicode="s" d="M212 70q1 -1 1 -2q0 -7 -24 -23q-8 -6 -24.5 -15t-28.5 -16l-11 -7q-7 -14 -42 -24t-67 -10q-21 0 -31 5q-6 3 -6 11t8 14t24 7q97 8 104 10q7 11 7 22q0 18 -22 37q-55 47 -55 93q0 14 7 27q35 58 84 58q21 0 36 -11t15 -24q0 -5 -1 -7q-2 -5 -5 -4t-4 6q-1 17 -19 17 t-41.5 -18t-32.5 -42q-4 -9 -4 -21q0 -23 29 -55.5t29 -51.5q0 -8 -5 -20q51 24 79 44z"/>
<glyph glyph-name="t" horiz-adv-x="167" unicode="t" d="M218 233q0 -2 -23.5 -4.5t-51 -5.5t-33.5 -5q-35 -86 -46 -144q-3 -16 -3 -27q0 -30 22 -30q15 0 67 27q10 5 24 16.5t24 19.5t14 8q3 0 3 -4q0 -13 -53.5 -51t-88.5 -38h-1q-24 2 -34 10t-10 32q0 18 4 41q3 19 15 54t21.5 60t8.5 25q-11 0 -74 -9q-2 -1 -3.5 2.5 t-1.5 8.5q0 11 8 14q13 5 78 8q31 106 46 137q3 6 8 6q9 0 18.5 -13.5t9.5 -25.5q0 -4 -1 -6l-49 -98q4 0 13 0.5t14 0.5q75 0 75 -9z"/>
<glyph glyph-name="u" horiz-adv-x="281" unicode="u" d="M340 67q-2 -5 -16.5 -20.5t-41 -32.5t-49.5 -17q-8 0 -17 3q-18 6 -28.5 35t-12.5 54.5t-1 26.5l-4 -6q-3 -6 -10 -16.5t-15.5 -23.5t-18.5 -26t-20.5 -23.5t-21.5 -17.5t-20 -7h-3q-38 6 -38 53q0 74 73 183q5 8 25 8q31 0 31 -10q0 -1 -1 -2q-24 -24 -50.5 -72 t-39.5 -85q-7 -23 -7 -33q0 -20 13 -20q15 0 37 22q8 7 19 22t20 27.5t22 33t19 28.5q13 20 23 20q8 0 8 -17v-5v-27q0 -105 41 -105q9 0 25 8q8 4 15.5 10t14 12t11 10.5l8.5 8.5l4 5z"/>
<glyph glyph-name="v" horiz-adv-x="237" unicode="v" d="M280 197q6 -1 6 -6q0 -10 -13 -15q-10 -2 -15 -2q-16 0 -30 8q0 -15 -18.5 -50t-44.5 -63q-65 -71 -112 -71q-4 0 -14 2q-19 4 -19 31q0 24 16.5 77.5t16.5 64.5q0 7 -4.5 17t-9.5 11q-2 1 -2 4q0 9 14 29q3 5 17 5q33 0 33 -11q0 -16 -19 -91t-19 -98q0 -13 5 -16 q4 -2 7 -2q27 0 79 61q56 69 61 109q-22 25 -22 52q0 25 13 27h4q23 0 23 -44l-2 -30q13 -8 26 -8q7 0 12.5 2t8.5 4z"/>
<glyph glyph-name="w" horiz-adv-x="407" unicode="w" d="M459 192h3q3 0 3 -1q0 -3 -20.5 -10.5t-35.5 -8.5h-8q-12 0 -38 4q3 -22 3 -38q0 -28 -14 -68q-12 -36 -40 -60t-57 -24q-58 0 -65 94q-2 26 -2 37v9l1 5q-68 -148 -133 -148q-8 0 -16 3q-21 7 -21 40q0 37 23.5 94t40.5 83q14 21 39 21q15 0 15 -8q0 -2 -3 -7 q-28 -31 -51 -92t-23 -94q0 -15 5 -17q2 -1 5 -1q19 0 51.5 40.5t61.5 104.5q4 9 1 29q2 20 32 20q19 0 19 -12q0 -10 -4.5 -50.5t-4.5 -62.5q0 -47 12 -63q7 -10 20 -10q20 0 41.5 25t32.5 63q6 23 6 46q0 8 -2 24q-22 31 -22 43q0 6 3 13q4 9 24 9q18 0 22 -12 q10 -22 67 -22q11 0 29 2z"/>
<glyph glyph-name="x" horiz-adv-x="212" unicode="x" d="M274 56q-2 -5 -14.5 -20.5t-37 -32.5t-47.5 -17q-9 0 -18 3q-44 14 -48 107q-34 -29 -42 -36q-56 -52 -56 -74q0 -6 -3 -7q-10 0 -10 15q0 12 7.5 25.5t22.5 27.5t25 22.5t30 23t23 16.5q-12 92 -26 98q-8 1 -20 -11q-8 -8 -11 0q-1 6 7 13q28 26 51 26q7 0 10 -5 q4 -9 9 -32.5t8 -42.5l3 -19q12 7 51.5 42t53.5 57q18 27 19 27h1q4 0 4 -8q0 -19 -31 -49l-95 -83q0 -2 1.5 -11.5t2.5 -15.5t3 -16.5t4.5 -17.5t5.5 -16.5t7 -15.5t8.5 -11.5t10.5 -8.5t13 -3q9 0 23 8q24 14 48 46q1 1 3 0t3 -2z"/>
<glyph glyph-name="y" horiz-adv-x="242" unicode="y" d="M136 -31q-68 -16 -177 -60.5t-161 -79.5q-56 -37 -56 -80q0 -9 3 -18q19 -55 105 -55q10 0 26 2q30 4 56.5 15t46 23.5t39 35t31.5 38.5t27 45.5t22 44t20 47t18 42.5zM225 208q0 -28 -18 -107t-31 -108q31 7 34 24q1 6 4.5 9t6 0.5t1.5 -10.5q-4 -29 -54 -41 q-30 -83 -84.5 -163.5t-117.5 -123.5q-46 -31 -96 -39q-16 -2 -24 -2q-39 0 -68.5 19t-41.5 55q-5 14 -5 33q0 61 61 103q90 61 349 128q7 17 14 49t16 79t10 53q-41 -74 -87 -128q-4 -13 -16.5 -26t-20.5 -13q-6 0 -6 10q0 7 1 12q15 68 15 102q0 44 -22 44q-10 0 -22 -8 q-9 -6 -10.5 -0.5t8.5 12.5q26 19 45 19q10 0 17 -4q19 -11 19 -59q0 -14 -1.5 -29t-3 -23.5t-2.5 -9.5q0 -7 89 118q5 33 28 33q13 0 13 -8z"/>
<glyph glyph-name="z" horiz-adv-x="216" unicode="z" d="M206 181q-133 -113 -157 -160q106 13 141 13q41 0 41 -21q0 -14 -15.5 -32t-22.5 -18q-4 0 -4 3v1q0 4 9.5 13t9.5 14v1q-2 11 -45 11q-51 0 -83 -2q-57 -6 -58 -6h-7q-7 5 -7 12q-2 5 2 11q7 16 45.5 55.5t84.5 85t58 58.5q-45 3 -48 3q-48 0 -71 -22q-1 -1 -6.5 -7 t-12 -11t-9.5 -5t-3 5q15 36 34 51q26 6 71 6q15 0 44 -1t42 -1q16 0 16 -9q0 -14 -18.5 -30t-30.5 -18z"/>
<glyph glyph-name="braceleft" horiz-adv-x="369" unicode="{" d="M423 724l-8 -3q-43 0 -73.5 -12t-46.5 -30.5t-27 -48t-15.5 -56t-11.5 -64t-14 -62.5q-18 -58 -61 -100.5t-98 -42.5h-2q44 -5 73.5 -33.5t29.5 -72.5q0 -41 -19 -121t-19 -122q0 -36 16.5 -55.5t36 -22t38.5 -4t22 -5.5q-2 -3 -12 -3q-30 0 -51 3t-41.5 12.5t-31 29 t-10.5 50.5q0 42 20 122t20 122q0 94 -117 96l5 8q85 9 117 37q23 20 36.5 53t18.5 67.5t10 72t16 70.5t31.5 59.5t61 42t100.5 15.5q4 0 6 -2z"/>
<glyph glyph-name="bar" horiz-adv-x="250" unicode="|" d="M59 -117q-1 0 -1 1q0 7 2 16t4.5 19.5t3.5 15.5q30 130 30 133q37 212 37 435q0 90 -6 135q-1 8 -7 31t-6 35q0 11 19 11q46 0 46 -98q0 -5 -0.5 -15.5t-0.5 -15.5q0 -90 -34 -368.5t-59 -314.5q-14 -20 -28 -20z"/>
<glyph glyph-name="braceright" horiz-adv-x="485" unicode="}" d="M471 296l-7 -9q-62 -1 -101.5 -24.5t-57.5 -60.5t-29.5 -81.5t-24.5 -88.5t-35 -80.5t-68 -59.5t-117 -23q-5 0 -6 2q4 3 49.5 7t71.5 23t45 63.5t29.5 90t31 95t48.5 76.5q27 26 66 45t75 23q-46 3 -78.5 25.5t-32.5 64.5q0 46 29 132.5t29 131.5q0 21 -5.5 33.5 t-17 18.5t-21.5 8t-28.5 4t-29.5 4l-2 2l7 4q28 0 45 -1.5t40.5 -8t35.5 -22.5t12 -42q0 -48 -31.5 -136.5t-31.5 -135.5q0 -42 30 -58.5t80 -21.5z"/>
<glyph glyph-name="asciitilde" horiz-adv-x="220" unicode="~" d="M259 273q-3 -10 -17 -21t-31 -15q-8 -2 -12 -2q-16 0 -40.5 18t-39.5 18q-13 0 -25 -10.5t-16 -11.5q-10 0 -10 4q0 7 21.5 21.5t37.5 20.5q3 1 10 1q16 0 39 -19t36 -19q1 0 3 0.5t3 0.5h1q5 0 18.5 10t17.5 10t4 -6zM233 21q4 4 4 -3q0 -9 -9 -18q-23 -23 -51 -23 q-1 0 -3.5 0.5t-4.5 0.5q-32 5 -32 41q0 2 0.5 6t0.5 6q2 18 14 50.5t23.5 57t11.5 25.5q1 4 -1 4t-8 -4.5t-13.5 -12l-14.5 -14.5t-13.5 -14t-7.5 -8q-7 -7 -28 -24.5t-35 -31.5t-16 -23q-3 -12 -13 -19.5t-18 -7.5q-6 0 -6 5q0 8 23.5 62t23.5 75q0 7 13 16.5t21 9.5 q5 0 5 -5q0 -19 -17.5 -57t-26.5 -53q63 56 82 78q14 16 34.5 34t27.5 28q5 6 14 6q20 0 20 -11q0 -5 -8 -18.5t-20.5 -35.5t-19.5 -42q-17 -45 -17 -82q0 -30 14 -30h2q26 2 49 32z"/>
<glyph glyph-name="nbspace" horiz-adv-x="184" unicode=""/>
<glyph glyph-name="exclamdown" horiz-adv-x="277" unicode="" d="M168 60q-24 -59 -95 -199q-71 -139 -117 -218q-1 -4 -7 -4q-7 0 -22 10q-6 4 -14 14q-4 5 -4 8q0 14 22 46.5t58 79t52 71.5q63 96 98 196q6 17 20 17q11 0 11 -12q0 -3 -2 -9zM237 176q0 -13 -9 -22t-23 -9q-13 0 -22 9q-10 9 -10 22t10 22q9 9 22 9q14 0 23 -9t9 -22z "/>
<glyph glyph-name="cent" horiz-adv-x="211" unicode="" d="M223 550q-3 -4 -18 -43l-27 -72q35 -12 35 -50q-2 -19 -11 -30q-10 -12 -25 -12q-14 0 -23 10q-9 9 -9 22q1 30 29 30h3q17 0 22 -12q2 11 -3 19q-4 7 -11 9q-2 1 -7 1q-15 0 -34 -13q-25 -16 -45 -44q-38 -53 -38 -102v-7q2 -44 36 -44q51 0 110 117q5 8 8 8t3 -4 q0 -5 -1 -8q-26 -60 -48 -86q-33 -37 -75 -38l-30 -70q-25 -63 -25 -94q0 -20 13 -24q7 -1 7 -6t-4 -5t-6 1q-24 7 -24 39q0 34 24 89l30 70q-56 5 -56 66q0 54 38 110q43 61 96 61h4l24 61q16 38 29 59q6 11 10 11q2 0 2 -7q0 -6 -3 -12z"/>
<glyph glyph-name="sterling" horiz-adv-x="382" unicode="" d="M148 0q-38 30 -58 43q-39 29 -57 29q-17 0 -17 -17q0 -6 1 -9q5 -24 29 -44q20 -16 42 -19q4 -1 12 -1q28 0 48 18zM470 486q2 -12 2 -20q0 -30 -15 -68q-14 -39 -39 -69q-5 -5 -8 -5t-4 4q0 2 3 7q53 76 53 132q0 6 -2 20q-6 30 -31 30q-32 0 -64 -41q-22 -30 -38 -78 q-10 -33 -17 -80l-13 -82q19 -3 33 -3q10 0 19 3l12 5q3 0 5 -12q2 -6 0 -8q-14 -7 -32 -7q-20 0 -41 4q-28 -144 -100 -210q23 -19 74 -45q44 -24 76 -33q17 -6 35 -6q33 0 51 17q19 15 19 42q0 6 -2 18q0 5 2 5q3 0 4 -7l1 -2q1 -5 1 -14q0 -67 -79 -67q-33 0 -67 11 q-31 10 -76 29q-52 23 -73 36q-25 -18 -53 -18q-26 0 -54 15q-33 19 -39 51q-2 10 -2 14q0 16 11 27q12 13 33 13q27 0 61 -22q32 -24 58 -47q22 34 40 95q0 1 26 107q-18 2 -24 2q-30 0 -47 -10l-4 -3q-3 0 -6 12q-1 5 1 7q16 13 53 13q13 0 31 -3q69 292 167 292 q19 0 36 -12q18 -14 23 -39z"/>
<glyph glyph-name="currency" horiz-adv-x="585" unicode="" d="M297 367q-30 0 -52.5 -23.5t-22.5 -57.5q0 -31 21 -51.5t48 -20.5q30 0 54 22.5t24 55.5q0 32 -21.5 53.5t-50.5 21.5zM400 347q9 -17 9 -37v-6q-1 -39 -33 -72l78 -121l-113 94q-33 -18 -66 -18q-34 0 -60 17l-157 -97l131 126q-9 15 -9 36v5q1 42 33 75l-76 121 l113 -93q30 18 66 18q35 0 59 -18l158 96z"/>
<glyph glyph-name="yen" horiz-adv-x="481" unicode="" d="M485 365q0 -12 -5 -12t-5 4q0 1 0.5 2t0.5 2v3l1 1q0 14 -11 25q-10 11 -25 11q-49 0 -152 -182h70q1 0 1 -2q0 -4 -4 -8t-8 -4h-67q-4 -10 -35 -63h67q2 0 2 -2q0 -3 -4 -8q-5 -5 -8 -5h-66q-42 -63 -80 -101q-55 -55 -111 -55q-13 0 -13 4t10 4q40 0 92 57q30 35 68 91 h-152q-2 0 -2 2q0 3 5 8t7 5h152l3 5q0 26 -5 58h-94q-2 0 -2 1q0 3 5 8q4 5 7 5h82q-7 49 -29 91q-30 57 -68 57q-24 0 -41 -26q-15 -23 -15 -48q0 -16 9 -34l8 -17q0 -5 -4 -5q-2 0 -4 2q-17 25 -17 54q0 31 17 55q18 28 47 28q40 0 73 -39q27 -32 40 -74q12 -37 15 -78 l13 20q0 1 1 2.5t2.5 4t3.5 5.5q4 6 13.5 22t14.5 23q94 148 153 148q19 0 31 -13q13 -13 13 -32z"/>
<glyph glyph-name="brokenbar" horiz-adv-x="323" unicode="" d="M207 144l-60 -298h-35l64 301zM285 499l-62 -284l-32 3l60 281h34z"/>
<glyph glyph-name="section" horiz-adv-x="440" unicode="" d="M341 364q-6 13 -9 26q-4 -8 -4 -21q0 -12 3 -27zM362 443q0 19 -13 19q-20 0 -20 -25q0 -24 17 -61q16 39 16 67zM394 179q0 49 -14 93q-1 5 -36 85q-2 -5 -11 -26q8 -34 20 -82q10 -47 10 -84q0 -83 -74 -146q40 0 73 50q30 47 31 88q1 7 1 22zM271 179q0 28 -19 50 q-84 -72 -115 -138q15 -12 36 -12t38 10q-1 3 -1 12q0 23 15 39q1 1 2 1q2 0 2 -3l-6 -11q-6 -9 -6 -26v-9q23 14 38 38q16 23 16 49zM255 26q-35 21 -42 54q-18 -6 -36 -6q-26 0 -42 11q-20 -43 -20 -76q0 -17 7 -36q77 0 133 53zM321 201q0 31 -1 52q-2 43 -3 53 q-18 -28 -54 -66q22 -22 22 -59q0 -32 -18 -59t-48 -39q6 -34 40 -53q62 65 62 171zM247 234q-30 27 -74 27q-63 0 -114 -55q-50 -53 -50 -119q0 -43 30 -78q31 -33 75 -36q-5 12 -5 33q0 38 19 85q-16 15 -16 37q0 7 5 20q4 13 10 13q2 0 2 -2q-2 -4 -6 -11q-6 -10 -6 -21 q0 -17 14 -31q31 69 116 138zM437 176q0 -64 -33 -112q-37 -55 -98 -55q-12 0 -25 3q-65 -51 -137 -51q-5 0 -17 2q16 -24 42 -32q4 -2 8 -2t7 2l8 2q4 0 4 -4q0 -8 -15 -8q-9 3 -11 4q-38 13 -51 38q-57 9 -88 40q-35 32 -35 88q0 54 31 100q32 47 80 66q34 14 68 14 q53 0 84 -27q38 41 58 74v9q0 49 12 74q-6 24 -6 38q0 32 24 32q22 0 22 -30q0 -23 -20 -71q6 -11 47 -71q28 -43 37 -80q4 -17 4 -43z"/>
<glyph glyph-name="dieresis" horiz-adv-x="185" unicode="" d="M69 309q0 -22 -21 -22q-23 0 -23 22t22 22t22 -22zM155 309q0 -22 -21 -22q-23 0 -23 22t22 22t22 -22z"/>
<glyph glyph-name="copyright" horiz-adv-x="369" unicode="" d="M307 263q0 31 -60 31q-64 0 -116 -54q35 -20 80 -20q32 0 56 8q40 12 40 35zM315 260q0 -22 -38 -36q-29 -9 -57 -9q-55 0 -92 22q-45 -49 -45 -108q0 -32 15 -53q16 -25 47 -25q59 0 96 56q12 18 12 34q0 14 -9 23t-23 9q-29 0 -41 -28q-1 -4 -3 -4t-2 2l1 3q7 31 47 31 q17 0 28 -11t11 -27q0 -37 -41 -66q-36 -26 -76 -26q-41 0 -63 23q-23 23 -23 63q0 65 53 115q-21 18 -21 38q0 37 44 37q30 0 44 -14v-4q-23 12 -38 12q-42 0 -42 -34q0 -16 16 -32q53 48 128 48q25 0 46 -8q26 -9 26 -31zM363 202q0 68 -46 114q-45 45 -114 45 q-80 0 -138 -59q-60 -58 -60 -138q0 -68 46 -114t114 -46q78 0 139 59q59 59 59 139zM375 203q0 -84 -63 -147t-147 -63q-73 0 -122 49q-49 48 -49 120q0 84 63 147q63 62 148 62q71 0 121 -48q49 -49 49 -120z"/>
<glyph glyph-name="ordfeminine" horiz-adv-x="249" unicode="" d="M93 364q-27 0 -48 -39q-6 -14 -6 -18q0 -10 7 -10q5 0 15 8q17 14 23 30q3 17 9 29zM176 320q-36 -38 -63 -38h-4q-23 3 -26 39q-14 -20 -25 -28q-14 -12 -23 -12q-12 0 -12 16q0 15 9 28q21 33 49 46q13 5 21 5q19 0 19 -11q0 -2 -4 -4q-4 -1 -4 -2q-13 -22 -13 -42 q0 -26 20 -26q21 0 51 33q5 4 6 2l1 -1v-1q0 -2 -2 -4z"/>
<glyph glyph-name="guillemotleft" horiz-adv-x="301" unicode="" d="M222 198q-8 -12 -51 -45q-38 -26 -57 -40l-1 -90l-3 -7l-5 -2q-1 0 -5 2q-5 13 -14 51q-9 40 -11 52q136 86 142 86l4 -2zM318 198q-8 -14 -51 -45l-56 -40l-1 -90l-3 -7l-5 -2l-5 2q-7 12 -14 50l-12 53q138 86 142 86l4 -2z"/>
<glyph glyph-name="logicalnot" horiz-adv-x="539" unicode="" d="M446 185l-34 -161q-3 -15 -18 -15q-6 0 -9 5q-4 4 -4 10l28 129h-348q-14 0 -14 8q0 5 8 15q7 9 12 9h379z"/>
<glyph glyph-name="registered" horiz-adv-x="369" unicode="" d="M213 194q-4 9 -10 13l-5 -13h15zM293 255q0 27 -31 42q-28 -25 -57 -86q12 -5 18 -16q28 5 47 18q23 17 23 42zM323 142q-10 -26 -27 -44q-22 -25 -42 -25q-8 0 -16 6q-18 12 -21 51l-3 59h-8q-7 0 -10 1q-22 -53 -41 -75q-28 -35 -72 -46q-8 -2 -22 -2q-28 0 -28 18 q0 19 18 19q5 0 5 -3q0 -2 -1 -2h-3q-1 1 -3 1q-10 0 -10 -13q0 -16 24 -16q41 0 76 48q14 22 43 84q33 66 75 96q-26 8 -60 8q-93 0 -127 -58q-11 -19 -11 -38t12 -33q12 -13 32 -13q23 0 39 16q17 14 17 38q0 35 -32 35q-10 0 -20 -8q-9 -8 -9 -19q0 -9 11 -9l1 1l1 1 q2 0 2 -1q0 -4 -5 -4q-13 0 -13 12q0 14 11 22q11 9 23 9q17 0 28 -11q10 -10 10 -27q0 -27 -19 -43t-46 -16q-23 0 -40 14q-16 15 -16 38q0 18 7 32q18 35 64 53q34 14 84 14q35 0 62 -9q25 16 48 16l3 -1l-1 -1q-28 -3 -45 -16q42 -15 42 -46q0 -29 -29 -47 q-24 -15 -56 -18q4 -10 7 -35q2 -26 4 -40q5 -29 15 -32q8 -2 10 -2q16 0 36 23q17 19 22 39h3zM363 202q0 68 -46 114q-45 45 -114 45q-80 0 -138 -59q-60 -58 -60 -138q0 -68 46 -114t114 -46q78 0 139 59q59 59 59 139zM375 203q0 -84 -63 -147t-147 -63q-73 0 -122 49 q-49 48 -49 120q0 84 63 147q63 62 148 62q71 0 121 -48q49 -49 49 -120z"/>
<glyph glyph-name="macron" horiz-adv-x="323" unicode="" d="M288 301l-14 -32h-155l14 32h155z"/>
<glyph glyph-name="degree" horiz-adv-x="333" unicode=""/>
<glyph glyph-name="plusminus" horiz-adv-x="305" unicode="" d="M275 23q-108 0 -176 -8h-1q-3 0 -6 6q-4 5 -4 13q0 13 11 13q4 0 13 -0.5t25 -1t30 -0.5l106 -4q14 0 14 -10q0 -8 -12 -8zM311 191q12 0 12 -9t-14 -9q-28 0 -88 -4q-6 -27 -16 -91q0 -3 -8 -8q-7 -3 -14 -3q-13 0 -10 11l24 90q-37 -1 -95 -6q-7 0 -7 13q0 19 15 19 q18 0 39 -1q13 0 31 -0.5t23 -0.5q4 19 23 97q3 14 14 14q6 0 5 -12q-8 -35 -20 -99q48 0 86 -1z"/>
<glyph glyph-name="twosuperior" horiz-adv-x="238" unicode="" d="M158 189q-1 -1 -3 -1t-2 4q0 3 4 4q10 5 10 11q0 8 -21 14q-16 6 -32 6h-7q-30 0 -93 -23q-7 -3 -13 -3q-8 0 -8 6q0 8 10 16q9 9 21 9q36 13 87 46q59 39 87 75q23 31 23 50q0 23 -26 23q-15 0 -37 -9q-59 -25 -73 -68q-2 -5 -5 -5q-1 0 -1 6q6 31 43 59q36 27 69 27 q19 0 31 -12q11 -12 11 -31q0 -26 -21 -52q-17 -18 -47 -38q-5 -3 -21.5 -13t-25.5 -16q-29 -18 -51 -36q104 0 104 -29q0 -16 -13 -20z"/>
<glyph glyph-name="threesuperior" horiz-adv-x="238" unicode="" d="M61 364q1 30 44 48q34 15 70 15q37 0 59 -15q23 -15 23 -36q0 -44 -78 -68l-41 -8q30 0 45 -11q16 -12 16 -30q0 -24 -30 -47q-42 -30 -96 -30q-39 0 -48 21q-3 8 -3 16q0 23 27 28q5 0 5 -2q0 -3 -6 -3q-5 0 -11 -7t-6 -17q0 -8 4 -13q9 -12 34 -12q50 0 90 32 q22 18 22 34q0 18 -29 28q-23 8 -56 8q-9 -1 -9 4q0 6 33 9q45 5 51 7q68 17 68 58q0 18 -19 34q-20 14 -50 14t-61 -14q-36 -18 -39 -44q0 -6 -5 -6q-4 0 -4 7z"/>
<glyph glyph-name="acute" horiz-adv-x="178" unicode="" d="M165 335q-5 -8 -63 -35q-54 -25 -61 -25h-1q-3 1 -3 5q0 2 1 4q14 10 44.5 33t37.5 28q14 10 27 10q4 0 12 -2q8 -5 8 -11q0 -1 -2 -7z"/>
<glyph glyph-name="mu" horiz-adv-x="216" unicode="" d="M275 107q-51 -112 -96 -112q-35 0 -35 38q0 18 7 36q-46 -73 -85 -73q-22 0 -31 19l-86 -188q-1 -2 -9 -2q-16 0 -23 4q-3 1 -3 3l129 253l32 66q20 39 37 64h1q4 -4 11 -4q13 0 32 14l1 -1q-10 -12 -32 -51q-7 -13 -18 -31t-13 -22q-39 -66 -39 -99q0 -18 16 -18 q38 0 104 117q18 33 51 99h1q10 -5 17 -5q15 0 21 13h2l-52 -101q-46 -86 -46 -111q0 -14 11 -14q23 0 55 44q20 29 35 64h4z"/>
<glyph glyph-name="paragraph" d="M403 436l-12 -33h-14l-147 -403h-45l148 403h-33l-147 -403h-45l89 242q-74 0 -74 56q0 15 8 39q24 64 89 90q24 9 68 9h115z" unicode=""/>
<glyph glyph-name="periodcentered" horiz-adv-x="549" unicode=""/>
<glyph glyph-name="cedilla" horiz-adv-x="253" unicode="" d="M217 -77q0 -28 -34 -50q-17 -12 -51 -12q-18 0 -48 7q-36 9 -36 24q0 5 4 5q2 0 10 -8q16 -16 57 -16q49 0 64 24q10 13 10 27q0 17 -17 29q-14 9 -33 9q-13 0 -31 -8l-17 -8q-13 0 -13 10q0 3 3 6l26 21q24 18 25 18q4 0 5 -6q-29 -21 -29 -23q18 2 26 2q27 0 51 -11 q28 -15 28 -40z"/>
<glyph glyph-name="onesuperior" horiz-adv-x="244" unicode="" d="M132 351q-40 -74 -63 -130q-1 -4 -8 -4q-6 0 -6 6q0 3 1 4l43 90q23 51 38 91q-17 -8 -36 -27q-3 -4 -6 -4q-2 0 -2 2q0 7 78 80h4q7 0 12 -5q3 -4 3 -7q0 -7 -10 -23.5t-25.5 -38.5t-22.5 -34z"/>
<glyph glyph-name="ordmasculine" horiz-adv-x="182" unicode="" d="M87 387l-2 -1q28 -9 28 -36q0 -23 -11 -41l-1 -1q31 0 51 20q2 2 3 2q2 0 2 -3q0 -2 -3 -5q-25 -22 -57 -22q-21 -25 -45 -25q-22 0 -22 26q0 20 10 44q0 2 -0.5 6t-0.5 6q0 27 27 30q8 9 13 9q10 0 10 -6q0 -1 -2 -3zM81 381q-15 -17 -26 -41q6 -28 36 -32q12 22 12 43 q0 28 -22 30zM49 321q-2 -14 -2 -18q0 -19 12 -19q16 0 28 17q-24 3 -38 20z"/>
<glyph glyph-name="guillemotright" horiz-adv-x="301" unicode="" d="M262 100l-137 -85l-5 -1l-5 1v6q10 14 51 44q19 14 57 40v30q0 4 -0.5 12t-0.5 11q0 4 0.5 10t0.5 8q0 22 3 26l5 3l6 -3q2 -2 25 -102zM165 100l-136 -85l-5 -1q-3 0 -5 1l-1 3q0 9 53 48l55 39l1 91l3 6l5 3l6 -3q7 -15 14 -51z"/>
<glyph glyph-name="onequarter" horiz-adv-x="415" unicode="" d="M365 214q-26 -23 -69 -55q-41 -29 -55 -41h34q35 0 36 -1q9 0 54 97zM227 445q-23 -32 -58 -94q-36 -63 -63 -130q-1 -4 -8 -4q-6 0 -6 6q0 3 1 4q7 13 14 28t15 33.5t13 28.5q25 53 39 91q-15 -7 -35 -27q-4 -4 -7 -4q-1 0 -1 2q0 7 77 80h4q7 0 12 -5q6 -6 3 -9z M415 444l-390 -507h-21l389 507h22zM405 229q-8 -6 -39 -58q-33 -51 -33 -56q2 -1 5 -2q14 -2 21 -4q16 -3 16 -8q0 -6 -6 -6v1q0 -1 -2 -1h-3l-11 2q-10 2 -18 2h-12q-1 -3 -13.5 -27.5t-22.5 -46.5l-16 -32q-3 -9 -8 -14q-7 0 -7 9t21 53l27 58q-2 2 -6 2q-54 0 -105 -17 q-8 0 -8 9q0 5 15 16l20 12q49 33 91 64q50 37 81 76q13 0 13 -24v-8z"/>
<glyph glyph-name="onehalf" horiz-adv-x="415" unicode="" d="M227 445q-23 -32 -58 -94q-36 -63 -63 -130q-1 -4 -8 -4q-6 0 -6 6q0 3 1 4q7 13 14 28t15 33.5t13 28.5q25 53 39 91q-15 -7 -35 -27q-4 -4 -7 -4q-1 0 -1 2q0 7 77 80h4q7 0 12 -5q6 -6 3 -9zM370 -17q-6 -3 -6 3q0 3 4 4q11 6 11 11q0 7 -21 15q-21 6 -39 6 q-35 -2 -93 -23q-10 -4 -13 -4q-8 0 -8 6q0 9 9 16q10 9 21 9q37 12 88 46q57 39 87 75q23 29 23 50q0 23 -26 23q-15 0 -38 -9q-58 -25 -72 -68q-1 -4 -5 -4q-2 0 -1 5q6 30 42 59q36 27 70 27q19 0 31 -12q11 -11 11 -31q0 -27 -22 -52q-15 -18 -46 -38q-16 -9 -48 -29 q-28 -18 -50 -36q104 0 104 -30q0 -14 -13 -19zM415 444l-390 -507h-21l389 507h22z"/>
<glyph glyph-name="threequarters" horiz-adv-x="415" unicode="" d="M365 214q-26 -23 -69 -55q-41 -29 -55 -41h34q35 0 36 -1q9 0 54 97zM61 364q1 30 44 48q34 15 70 15q37 0 59 -15q23 -15 23 -36q0 -44 -78 -68l-41 -8q30 0 45 -11q16 -12 16 -30q0 -24 -30 -47q-42 -30 -96 -30q-39 0 -48 21q-3 8 -3 16q0 23 27 28q5 0 5 -2 q0 -3 -6 -3q-5 0 -11 -7t-6 -17q0 -8 4 -13q9 -12 34 -12q50 0 90 32q22 18 22 34q0 18 -29 28q-23 8 -56 8q-9 -1 -9 4q0 6 33 9q45 5 51 7q68 17 68 58q0 18 -19 34q-20 14 -50 14t-61 -14q-36 -18 -39 -44q0 -6 -5 -6q-4 0 -4 7zM415 444l-390 -507h-21l389 507h22z M405 229q-8 -6 -39 -58q-33 -51 -33 -56q2 -1 5 -2q14 -2 21 -4q16 -3 16 -8q0 -6 -6 -6v1q0 -1 -2 -1h-3l-11 2q-10 2 -18 2h-12q-1 -3 -13.5 -27.5t-22.5 -46.5l-16 -32q-3 -9 -8 -14q-7 0 -7 9t21 53l27 58q-2 2 -6 2q-54 0 -105 -17q-8 0 -8 9q0 5 15 16l20 12 q49 33 91 64q50 37 81 76q13 0 13 -24v-8z"/>
<glyph glyph-name="questiondown" horiz-adv-x="400" unicode="" d="M332 -216q-27 -38 -96 -82q-92 -58 -164 -58q-26 0 -52 17q-29 21 -29 52q0 47 44 94q27 32 96 82q79 61 96 76q41 38 41 75v3q0 8 -8 8q3 7 3 13q3 13 16 13q11 0 18 -12q4 -8 4 -18q0 -39 -43 -89q-29 -34 -93 -91q-59 -54 -92 -88q-41 -44 -41 -75t32 -31q76 0 163 55 q65 42 89 76q5 7 13 7q10 0 10 -10q0 -7 -7 -17zM340 176q0 -13 -9 -22q-11 -9 -23 -9t-23 9q-9 9 -9 22t9 22q11 9 23 9t23 -9q9 -9 9 -22z"/>
<glyph glyph-name="Agrave" horiz-adv-x="769" unicode="" d="M599 648q-6 6 -6 17q0 13 9 13q5 0 15 -8q6 -5 22 -16.5t31.5 -23.5t30.5 -24q4 -3 4 -7q0 -7 -8 -7q-4 0 -6 1q-52 29 -92 55zM475 188q-3 0 -9.5 0.5t-10.5 0.5q-3 0 -11 -0.5t-12 -0.5q-39 -57 -85 -98q13 -5 23 -8q21 20 56 56.5t49 49.5zM418 187q-74 -7 -152 -20 q30 -49 71 -71q43 39 81 91zM653 392q-12 -21 -28.5 -46t-29 -42t-36 -49.5t-34.5 -46.5q2 0 13.5 -0.5t20.5 -0.5q25 0 75 2q3 78 19 183zM253 165q-96 -19 -144 -34q-82 -28 -89 -79q0 -2 -0.5 -5t-0.5 -4q0 -31 29 -50t65 -23q18 -2 28 -2q104 0 220 105l-23 9 q-102 -89 -203 -89q-29 0 -54 7q-5 1 -2 6q1 3 4 2q24 -6 49 -6q97 0 196 86q-46 27 -75 77zM429 202q24 35 41 70q38 79 38 140q0 62 -33.5 98t-81.5 36q-64 0 -113 -64t-49 -183q0 -60 24 -111q91 13 174 14zM542 145q-59 -79 -136 -79q-7 0 -23 2q-107 -86 -186 -111 q-44 -14 -81 -14q-14 0 -21 1q-39 5 -64 27.5t-25 59.5q0 9 1 14q6 39 36 68.5t73 43.5q50 17 125 29q-25 57 -25 113q0 124 56 191.5t127 67.5q52 0 87 -37t35 -102q0 -69 -41 -152q-14 -28 -38 -64h45q20 20 121 161q17 24 47 62q10 65 10 80q0 38 -19 38q-9 0 -21 -8 q-15 -10 -34 -32t-22 -29q-5 -11 -11 -7q-4 3 -1 10q6 12 25 35t41 37q23 16 44 16q36 0 36 -50q0 -25 -12.5 -133.5t-15.5 -170.5q50 3 63 12q11 7 12 2q0 -7 -10 -13q-25 -15 -65 -21q0 -8 -0.5 -23t-0.5 -23q0 -56 8 -91q16 -65 51 -65q20 0 40.5 20.5t35.5 54.5 q2 5 4.5 6.5t4.5 -0.5t2 -5t-1 -5q-14 -41 -44.5 -67t-62.5 -26q-28 0 -48.5 22t-27.5 67q-5 38 -5 88q0 29 1 42q-38 -2 -58 -2q-13 0 -36 0.5t-31 0.5q-53 -58 -114 -109q3 0 7.5 -0.5t6.5 -0.5q73 0 129 74q4 5 6 -1q1 -2 0 -4z"/>
<glyph glyph-name="Aacute" horiz-adv-x="769" unicode="" d="M757 658q-5 -8 -63 -35q-54 -25 -61 -25h-1q-5 3 -2 9q14 10 44.5 33t37.5 28q14 10 27 10q4 0 12 -2q12 -6 6 -18zM475 188q-3 0 -9.5 0.5t-10.5 0.5q-3 0 -11 -0.5t-12 -0.5q-39 -57 -85 -98q13 -5 23 -8q21 20 56 56.5t49 49.5zM418 187q-74 -7 -152 -20 q30 -49 71 -71q43 39 81 91zM653 392q-12 -21 -28.5 -46t-29 -42t-36 -49.5t-34.5 -46.5q2 0 13.5 -0.5t20.5 -0.5q25 0 75 2q3 78 19 183zM253 165q-96 -19 -144 -34q-82 -28 -89 -79q0 -2 -0.5 -5t-0.5 -4q0 -31 29 -50t65 -23q18 -2 28 -2q104 0 220 105l-23 9 q-102 -89 -203 -89q-29 0 -54 7q-5 1 -2 6q1 3 4 2q24 -6 49 -6q97 0 196 86q-46 27 -75 77zM429 202q24 35 41 70q38 79 38 140q0 62 -33.5 98t-81.5 36q-64 0 -113 -64t-49 -183q0 -60 24 -111q91 13 174 14zM542 145q-59 -79 -136 -79q-7 0 -23 2q-107 -86 -186 -111 q-44 -14 -81 -14q-14 0 -21 1q-39 5 -64 27.5t-25 59.5q0 9 1 14q6 39 36 68.5t73 43.5q50 17 125 29q-25 57 -25 113q0 124 56 191.5t127 67.5q52 0 87 -37t35 -102q0 -69 -41 -152q-14 -28 -38 -64h45q20 20 121 161q17 24 47 62q10 65 10 80q0 38 -19 38q-9 0 -21 -8 q-15 -10 -34 -32t-22 -29q-5 -11 -11 -7q-4 3 -1 10q6 12 25 35t41 37q23 16 44 16q36 0 36 -50q0 -25 -12.5 -133.5t-15.5 -170.5q50 3 63 12q11 7 12 2q0 -7 -10 -13q-25 -15 -65 -21q0 -8 -0.5 -23t-0.5 -23q0 -56 8 -91q16 -65 51 -65q20 0 40.5 20.5t35.5 54.5 q2 5 4.5 6.5t4.5 -0.5t2 -5t-1 -5q-14 -41 -44.5 -67t-62.5 -26q-28 0 -48.5 22t-27.5 67q-5 38 -5 88q0 29 1 42q-38 -2 -58 -2q-13 0 -36 0.5t-31 0.5q-53 -58 -114 -109q3 0 7.5 -0.5t6.5 -0.5q73 0 129 74q4 5 6 -1q1 -2 0 -4z"/>
<glyph glyph-name="Acircumflex" horiz-adv-x="769" unicode="" d="M475 188q-3 0 -9.5 0.5t-10.5 0.5q-3 0 -11 -0.5t-12 -0.5q-39 -57 -85 -98q13 -5 23 -8q21 20 56 56.5t49 49.5zM747 602q0 -4 -2 -5q-5 0 -8 1q-6 2 -7 4l-37 58l-108 -58q-4 -4 -14 -4q-8 -2 -8 2l1 1v1l122 86q10 2 23 2q8 0 8 -2zM418 187q-74 -7 -152 -20 q30 -49 71 -71q43 39 81 91zM653 392q-12 -21 -28.5 -46t-29 -42t-36 -49.5t-34.5 -46.5q2 0 13.5 -0.5t20.5 -0.5q25 0 75 2q3 78 19 183zM253 165q-96 -19 -144 -34q-82 -28 -89 -79q0 -2 -0.5 -5t-0.5 -4q0 -31 29 -50t65 -23q18 -2 28 -2q104 0 220 105l-23 9 q-102 -89 -203 -89q-29 0 -54 7q-5 1 -2 6q1 3 4 2q24 -6 49 -6q97 0 196 86q-46 27 -75 77zM429 202q24 35 41 70q38 79 38 140q0 62 -33.5 98t-81.5 36q-64 0 -113 -64t-49 -183q0 -60 24 -111q91 13 174 14zM542 145q-59 -79 -136 -79q-7 0 -23 2q-107 -86 -186 -111 q-44 -14 -81 -14q-14 0 -21 1q-39 5 -64 27.5t-25 59.5q0 9 1 14q6 39 36 68.5t73 43.5q50 17 125 29q-25 57 -25 113q0 124 56 191.5t127 67.5q52 0 87 -37t35 -102q0 -69 -41 -152q-14 -28 -38 -64h45q20 20 121 161q17 24 47 62q10 65 10 80q0 38 -19 38q-9 0 -21 -8 q-15 -10 -34 -32t-22 -29q-5 -11 -11 -7q-4 3 -1 10q6 12 25 35t41 37q23 16 44 16q36 0 36 -50q0 -25 -12.5 -133.5t-15.5 -170.5q50 3 63 12q11 7 12 2q0 -7 -10 -13q-25 -15 -65 -21q0 -8 -0.5 -23t-0.5 -23q0 -56 8 -91q16 -65 51 -65q20 0 40.5 20.5t35.5 54.5 q2 5 4.5 6.5t4.5 -0.5t2 -5t-1 -5q-14 -41 -44.5 -67t-62.5 -26q-28 0 -48.5 22t-27.5 67q-5 38 -5 88q0 29 1 42q-38 -2 -58 -2q-13 0 -36 0.5t-31 0.5q-53 -58 -114 -109q3 0 7.5 -0.5t6.5 -0.5q73 0 129 74q4 5 6 -1q1 -2 0 -4z"/>
<glyph glyph-name="Atilde" horiz-adv-x="769" unicode="" d="M475 188q-3 0 -9.5 0.5t-10.5 0.5q-3 0 -11 -0.5t-12 -0.5q-39 -57 -85 -98q13 -5 23 -8q21 20 56 56.5t49 49.5zM767 649q-21 -45 -52 -45h-4q-15 2 -34 11q-24 11 -34 11h-3q-16 0 -26 -19q-2 -2 -8 -1q-5 1 -5 2q24 43 51 43h4q16 -2 35 -11q21 -8 34 -10h2 q19 0 28 20q1 2 7 2q6 -2 5 -3zM418 187q-74 -7 -152 -20q30 -49 71 -71q43 39 81 91zM653 392q-12 -21 -28.5 -46t-29 -42t-36 -49.5t-34.5 -46.5q2 0 13.5 -0.5t20.5 -0.5q25 0 75 2q3 78 19 183zM253 165q-96 -19 -144 -34q-82 -28 -89 -79q0 -2 -0.5 -5t-0.5 -4 q0 -31 29 -50t65 -23q18 -2 28 -2q104 0 220 105l-23 9q-102 -89 -203 -89q-29 0 -54 7q-5 1 -2 6q1 3 4 2q24 -6 49 -6q97 0 196 86q-46 27 -75 77zM429 202q24 35 41 70q38 79 38 140q0 62 -33.5 98t-81.5 36q-64 0 -113 -64t-49 -183q0 -60 24 -111q91 13 174 14z M542 145q-59 -79 -136 -79q-7 0 -23 2q-107 -86 -186 -111q-44 -14 -81 -14q-14 0 -21 1q-39 5 -64 27.5t-25 59.5q0 9 1 14q6 39 36 68.5t73 43.5q50 17 125 29q-25 57 -25 113q0 124 56 191.5t127 67.5q52 0 87 -37t35 -102q0 -69 -41 -152q-14 -28 -38 -64h45 q20 20 121 161q17 24 47 62q10 65 10 80q0 38 -19 38q-9 0 -21 -8q-15 -10 -34 -32t-22 -29q-5 -11 -11 -7q-4 3 -1 10q6 12 25 35t41 37q23 16 44 16q36 0 36 -50q0 -25 -12.5 -133.5t-15.5 -170.5q50 3 63 12q11 7 12 2q0 -7 -10 -13q-25 -15 -65 -21q0 -8 -0.5 -23 t-0.5 -23q0 -56 8 -91q16 -65 51 -65q20 0 40.5 20.5t35.5 54.5q2 5 4.5 6.5t4.5 -0.5t2 -5t-1 -5q-14 -41 -44.5 -67t-62.5 -26q-28 0 -48.5 22t-27.5 67q-5 38 -5 88q0 29 1 42q-38 -2 -58 -2q-13 0 -36 0.5t-31 0.5q-53 -58 -114 -109q3 0 7.5 -0.5t6.5 -0.5q73 0 129 74 q4 5 6 -1q1 -2 0 -4z"/>
<glyph glyph-name="Adieresis" horiz-adv-x="769" unicode="" d="M737 619q0 -22 -21 -22q-23 0 -23 22t22 22t22 -22zM651 619q0 -22 -21 -22q-23 0 -23 22t22 22t22 -22zM475 188q-3 0 -9.5 0.5t-10.5 0.5q-3 0 -11 -0.5t-12 -0.5q-39 -57 -85 -98q13 -5 23 -8q21 20 56 56.5t49 49.5zM418 187q-74 -7 -152 -20q30 -49 71 -71 q43 39 81 91zM653 392q-12 -21 -28.5 -46t-29 -42t-36 -49.5t-34.5 -46.5q2 0 13.5 -0.5t20.5 -0.5q25 0 75 2q3 78 19 183zM253 165q-96 -19 -144 -34q-82 -28 -89 -79q0 -2 -0.5 -5t-0.5 -4q0 -31 29 -50t65 -23q18 -2 28 -2q104 0 220 105l-23 9q-102 -89 -203 -89 q-29 0 -54 7q-5 1 -2 6q1 3 4 2q24 -6 49 -6q97 0 196 86q-46 27 -75 77zM429 202q24 35 41 70q38 79 38 140q0 62 -33.5 98t-81.5 36q-64 0 -113 -64t-49 -183q0 -60 24 -111q91 13 174 14zM542 145q-59 -79 -136 -79q-7 0 -23 2q-107 -86 -186 -111q-44 -14 -81 -14 q-14 0 -21 1q-39 5 -64 27.5t-25 59.5q0 9 1 14q6 39 36 68.5t73 43.5q50 17 125 29q-25 57 -25 113q0 124 56 191.5t127 67.5q52 0 87 -37t35 -102q0 -69 -41 -152q-14 -28 -38 -64h45q20 20 121 161q17 24 47 62q10 65 10 80q0 38 -19 38q-9 0 -21 -8q-15 -10 -34 -32 t-22 -29q-5 -11 -11 -7q-4 3 -1 10q6 12 25 35t41 37q23 16 44 16q36 0 36 -50q0 -25 -12.5 -133.5t-15.5 -170.5q50 3 63 12q11 7 12 2q0 -7 -10 -13q-25 -15 -65 -21q0 -8 -0.5 -23t-0.5 -23q0 -56 8 -91q16 -65 51 -65q20 0 40.5 20.5t35.5 54.5q2 5 4.5 6.5t4.5 -0.5 t2 -5t-1 -5q-14 -41 -44.5 -67t-62.5 -26q-28 0 -48.5 22t-27.5 67q-5 38 -5 88q0 29 1 42q-38 -2 -58 -2q-13 0 -36 0.5t-31 0.5q-53 -58 -114 -109q3 0 7.5 -0.5t6.5 -0.5q73 0 129 74q4 5 6 -1q1 -2 0 -4z"/>
<glyph glyph-name="Aring" horiz-adv-x="769" unicode="" d="M711 601q0 13 -9 22t-23 9q-12 0 -21 -9t-9 -22t9 -22t21 -9q14 0 23 9t9 22zM475 188q-3 0 -9.5 0.5t-10.5 0.5q-3 0 -11 -0.5t-12 -0.5q-39 -57 -85 -98q13 -5 23 -8q21 20 56 56.5t49 49.5zM418 187q-74 -7 -152 -20q30 -49 71 -71q43 39 81 91zM653 392 q-12 -21 -28.5 -46t-29 -42t-36 -49.5t-34.5 -46.5q2 0 13.5 -0.5t20.5 -0.5q25 0 75 2q3 78 19 183zM253 165q-96 -19 -144 -34q-82 -28 -89 -79q0 -2 -0.5 -5t-0.5 -4q0 -31 29 -50t65 -23q18 -2 28 -2q104 0 220 105l-23 9q-102 -89 -203 -89q-29 0 -54 7q-5 1 -2 6 q1 3 4 2q24 -6 49 -6q97 0 196 86q-46 27 -75 77zM429 202q24 35 41 70q38 79 38 140q0 62 -33.5 98t-81.5 36q-64 0 -113 -64t-49 -183q0 -60 24 -111q91 13 174 14zM723 601q0 -18 -13 -30q-9 -9 -22 -12q15 -14 15 -43q0 -25 -12.5 -133.5t-15.5 -170.5q50 3 63 12 q11 7 12 2q0 -7 -10 -13q-25 -15 -65 -21q0 -8 -0.5 -23t-0.5 -23q0 -56 8 -91q16 -65 51 -65q20 0 40.5 20.5t35.5 54.5q2 5 4.5 6.5t4.5 -0.5t2 -5t-1 -5q-14 -41 -44.5 -67t-62.5 -26q-28 0 -48.5 22t-27.5 67q-5 38 -5 88q0 29 1 42q-38 -2 -58 -2q-13 0 -36 0.5 t-31 0.5q-53 -58 -114 -109q3 0 7.5 -0.5t6.5 -0.5q73 0 129 74q4 5 6 -1q1 -2 0 -4q-59 -79 -136 -79q-7 0 -23 2q-107 -86 -186 -111q-44 -14 -81 -14q-14 0 -21 1q-39 5 -64 27.5t-25 59.5q0 9 1 14q6 39 36 68.5t73 43.5q50 17 125 29q-25 57 -25 113q0 124 56 191.5 t127 67.5q52 0 87 -37t35 -102q0 -69 -41 -152q-14 -28 -38 -64h45q20 20 121 161q17 24 47 62q10 65 10 80q0 38 -19 38q-9 0 -21 -8q-15 -10 -34 -32t-22 -29q-5 -11 -11 -7q-4 3 -1 10q6 12 25 35t41 37q18 12 34 15q-1 1 -7 6q-12 12 -12 30t12 30q15 13 30 13 q17 0 30 -13q13 -12 13 -30z"/>
<glyph glyph-name="AE" horiz-adv-x="969" unicode="" d="M194 151l8 -16l30 27q-35 -10 -38 -11zM294 175l-44 -9l-41 -43h1q8 -12 13 -17zM566 445q-45 -71 -102 -132q-30 -32 -119 -116q21 2 75 4q51 0 75 2q13 56 36 126q14 48 35 116zM194 128q-7 10 -11 20q-30 -10 -56 -23q-111 -55 -111 -115q0 -29 32 -53q48 31 123 100 l45 42q-8 8 -14 17q-71 -70 -104 -70q-3 0 -3 3q-1 3 1 4q54 38 98 75zM174 259q0 -44 11 -83q36 7 73 11q108 108 160 219q22 45 22 85q0 36 -19 58q-19 21 -50 21q-46 0 -90 -43q-51 -47 -85 -140q-22 -59 -22 -128zM491 186q-75 -2 -166 -7l-90 -85q39 -32 102 -32 q43 0 64 21q2 3 5 0t0 -6q-25 -23 -69 -23q-66 0 -109 34l-36 -33q-78 -72 -132 -104q31 -16 75 -20q8 0 8 -3q0 -6 -12 -4q-46 4 -82 21q-102 -60 -165 -60h-6q-28 0 -28 18q0 7 6 18q3 10 11 13q-6 -14 -6 -23q0 -15 22 -15h3q62 0 151 55q-53 24 -53 69q0 29 26 63 q49 60 139 85l23 6q-13 39 -13 92q0 66 21 123q36 96 91 144q47 44 99 44q36 0 60 -24q23 -23 23 -66q0 -39 -21 -84q-30 -65 -153 -204l-9 -10q12 1 43 5q72 70 153 171q112 140 112 190q0 24 -26 26q-6 0 -6 3q0 6 11 6q50 -2 50 -42q0 -25 -22 -69q4 -6 1 -14 q-22 -88 -56 -251q46 31 115 54l95 20q-51 0 -90 24q-35 24 -35 55q0 47 61 90q48 34 115 52q57 16 103 16q52 0 85 -22q27 -18 27 -46q0 -21 -17 -38t-46 -22q-12 0 -12 4q0 7 12 6q12 -2 22 13q10 13 10 31q0 23 -18 40q-21 18 -65 18q-42 0 -101 -18q-55 -17 -92 -51 q-42 -37 -42 -77q0 -34 60 -55q47 -16 104 -16h19q22 1 22 -13q0 -13 -22 -13h-4h-18q-75 0 -156 -21q-85 -23 -131 -66q-42 -40 -42 -86q0 -48 44 -80q46 -34 126 -34q28 0 53 4q92 12 161 54q75 46 79 99q2 9 5 9t3 -10q-3 -64 -83 -114q-73 -45 -174 -57q-29 -4 -62 -4 q-76 0 -128 28q-67 36 -67 99q0 49 45 95v4z"/>
<glyph glyph-name="Ccedilla" horiz-adv-x="586" unicode="" d="M91 30q16 -63 65 -94l15 13l24 22q-64 17 -104 59zM300 -36q-24 -2 -35 -2q-27 0 -55 5q-38 -32 -38 -35q18 3 34 3q34 0 60 -13q43 13 75 49q-26 -6 -41 -7zM77 160q11 80 51 152q50 91 123 136.5t141 45.5q48 0 77.5 -22t28.5 -59q27 -1 51 -9q-10 65 -94 96 q-34 13 -80 13q-76 0 -149.5 -40.5t-120.5 -131.5q-33 -63 -33 -131q0 -23 5 -50zM551 390q-28 7 -55 8q-5 -27 -23 -52q-29 -44 -76.5 -67.5t-100.5 -23.5h-10q-15 0 -15 5q0 4 14 4h3h3q54 0 102 23t72 61q16 27 21 50q-60 0 -122.5 -19.5t-96.5 -49.5q-45 -39 -45 -79 q0 -30 25.5 -49t66.5 -19q31 0 67 12q66 23 118.5 81t51.5 115zM311 -143q0 -42 -46 -77q-23 -18 -67 -18q-25 0 -63 10q-48 14 -48 37q0 7 6 7q4 0 13 -11q21 -25 75 -25q64 0 85 36q12 22 12 42q0 28 -22 44l-7 5q-6 -1 -19 -1q-22 0 -42 6q-3 -1 -17 -8q-21 -12 -22 -12 q-17 0 -17 15q0 4 4 10q2 3 13 13q-58 38 -73 117q-53 65 -53 153q0 94 61 184q45 67 126.5 108t166.5 41q39 0 78 -11q48 -13 81.5 -46t32.5 -80q4 -1 12 -5q8 -5 8 -12q0 -6 -10 0l-11 5q-7 -59 -61 -117.5t-119 -83.5q-44 -16 -83 -16q-49 0 -80.5 23t-31.5 59 q0 50 60 100q37 30 95.5 48t118.5 18q3 0 10 -0.5t11 -0.5q0 33 -25 52t-66 19q-65 0 -137.5 -47t-122.5 -137q-43 -80 -52 -171q23 -63 77.5 -101t128.5 -38q3 0 9 0.5t9 0.5q18 1 52 7q18 33 18 69q0 51 -33 69q-2 1 -1.5 3.5t2 3.5t3.5 0q41 -21 41 -77q0 -30 -16 -64 q102 31 152 111q24 38 31 38q2 0 2 -4q0 -14 -19 -42q-25 -37 -73.5 -74t-108.5 -56q-34 -45 -81 -61q33 -23 33 -58z"/>
<glyph glyph-name="Egrave" horiz-adv-x="568" unicode="" d="M535 417q6 13 6 28q0 17 -8 33q-27 -40 -27 -68q0 -9 7 -9q12 0 22 16zM401 623q-6 6 -6 17q0 13 9 13q5 0 15 -8q6 -5 22 -16.5t31.5 -23.5t30.5 -24q4 -3 4 -7q0 -7 -8 -7q-4 0 -6 1q-52 29 -92 55zM115 40q-2 30 -2 48q0 96 42 187l-46 -7l-3 -7q-26 -53 -26 -111 q0 -66 35 -110zM363 127q42 -45 55 -95q45 32 70 70q15 22 15 40q0 26 -31 26q-19 0 -50 -12q-24 -9 -59 -29zM142 -25q19 -66 59 -101t85 -35q51 0 86.5 41.5t35.5 113.5q0 7 -1 10q-84 -46 -173 -46q-46 0 -82 13q-8 3 -10 4zM423 -6q0 -77 -39.5 -121t-95.5 -44 q-52 0 -97 39.5t-65 113.5q-90 47 -90 159q0 54 24 117q-6 -1 -18 -5h-2q-5 0 -5 6q0 7 6 16t14 11l20 4l6 12q50 97 149.5 164t205.5 67q27 0 50 -4q32 -5 52 -25q27 33 43 45q5 3 7 3q6 0 6 -5q0 -2 -3 -5q-23 -18 -45 -46q16 -19 16 -46q0 -12 -4 -23q-6 -16 -21 -26 t-29 -10q-22 0 -22 24q0 6 1 9q2 14 15.5 34t23.5 30q-15 17 -44 21q-21 3 -41 3q-100 0 -181 -59t-135 -154q16 2 44 4q79 139 234 184q4 1 5.5 -3t-2.5 -5q-134 -36 -216 -175q60 3 121 3q25 0 70 -0.5t63 -0.5q12 0 12 -6q0 -7 -18 -7q-139 0 -262 -15q-48 -96 -48 -194 q0 -37 4 -62q12 -12 32 -22q40 -21 90 -21q77 0 151 45q-12 51 -52 98q-22 -13 -38 -26q-43 -34 -67 -63q-7 -8 -7 -3q0 8 4 12q36 40 75 73q21 16 23 17q-58 58 -123 59q-3 0 -4 2t0.5 4t3.5 2q69 -2 132 -61q24 15 63 32q27 10 50 10q27 0 42.5 -13t15.5 -34 q0 -34 -35 -70q-26 -26 -66 -51q0 -3 0.5 -9t0.5 -9z"/>
<glyph glyph-name="Eacute" horiz-adv-x="568" unicode="" d="M535 417q6 13 6 28q0 17 -8 33q-27 -40 -27 -68q0 -9 7 -9q12 0 22 16zM539 624q-5 -8 -63 -35q-54 -25 -61 -25h-1q-5 3 -2 9q14 10 44.5 33t37.5 28q14 10 27 10q4 0 12 -2q12 -6 6 -18zM115 40q-2 30 -2 48q0 96 42 187l-46 -7l-3 -7q-26 -53 -26 -111q0 -66 35 -110z M363 127q42 -45 55 -95q45 32 70 70q15 22 15 40q0 26 -31 26q-19 0 -50 -12q-24 -9 -59 -29zM142 -25q19 -66 59 -101t85 -35q51 0 86.5 41.5t35.5 113.5q0 7 -1 10q-84 -46 -173 -46q-46 0 -82 13q-8 3 -10 4zM423 -6q0 -77 -39.5 -121t-95.5 -44q-52 0 -97 39.5 t-65 113.5q-90 47 -90 159q0 54 24 117q-6 -1 -18 -5h-2q-5 0 -5 6q0 7 6 16t14 11l20 4l6 12q50 97 149.5 164t205.5 67q27 0 50 -4q32 -5 52 -25q27 33 43 45q5 3 7 3q6 0 6 -5q0 -2 -3 -5q-23 -18 -45 -46q16 -19 16 -46q0 -12 -4 -23q-6 -16 -21 -26t-29 -10 q-22 0 -22 24q0 6 1 9q2 14 15.5 34t23.5 30q-15 17 -44 21q-21 3 -41 3q-100 0 -181 -59t-135 -154q16 2 44 4q79 139 234 184q4 1 5.5 -3t-2.5 -5q-134 -36 -216 -175q60 3 121 3q25 0 70 -0.5t63 -0.5q12 0 12 -6q0 -7 -18 -7q-139 0 -262 -15q-48 -96 -48 -194 q0 -37 4 -62q12 -12 32 -22q40 -21 90 -21q77 0 151 45q-12 51 -52 98q-22 -13 -38 -26q-43 -34 -67 -63q-7 -8 -7 -3q0 8 4 12q36 40 75 73q21 16 23 17q-58 58 -123 59q-3 0 -4 2t0.5 4t3.5 2q69 -2 132 -61q24 15 63 32q27 10 50 10q27 0 42.5 -13t15.5 -34 q0 -34 -35 -70q-26 -26 -66 -51q0 -3 0.5 -9t0.5 -9z"/>
<glyph glyph-name="Ecircumflex" horiz-adv-x="568" unicode="" d="M535 417q6 13 6 28q0 17 -8 33q-27 -40 -27 -68q0 -9 7 -9q12 0 22 16zM534 586q0 -4 -2 -5q-5 0 -8 1q-6 2 -7 4l-37 58l-108 -58q-4 -4 -14 -4q-8 -2 -8 2v1l1 1l122 86q10 2 23 2q8 0 8 -2zM115 40q-2 30 -2 48q0 96 42 187l-46 -7l-3 -7q-26 -53 -26 -111 q0 -66 35 -110zM363 127q42 -45 55 -95q45 32 70 70q15 22 15 40q0 26 -31 26q-19 0 -50 -12q-24 -9 -59 -29zM142 -25q19 -66 59 -101t85 -35q51 0 86.5 41.5t35.5 113.5q0 7 -1 10q-84 -46 -173 -46q-46 0 -82 13q-8 3 -10 4zM423 -6q0 -77 -39.5 -121t-95.5 -44 q-52 0 -97 39.5t-65 113.5q-90 47 -90 159q0 54 24 117q-6 -1 -18 -5h-2q-5 0 -5 6q0 7 6 16t14 11l20 4l6 12q50 97 149.5 164t205.5 67q27 0 50 -4q32 -5 52 -25q27 33 43 45q5 3 7 3q6 0 6 -5q0 -2 -3 -5q-23 -18 -45 -46q16 -19 16 -46q0 -12 -4 -23q-6 -16 -21 -26 t-29 -10q-22 0 -22 24q0 6 1 9q2 14 15.5 34t23.5 30q-15 17 -44 21q-21 3 -41 3q-100 0 -181 -59t-135 -154q16 2 44 4q79 139 234 184q4 1 5.5 -3t-2.5 -5q-134 -36 -216 -175q60 3 121 3q25 0 70 -0.5t63 -0.5q12 0 12 -6q0 -7 -18 -7q-139 0 -262 -15q-48 -96 -48 -194 q0 -37 4 -62q12 -12 32 -22q40 -21 90 -21q77 0 151 45q-12 51 -52 98q-22 -13 -38 -26q-43 -34 -67 -63q-7 -8 -7 -3q0 8 4 12q36 40 75 73q21 16 23 17q-58 58 -123 59q-3 0 -4 2t0.5 4t3.5 2q69 -2 132 -61q24 15 63 32q27 10 50 10q27 0 42.5 -13t15.5 -34 q0 -34 -35 -70q-26 -26 -66 -51q0 -3 0.5 -9t0.5 -9z"/>
<glyph glyph-name="Edieresis" horiz-adv-x="568" unicode="" d="M443 599q0 -22 -21 -22q-23 0 -23 22t22 22t22 -22zM529 599q0 -22 -21 -22q-23 0 -23 22t22 22t22 -22zM535 417q6 13 6 28q0 17 -8 33q-27 -40 -27 -68q0 -9 7 -9q12 0 22 16zM115 40q-2 30 -2 48q0 96 42 187l-46 -7l-3 -7q-26 -53 -26 -111q0 -66 35 -110zM363 127 q42 -45 55 -95q45 32 70 70q15 22 15 40q0 26 -31 26q-19 0 -50 -12q-24 -9 -59 -29zM142 -25q19 -66 59 -101t85 -35q51 0 86.5 41.5t35.5 113.5q0 7 -1 10q-84 -46 -173 -46q-46 0 -82 13q-8 3 -10 4zM423 -6q0 -77 -39.5 -121t-95.5 -44q-52 0 -97 39.5t-65 113.5 q-90 47 -90 159q0 54 24 117q-6 -1 -18 -5h-2q-5 0 -5 6q0 7 6 16t14 11l20 4l6 12q50 97 149.5 164t205.5 67q27 0 50 -4q32 -5 52 -25q27 33 43 45q5 3 7 3q6 0 6 -5q0 -2 -3 -5q-23 -18 -45 -46q16 -19 16 -46q0 -12 -4 -23q-6 -16 -21 -26t-29 -10q-22 0 -22 24q0 6 1 9 q2 14 15.5 34t23.5 30q-15 17 -44 21q-21 3 -41 3q-100 0 -181 -59t-135 -154q16 2 44 4q79 139 234 184q4 1 5.5 -3t-2.5 -5q-134 -36 -216 -175q60 3 121 3q25 0 70 -0.5t63 -0.5q12 0 12 -6q0 -7 -18 -7q-139 0 -262 -15q-48 -96 -48 -194q0 -37 4 -62q12 -12 32 -22 q40 -21 90 -21q77 0 151 45q-12 51 -52 98q-22 -13 -38 -26q-43 -34 -67 -63q-7 -8 -7 -3q0 8 4 12q36 40 75 73q21 16 23 17q-58 58 -123 59q-3 0 -4 2t0.5 4t3.5 2q69 -2 132 -61q24 15 63 32q27 10 50 10q27 0 42.5 -13t15.5 -34q0 -34 -35 -70q-26 -26 -66 -51 q0 -3 0.5 -9t0.5 -9z"/>
<glyph glyph-name="Igrave" horiz-adv-x="504" unicode="" d="M336 616q-6 6 -6 17q0 13 9 13q5 0 15 -8q6 -5 22 -16.5t31.5 -23.5t30.5 -24q4 -3 4 -7q0 -7 -8 -7q-4 0 -6 1q-52 29 -92 55zM409 27q14 -6 24.5 -16.5t10.5 -19.5q0 -15 -27 -15q-15 0 -32 4q-73 14 -138 18q-26 -33 -51 -46q-11 -7 -27 -7q-12 0 -25 5 q-38 -42 -77 -62q-28 -15 -56 -15t-39 18q-1 1 -1 3q0 3 2.5 4t4.5 -1q13 -16 36 -16t53 16q37 20 68 57q-16 7 -27.5 18t-11.5 17q0 4 5 4q3 0 4.5 -2t4.5 -6.5t8 -7.5q12 -10 25 -13q16 19 26 36q-141 -3 -141 -47q0 -10 10 -22.5t20 -18.5q8 -5 -2 -6q-8 -1 -14 3 q-41 28 -41 51q0 64 172 64q7 0 10 -1q27 46 49 107q-2 0 -7 -0.5t-8 -0.5q-77 0 -137 52t-73 151q-4 36 -4 52q0 98 48 155t112 57q39 0 73 -23.5t52 -68.5h17h31q20 0 30 1q17 21 29 21q10 0 11 -20q95 -4 106 -14q2 -2 3 -4q0 -1 1 -2v-2q0 -4 -5 -4q-1 0 -10 1t-17 1 t-38.5 0.5t-43.5 0.5q-25 -171 -70 -307q51 36 61 90q1 5 5 1q3 -2 2 -5q-16 -65 -73 -101q-31 -89 -66 -143q68 -8 130 -23q16 -4 29 -4q12 0 12 5q0 8 -28 26q-4 3 0 5q2 1 5 0zM214 -1q-11 1 -31 1h-1q-11 -18 -27 -37q3 0 11 2q24 6 48 34zM197 23q10 0 32 -2 q30 46 55 119q-13 -4 -35 -8q-19 -53 -52 -109zM295 482q6 -22 9 -50q1 -10 1 -33q0 -116 -51 -256q20 4 34 10q28 85 46.5 181t19.5 148q-5 0 -15.5 0.5t-15.5 0.5t-14.5 -0.5t-13.5 -0.5zM235 140q47 135 47 253q0 15 -2 41q-2 19 -8 46q-86 -9 -133.5 -40t-47.5 -69 q0 -29 29 -53t83 -33q7 -2 2 -6.5t-12 -2.5q-137 40 -137 107q0 41 57 75t152 44q-16 42 -44 63.5t-61 21.5q-56 0 -98.5 -54.5t-42.5 -146.5q0 -30 4 -55q13 -96 67.5 -144t124.5 -48q13 0 20 1z"/>
<glyph glyph-name="Iacute" horiz-adv-x="504" unicode="" d="M512 626q-5 -8 -63 -35q-54 -25 -61 -25h-1q-5 3 -2 9q14 10 44.5 33t37.5 28q14 10 27 10q4 0 12 -2q12 -6 6 -18zM409 27q14 -6 24.5 -16.5t10.5 -19.5q0 -15 -27 -15q-15 0 -32 4q-73 14 -138 18q-26 -33 -51 -46q-11 -7 -27 -7q-12 0 -25 5q-38 -42 -77 -62 q-28 -15 -56 -15t-39 18q-1 1 -1 3q0 3 2.5 4t4.5 -1q13 -16 36 -16t53 16q37 20 68 57q-16 7 -27.5 18t-11.5 17q0 4 5 4q3 0 4.5 -2t4.5 -6.5t8 -7.5q12 -10 25 -13q16 19 26 36q-141 -3 -141 -47q0 -10 10 -22.5t20 -18.5q8 -5 -2 -6q-8 -1 -14 3q-41 28 -41 51 q0 64 172 64q7 0 10 -1q27 46 49 107q-2 0 -7 -0.5t-8 -0.5q-77 0 -137 52t-73 151q-4 36 -4 52q0 98 48 155t112 57q39 0 73 -23.5t52 -68.5h17h31q20 0 30 1q17 21 29 21q10 0 11 -20q95 -4 106 -14q2 -2 3 -4q0 -1 1 -2v-2q0 -4 -5 -4q-1 0 -10 1t-17 1t-38.5 0.5 t-43.5 0.5q-25 -171 -70 -307q51 36 61 90q1 5 5 1q3 -2 2 -5q-16 -65 -73 -101q-31 -89 -66 -143q68 -8 130 -23q16 -4 29 -4q12 0 12 5q0 8 -28 26q-4 3 0 5q2 1 5 0zM214 -1q-11 1 -31 1h-1q-11 -18 -27 -37q3 0 11 2q24 6 48 34zM197 23q10 0 32 -2q30 46 55 119 q-13 -4 -35 -8q-19 -53 -52 -109zM295 482q6 -22 9 -50q1 -10 1 -33q0 -116 -51 -256q20 4 34 10q28 85 46.5 181t19.5 148q-5 0 -15.5 0.5t-15.5 0.5t-14.5 -0.5t-13.5 -0.5zM235 140q47 135 47 253q0 15 -2 41q-2 19 -8 46q-86 -9 -133.5 -40t-47.5 -69q0 -29 29 -53 t83 -33q7 -2 2 -6.5t-12 -2.5q-137 40 -137 107q0 41 57 75t152 44q-16 42 -44 63.5t-61 21.5q-56 0 -98.5 -54.5t-42.5 -146.5q0 -30 4 -55q13 -96 67.5 -144t124.5 -48q13 0 20 1z"/>
<glyph glyph-name="Icircumflex" horiz-adv-x="504" unicode="" d="M480 553q0 -4 -2 -5q-5 0 -8 1q-6 2 -7 4l-37 58l-108 -58q-4 -4 -14 -4q-8 -2 -8 2q0 1 0.5 1t0.5 1l122 86q10 2 23 2q8 0 8 -2zM409 27q14 -6 24.5 -16.5t10.5 -19.5q0 -15 -27 -15q-15 0 -32 4q-73 14 -138 18q-26 -33 -51 -46q-11 -7 -27 -7q-12 0 -25 5 q-38 -42 -77 -62q-28 -15 -56 -15t-39 18q-1 1 -1 3q0 3 2.5 4t4.5 -1q13 -16 36 -16t53 16q37 20 68 57q-16 7 -27.5 18t-11.5 17q0 4 5 4q3 0 4.5 -2t4.5 -6.5t8 -7.5q12 -10 25 -13q16 19 26 36q-141 -3 -141 -47q0 -10 10 -22.5t20 -18.5q8 -5 -2 -6q-8 -1 -14 3 q-41 28 -41 51q0 64 172 64q7 0 10 -1q27 46 49 107q-2 0 -7 -0.5t-8 -0.5q-77 0 -137 52t-73 151q-4 36 -4 52q0 98 48 155t112 57q39 0 73 -23.5t52 -68.5h17h31q20 0 30 1q17 21 29 21q10 0 11 -20q95 -4 106 -14q2 -2 3 -4q0 -1 1 -2v-2q0 -4 -5 -4q-1 0 -10 1t-17 1 t-38.5 0.5t-43.5 0.5q-25 -171 -70 -307q51 36 61 90q1 5 5 1q3 -2 2 -5q-16 -65 -73 -101q-31 -89 -66 -143q68 -8 130 -23q16 -4 29 -4q12 0 12 5q0 8 -28 26q-4 3 0 5q2 1 5 0zM214 -1q-11 1 -31 1h-1q-11 -18 -27 -37q3 0 11 2q24 6 48 34zM197 23q10 0 32 -2 q30 46 55 119q-13 -4 -35 -8q-19 -53 -52 -109zM295 482q6 -22 9 -50q1 -10 1 -33q0 -116 -51 -256q20 4 34 10q28 85 46.5 181t19.5 148q-5 0 -15.5 0.5t-15.5 0.5t-14.5 -0.5t-13.5 -0.5zM235 140q47 135 47 253q0 15 -2 41q-2 19 -8 46q-86 -9 -133.5 -40t-47.5 -69 q0 -29 29 -53t83 -33q7 -2 2 -6.5t-12 -2.5q-137 40 -137 107q0 41 57 75t152 44q-16 42 -44 63.5t-61 21.5q-56 0 -98.5 -54.5t-42.5 -146.5q0 -30 4 -55q13 -96 67.5 -144t124.5 -48q13 0 20 1z"/>
<glyph glyph-name="Idieresis" horiz-adv-x="504" unicode="" d="M379 583q0 -22 -21 -22q-23 0 -23 22t22 22t22 -22zM465 583q0 -22 -21 -22q-23 0 -23 22t22 22t22 -22zM409 27q14 -6 24.5 -16.5t10.5 -19.5q0 -15 -27 -15q-15 0 -32 4q-73 14 -138 18q-26 -33 -51 -46q-11 -7 -27 -7q-12 0 -25 5q-38 -42 -77 -62q-28 -15 -56 -15 t-39 18q-1 1 -1 3q0 3 2.5 4t4.5 -1q13 -16 36 -16t53 16q37 20 68 57q-16 7 -27.5 18t-11.5 17q0 4 5 4q3 0 4.5 -2t4.5 -6.5t8 -7.5q12 -10 25 -13q16 19 26 36q-141 -3 -141 -47q0 -10 10 -22.5t20 -18.5q8 -5 -2 -6q-8 -1 -14 3q-41 28 -41 51q0 64 172 64q7 0 10 -1 q27 46 49 107q-2 0 -7 -0.5t-8 -0.5q-77 0 -137 52t-73 151q-4 36 -4 52q0 98 48 155t112 57q39 0 73 -23.5t52 -68.5h17h31q20 0 30 1q17 21 29 21q10 0 11 -20q95 -4 106 -14q2 -2 3 -4q0 -1 1 -2v-2q0 -4 -5 -4q-1 0 -10 1t-17 1t-38.5 0.5t-43.5 0.5q-25 -171 -70 -307 q51 36 61 90q1 5 5 1q3 -2 2 -5q-16 -65 -73 -101q-31 -89 -66 -143q68 -8 130 -23q16 -4 29 -4q12 0 12 5q0 8 -28 26q-4 3 0 5q2 1 5 0zM214 -1q-11 1 -31 1h-1q-11 -18 -27 -37q3 0 11 2q24 6 48 34zM197 23q10 0 32 -2q30 46 55 119q-13 -4 -35 -8q-19 -53 -52 -109z M295 482q6 -22 9 -50q1 -10 1 -33q0 -116 -51 -256q20 4 34 10q28 85 46.5 181t19.5 148q-5 0 -15.5 0.5t-15.5 0.5t-14.5 -0.5t-13.5 -0.5zM235 140q47 135 47 253q0 15 -2 41q-2 19 -8 46q-86 -9 -133.5 -40t-47.5 -69q0 -29 29 -53t83 -33q7 -2 2 -6.5t-12 -2.5 q-137 40 -137 107q0 41 57 75t152 44q-16 42 -44 63.5t-61 21.5q-56 0 -98.5 -54.5t-42.5 -146.5q0 -30 4 -55q13 -96 67.5 -144t124.5 -48q13 0 20 1z"/>
<glyph glyph-name="Eth" horiz-adv-x="724" unicode="" d="M325 507q-2 -6 -24 -52q18 -1 38 -8q20 38 36 61q-33 0 -50 -1zM420 379q-25 28 -52 43q-17 -37 -35 -86q49 21 87 43zM297 447q-34 -69 -62 -145q24 6 48 15q23 63 52 120q-16 7 -38 10zM222 298q28 71 65 150q-4 1 -12 1h-9q-52 0 -87.5 -34t-35.5 -67q0 -8 1 -11 q1 -4 -3 -5t-5 3q-2 8 -2 14q0 38 37.5 73t98.5 35h5q11 0 16 -1l2 5q7 13 21 45q-113 -11 -183 -52q-43 -25 -68 -58.5t-25 -61.5q0 -53 79 -53q9 0 29 2q35 3 76 15zM226 275q-38 -104 -51 -172q-11 -51 -11 -98q0 -78 31 -118.5t80 -40.5q44 0 89 32.5t77 90.5 q-24 -3 -46 -3q-51 0 -83 16.5t-32 47.5q0 3 2 11t2 12l-12 -16q-25 -37 -41 -66q-1 -2 -4 -2q-8 0 -18.5 9.5t-10.5 19.5q0 85 75 293q-32 -12 -47 -16zM443 125q-52 -1 -82 -6q-45 -6 -82 -7q-12 -2 -18 0q-21 -80 -24 -111q4 4 10.5 15t15.5 26.5t14 22.5q3 6 15 20.5 t19 19.5q13 10 22 10q5 0 5 -3q0 -1 -2 -3q-45 -39 -45 -68q0 -22 25 -34.5t65 -12.5q37 0 76 10q9 20 15 42q17 60 17 120q0 124 -61 203q-51 -34 -105 -58q-35 -98 -56 -174q12 7 23 11q18 6 50 6q31 0 103 -9q30 -3 30 -11t-30 -9zM486 40l-11 -31q77 24 131 73 q98 89 98 191q0 91 -79.5 157t-211.5 76q-21 -31 -40 -73q31 -16 59 -46q44 27 73 57q8 8 9.5 7t0 -6t-3.5 -7q-29 -30 -71 -61q65 -81 65 -210q0 -69 -19 -127zM458 -28q-35 -67 -86 -104.5t-100 -37.5q-54 0 -89 45t-35 130q0 41 11 99q15 71 53 168q-24 -6 -54 -10 q-9 -1 -25 -1q-53 0 -83 24.5t-30 61.5q0 34 25.5 68.5t72.5 58.5q74 37 201 45q17 37 22 69q0 2 2 2q5 0 5 -9q0 -17 -17 -62q4 0 12.5 0.5t13.5 0.5t13 -0.5t13 -0.5q22 31 44 42q12 6 26 6q26 0 50.5 -16t24.5 -27q0 -4 -5 -4q-3 0 -4.5 2t-4.5 6.5t-8 7.5q-17 14 -35 14 q-4 0 -14 -2q-17 -3 -37 -31q152 -12 239.5 -82t87.5 -167q0 -115 -120 -220q-66 -57 -169 -76z"/>
<glyph glyph-name="Ntilde" horiz-adv-x="686" unicode="" d="M441 269q12 1 37 1q-6 30 -13 84q-10 -44 -24 -85zM560 243l4 -23q10 -56 19 -86q7 29 18 86q-21 14 -41 23zM692 594q-21 -45 -52 -45h-4q-15 2 -34 11q-24 11 -34 11h-3q-16 0 -26 -19q-2 -2 -8 -1q-5 1 -5 2q24 43 51 43h4q16 -2 35 -11q21 -8 34 -10h2q19 0 28 20 q1 2 7 2q6 -2 5 -3zM551 247q-16 7 -37 10q27 -136 49 -186q8 17 16 48q-12 35 -23 100zM590 112q27 -79 60 -79q2 0 8 2q21 11 21 51q0 43 -31 87q-17 22 -34 36q-15 -65 -24 -97zM512 266q19 -3 37 -9q-9 47 -22 92t-34 98t-50.5 85.5t-63.5 32.5q-8 0 -12 -1 q-16 -3 -33 -16q112 -12 147 -141q16 -57 31 -141zM411 252q-67 -18 -123 -71q-36 -35 -36 -74q0 -42 36 -62q75 88 123 207zM320 379q-27 37 -27 85q0 38 17 67q-5 1 -15 1q-59 0 -115 -44t-84 -116q-19 -47 -19 -95q0 -77 56 -77h6q29 3 56.5 31t39.5 49q5 7 7 3 q2 -3 0 -8q-10 -24 -47.5 -58.5t-69.5 -36.5h-7q-35 0 -51.5 27.5t-16.5 70.5q0 58 25 108q37 73 105.5 118t137.5 45h6q18 20 42 23q12 2 18 2q32 0 59 -21.5t44.5 -51.5t32.5 -77.5t23 -84.5t16 -86q20 -8 44 -25q10 47 16.5 76t19 72.5t26 70.5t32.5 54t44 40t55 13 q38 0 64 -28.5t26 -53.5q0 -3 -1.5 -5t-3.5 -1t-3 5q-5 17 -24.5 34t-47.5 17q-27 0 -50.5 -12t-41.5 -36.5t-32.5 -50.5t-27 -64.5t-20.5 -68.5t-18 -72q20 -16 38 -40q33 -46 33 -94q0 -44 -26 -57q-6 -3 -11 -3q-36 0 -64 75q-8 -27 -16 -43q33 -66 72 -66q16 0 32.5 10 t27 20t11.5 10q2 0 2 -2t2 -3q1 -1 0 -2q-44 -46 -89 -46q-42 0 -78 49q-6 -5 -18 -5q-15 0 -15 9q0 2 3.5 3t10 2.5t10.5 3.5q-41 86 -62 221h-11l-31 -3q-46 -122 -133 -218q10 -3 22 -3q36 0 68 29q5 5 6 -2q1 -2 -1 -4q-34 -31 -73 -31q-16 0 -28 4q-30 -33 -61 -57 q-87 -70 -175 -70q-29 0 -47 17t-18 46q0 34 25 66q0 3 4 3q2 0 2 -3l-8 -20q-8 -19 -8 -35q0 -25 15 -43.5t39 -18.5q110 0 217 122q-45 26 -45 74q0 42 38 77q59 58 140 75q27 68 33 130q-38 118 -130 135q-18 -29 -18 -66q0 -43 26 -81q1 -2 0 -4t-3 -2t-4 2z"/>
<glyph glyph-name="Ograve" horiz-adv-x="577" unicode="" d="M143 6q-55 52 -82 126q-1 -5 -1 -16q0 -41 21.5 -70t61.5 -40zM341 606q-6 6 -6 17q0 13 9 13q5 0 15 -8q6 -5 22 -16.5t31.5 -23.5t30.5 -24q4 -3 4 -7q0 -7 -8 -7q-4 0 -6 1q-52 29 -92 55zM145 340l-5 10q-7 22 -11 39q-27 -30 -42 -62q-17 -33 -21 -69v-12v-24 q25 62 79 118zM418 469q61 -82 84 -192q3 -16 7 -46q15 40 15 88q0 55 -29 94.5t-77 55.5zM217 -31q45 -21 97 -21q62 0 110 46t64 122q-50 -64 -122.5 -103.5t-148.5 -43.5zM380 491q-67 72 -133 72q-24 0 -44 -10q-67 -33 -67 -118v-8q91 66 217 66q9 0 27 -2zM355 319 q-25 -61 -82 -61q-31 0 -62.5 17.5t-52.5 44.5q-63 -70 -87 -144q18 -110 93 -173q12 -2 19 -2q3 0 7 0.5t7 0.5q82 4 169 59.5t130 138.5q-2 39 -10 77q-24 117 -93 199q-17 4 -40 4q-132 0 -215 -82q5 -26 13 -45l3 -5q90 86 181 86q12 0 12 -7q0 -6 -13 -6 q-78 0 -169 -93q19 -27 48.5 -44.5t58.5 -17.5q53 0 75 56q1 4 5 2.5t3 -5.5zM125 420v8q0 96 74 132q26 12 53 12q79 0 151 -85q67 -14 111 -62.5t44 -118.5q0 -86 -51 -164q-14 -90 -68 -146t-126 -56q-62 0 -116 28q-79 1 -117.5 39t-38.5 100q0 32 9 65q-11 41 -11 95v1 q-1 65 54 122q14 15 32 30z"/>
<glyph glyph-name="Oacute" horiz-adv-x="577" unicode="" d="M143 6q-55 52 -82 126q-1 -5 -1 -16q0 -41 21.5 -70t61.5 -40zM517 603q-5 -8 -63 -35q-54 -25 -61 -25h-1q-5 3 -2 9q14 10 44.5 33t37.5 28q14 10 27 10q4 0 12 -2q12 -6 6 -18zM145 340l-5 10q-7 22 -11 39q-27 -30 -42 -62q-17 -33 -21 -69v-12v-24q25 62 79 118z M418 469q61 -82 84 -192q3 -16 7 -46q15 40 15 88q0 55 -29 94.5t-77 55.5zM217 -31q45 -21 97 -21q62 0 110 46t64 122q-50 -64 -122.5 -103.5t-148.5 -43.5zM380 491q-67 72 -133 72q-24 0 -44 -10q-67 -33 -67 -118v-8q91 66 217 66q9 0 27 -2zM355 319q-25 -61 -82 -61 q-31 0 -62.5 17.5t-52.5 44.5q-63 -70 -87 -144q18 -110 93 -173q12 -2 19 -2q3 0 7 0.5t7 0.5q82 4 169 59.5t130 138.5q-2 39 -10 77q-24 117 -93 199q-17 4 -40 4q-132 0 -215 -82q5 -26 13 -45l3 -5q90 86 181 86q12 0 12 -7q0 -6 -13 -6q-78 0 -169 -93 q19 -27 48.5 -44.5t58.5 -17.5q53 0 75 56q1 4 5 2.5t3 -5.5zM125 420v8q0 96 74 132q26 12 53 12q79 0 151 -85q67 -14 111 -62.5t44 -118.5q0 -86 -51 -164q-14 -90 -68 -146t-126 -56q-62 0 -116 28q-79 1 -117.5 39t-38.5 100q0 32 9 65q-11 41 -11 95v1q-1 65 54 122 q14 15 32 30z"/>
<glyph glyph-name="Ocircumflex" horiz-adv-x="577" unicode="" d="M143 6q-55 52 -82 126q-1 -5 -1 -16q0 -41 21.5 -70t61.5 -40zM145 340l-5 10q-7 22 -11 39q-27 -30 -42 -62q-17 -33 -21 -69v-12v-24q25 62 79 118zM418 469q61 -82 84 -192q3 -16 7 -46q15 40 15 88q0 55 -29 94.5t-77 55.5zM217 -31q45 -21 97 -21q62 0 110 46 t64 122q-50 -64 -122.5 -103.5t-148.5 -43.5zM380 491q-31 32 -66 53l-17 -9q-4 -4 -14 -4q-8 -2 -8 2q0 1 0.5 1t0.5 1l23 16q-27 12 -53 12q-23 0 -43 -10q-67 -33 -67 -118v-8q91 66 217 66q9 0 27 -2zM355 319q-25 -61 -82 -61q-31 0 -62.5 17.5t-52.5 44.5 q-63 -70 -87 -144q18 -110 93 -173q12 -2 19 -2q3 0 7 0.5t7 0.5q82 4 169 59.5t130 138.5q-2 39 -10 77q-24 117 -93 199q-17 4 -40 4q-132 0 -215 -82q5 -26 13 -45l3 -5q90 86 181 86q12 0 12 -7q0 -6 -13 -6q-78 0 -169 -93q19 -27 48.5 -44.5t58.5 -17.5q53 0 75 56 q1 4 5 2.5t3 -5.5zM459 535q0 -4 -2 -5q-5 0 -8 1q-6 2 -7 4l-37 58l-78 -42q42 -24 76 -64q67 -14 111 -62.5t44 -118.5q0 -86 -51 -164q-14 -90 -68 -146t-126 -56q-62 0 -116 28q-79 1 -117.5 39t-38.5 100q0 32 9 65q-11 41 -11 95v1q-1 65 54 122q14 15 32 30v8 q0 96 74 132q26 12 52 12q30 0 59 -13l88 62q10 2 23 2q8 0 8 -2z"/>
<glyph glyph-name="Otilde" horiz-adv-x="577" unicode="" d="M143 6q-55 52 -82 126q-1 -5 -1 -16q0 -41 21.5 -70t61.5 -40zM439 637q-21 -45 -52 -45h-4q-15 2 -34 11q-24 11 -34 11h-3q-16 0 -26 -19q-2 -2 -8 -1q-5 1 -5 2q24 43 51 43h4q16 -2 35 -11q21 -8 34 -10h2q19 0 28 20q1 2 7 2q6 -2 5 -3zM145 340l-5 10q-7 22 -11 39 q-27 -30 -42 -62q-17 -33 -21 -69v-12v-24q25 62 79 118zM418 469q61 -82 84 -192q3 -16 7 -46q15 40 15 88q0 55 -29 94.5t-77 55.5zM217 -31q45 -21 97 -21q62 0 110 46t64 122q-50 -64 -122.5 -103.5t-148.5 -43.5zM380 491q-67 72 -133 72q-24 0 -44 -10 q-67 -33 -67 -118v-8q91 66 217 66q9 0 27 -2zM355 319q-25 -61 -82 -61q-31 0 -62.5 17.5t-52.5 44.5q-63 -70 -87 -144q18 -110 93 -173q12 -2 19 -2q3 0 7 0.5t7 0.5q82 4 169 59.5t130 138.5q-2 39 -10 77q-24 117 -93 199q-17 4 -40 4q-132 0 -215 -82q5 -26 13 -45 l3 -5q90 86 181 86q12 0 12 -7q0 -6 -13 -6q-78 0 -169 -93q19 -27 48.5 -44.5t58.5 -17.5q53 0 75 56q1 4 5 2.5t3 -5.5zM125 420v8q0 96 74 132q26 12 53 12q79 0 151 -85q67 -14 111 -62.5t44 -118.5q0 -86 -51 -164q-14 -90 -68 -146t-126 -56q-62 0 -116 28 q-79 1 -117.5 39t-38.5 100q0 32 9 65q-11 41 -11 95v1q-1 65 54 122q14 15 32 30z"/>
<glyph glyph-name="Odieresis" horiz-adv-x="577" unicode="" d="M405 601q0 -22 -21 -22q-23 0 -23 22t22 22t22 -22zM491 601q0 -22 -21 -22q-23 0 -23 22t22 22t22 -22zM143 6q-55 52 -82 126q-1 -5 -1 -16q0 -41 21.5 -70t61.5 -40zM145 340l-5 10q-7 22 -11 39q-27 -30 -42 -62q-17 -33 -21 -69v-12v-24q25 62 79 118zM418 469 q61 -82 84 -192q3 -16 7 -46q15 40 15 88q0 55 -29 94.5t-77 55.5zM217 -31q45 -21 97 -21q62 0 110 46t64 122q-50 -64 -122.5 -103.5t-148.5 -43.5zM380 491q-67 72 -133 72q-24 0 -44 -10q-67 -33 -67 -118v-8q91 66 217 66q9 0 27 -2zM355 319q-25 -61 -82 -61 q-31 0 -62.5 17.5t-52.5 44.5q-63 -70 -87 -144q18 -110 93 -173q12 -2 19 -2q3 0 7 0.5t7 0.5q82 4 169 59.5t130 138.5q-2 39 -10 77q-24 117 -93 199q-17 4 -40 4q-132 0 -215 -82q5 -26 13 -45l3 -5q90 86 181 86q12 0 12 -7q0 -6 -13 -6q-78 0 -169 -93 q19 -27 48.5 -44.5t58.5 -17.5q53 0 75 56q1 4 5 2.5t3 -5.5zM125 420v8q0 96 74 132q26 12 53 12q79 0 151 -85q67 -14 111 -62.5t44 -118.5q0 -86 -51 -164q-14 -90 -68 -146t-126 -56q-62 0 -116 28q-79 1 -117.5 39t-38.5 100q0 32 9 65q-11 41 -11 95v1q-1 65 54 122 q14 15 32 30z"/>
<glyph glyph-name="multiply" horiz-adv-x="159" unicode="" d="M143 131l-50 -53l29 -56q0 -2 -6 -7q-4 -6 -7 -6l-28 56l-49 -53q-1 0 -5 6l-2 8l49 53l-29 56l6 8l7 6l28 -57l49 53q2 0 5 -6t3 -8z"/>
<glyph glyph-name="Oslash" horiz-adv-x="813" unicode="" d="M275 171q-48 44 -65 108q-39 -48 -59 -96q48 -14 92 -14q22 0 32 2zM506 573q37 0 79 -5q-6 33 -22 53q-25 33 -75 33q-29 0 -65 -12q-80 -26 -140 -103l-5 -6l33 10q103 30 195 30zM480 257q-76 -79 -171 -100q42 -31 94 -40l299 389q-42 26 -97 36v-3q0 -19 -5 -47 q-27 -137 -120 -235zM203 343q0 71 29 135q-42 -19 -88 -51q-92 -66 -92 -144q0 -29 16 -51q15 -24 40 -35q36 65 96 118q-1 9 -1 28zM239 -7q25 0 71 4l87 112q-55 10 -102 46q-30 -5 -56 -5q-47 0 -98 14q-14 -39 -14 -69q0 -48 30 -75q29 -27 82 -27zM708 231 q65 83 65 156q0 63 -52 106l-292 -379q8 -1 23 -1q71 0 125 41h1l2 1q2 0 4 -3q0 -3 -1 -5q-59 -42 -136 -42q-16 0 -24 1l-81 -105q217 36 366 230zM282 181l8 -8q62 10 123 53q78 54 126 139q48 87 48 174v6q-40 4 -63 4q-80 0 -183 -31q-60 -18 -91 -32q-33 -64 -33 -143 v-16q23 20 52 40q98 68 180 82q10 1 10 -4t-8 -7q-78 -15 -164 -84q-41 -34 -65 -62q12 -66 60 -111zM770 557l-34 -45q74 -54 74 -139q0 -84 -70 -173q-80 -104 -226 -168q-94 -42 -190 -54l-66 -86h-28l63 83q-27 -3 -53 -3q-84 0 -125 34q-38 32 -38 85q0 37 20 85 q-31 14 -50 42t-19 62q0 95 89 167q56 47 142 79q20 27 26 34q87 101 202 101q53 0 84 -30q26 -24 32 -66q66 -12 113 -40l25 32h29z"/>
<glyph glyph-name="Ugrave" horiz-adv-x="707" unicode="" d="M455 600q-6 6 -6 17q0 13 9 13q5 0 15 -8l84 -64q4 -3 4 -7q0 -7 -8 -7q-4 0 -6 1q-52 29 -92 55zM378 372q57 22 81 43q31 27 31 50q0 22 -23.5 36t-54.5 14h-8q-32 -4 -50 -9q21 -25 27 -58q3 -15 3 -29q0 -23 -6 -47zM110 337q9 -2 30 -4q3 0 9.5 -0.5t10.5 -0.5 q84 0 175 27q12 33 12 67q0 9 -2 27q-4 25 -19 45q-115 -39 -196 -136zM-2 382q34 -28 90 -41q20 27 26 34q80 92 204 131q-27 24 -73 24q-66 0 -140 -44t-107 -104zM105 329q-54 -77 -54 -153q0 -70 45 -115t115 -45h10l-1 4q-3 17 -3 32q0 44 20.5 95t51.5 109.5t43 92.5 q-91 -24 -171 -24q-26 0 -47 3q-3 1 -9 1zM127 559q-17 7 -38 7q-47 0 -86.5 -34.5t-39.5 -79.5q0 -13 2 -20q5 -15 12 -27q34 61 112 101t154 40q65 0 103 -32q26 6 55 9h7q33 0 62 -16.5t29 -42.5q0 -25 -34 -55q-30 -26 -89 -47q-11 -41 -66.5 -153t-55.5 -169 q0 -13 1 -19q30 6 60 21q49 24 75.5 64.5t26.5 76.5q0 28 -16 38q-6 4 -1 6q2 1 4 0q23 -14 23 -51q0 -39 -26 -80.5t-73 -64.5q-35 -18 -70 -24q9 -37 48 -37q77 0 173 161q32 53 79 165t87 233q3 15 25 15q14 0 24 -7t8 -18q-111 -262 -111 -431q0 -98 38 -98q17 0 34 17 q26 26 40 63q1 4 5.5 2.5t4.5 -4.5q0 -29 -42 -73q-27 -28 -55 -28t-47 26.5t-20 74.5v22q0 64 13 151q-47 -85 -65 -114q-109 -177 -194 -177q-60 0 -79 54h-5q-79 0 -131 53t-52 132q0 74 47 145q-55 12 -88 41l-2 -4q-12 -24 -12 -51q0 -56 55 -76q5 -2 1.5 -6t-9.5 -1 q-60 31 -68 74q-2 8 -2 24q0 33 15 63q-12 17 -16 34q-2 7 -2 21q0 48 40.5 84.5t91.5 36.5q21 0 42 -8q5 -2 3 -6q-1 -2 -5 -1z"/>
<glyph glyph-name="Uacute" horiz-adv-x="707" unicode="" d="M633 606q-5 -8 -63 -35q-54 -25 -61 -25h-1q-5 3 -2 9q14 10 44.5 33t37.5 28q14 10 27 10q4 0 12 -2q12 -6 6 -18zM378 372q57 22 81 43q31 27 31 50q0 22 -23.5 36t-54.5 14h-8q-32 -4 -50 -9q21 -25 27 -58q3 -15 3 -29q0 -23 -6 -47zM110 337q9 -2 30 -4 q3 0 9.5 -0.5t10.5 -0.5q84 0 175 27q12 33 12 67q0 9 -2 27q-4 25 -19 45q-115 -39 -196 -136zM-2 382q34 -28 90 -41q20 27 26 34q80 92 204 131q-27 24 -73 24q-66 0 -140 -44t-107 -104zM105 329q-54 -77 -54 -153q0 -70 45 -115t115 -45h10l-1 4q-3 17 -3 32 q0 44 20.5 95t51.5 109.5t43 92.5q-91 -24 -171 -24q-26 0 -47 3q-3 1 -9 1zM127 559q-17 7 -38 7q-47 0 -86.5 -34.5t-39.5 -79.5q0 -13 2 -20q5 -15 12 -27q34 61 112 101t154 40q65 0 103 -32q26 6 55 9h7q33 0 62 -16.5t29 -42.5q0 -25 -34 -55q-30 -26 -89 -47 q-11 -41 -66.5 -153t-55.5 -169q0 -13 1 -19q30 6 60 21q49 24 75.5 64.5t26.5 76.5q0 28 -16 38q-6 4 -1 6q2 1 4 0q23 -14 23 -51q0 -39 -26 -80.5t-73 -64.5q-35 -18 -70 -24q9 -37 48 -37q77 0 173 161q32 53 79 165t87 233q3 15 25 15q14 0 24 -7t8 -18 q-111 -262 -111 -431q0 -98 38 -98q17 0 34 17q26 26 40 63q1 4 5.5 2.5t4.5 -4.5q0 -29 -42 -73q-27 -28 -55 -28t-47 26.5t-20 74.5v22q0 64 13 151q-47 -85 -65 -114q-109 -177 -194 -177q-60 0 -79 54h-5q-79 0 -131 53t-52 132q0 74 47 145q-55 12 -88 41l-2 -4 q-12 -24 -12 -51q0 -56 55 -76q5 -2 1.5 -6t-9.5 -1q-60 31 -68 74q-2 8 -2 24q0 33 15 63q-12 17 -16 34q-2 7 -2 21q0 48 40.5 84.5t91.5 36.5q21 0 42 -8q5 -2 3 -6q-1 -2 -5 -1z"/>
<glyph glyph-name="Ucircumflex" horiz-adv-x="707" unicode="" d="M620 564q0 -4 -2 -5q-5 0 -8 1q-6 2 -7 4l-37 58l-108 -58q-4 -4 -14 -4q-8 -2 -8 2v1l1 1l122 86q10 2 23 2q8 0 8 -2zM378 372q57 22 81 43q31 27 31 50q0 22 -23.5 36t-54.5 14h-8q-32 -4 -50 -9q21 -25 27 -58q3 -15 3 -29q0 -23 -6 -47zM110 337q9 -2 30 -4 q3 0 9.5 -0.5t10.5 -0.5q84 0 175 27q12 33 12 67q0 9 -2 27q-4 25 -19 45q-115 -39 -196 -136zM-2 382q34 -28 90 -41q20 27 26 34q80 92 204 131q-27 24 -73 24q-66 0 -140 -44t-107 -104zM105 329q-54 -77 -54 -153q0 -70 45 -115t115 -45h10l-1 4q-3 17 -3 32 q0 44 20.5 95t51.5 109.5t43 92.5q-91 -24 -171 -24q-26 0 -47 3q-3 1 -9 1zM127 559q-17 7 -38 7q-47 0 -86.5 -34.5t-39.5 -79.5q0 -13 2 -20q5 -15 12 -27q34 61 112 101t154 40q65 0 103 -32q26 6 55 9h7q33 0 62 -16.5t29 -42.5q0 -25 -34 -55q-30 -26 -89 -47 q-11 -41 -66.5 -153t-55.5 -169q0 -13 1 -19q30 6 60 21q49 24 75.5 64.5t26.5 76.5q0 28 -16 38q-6 4 -1 6q2 1 4 0q23 -14 23 -51q0 -39 -26 -80.5t-73 -64.5q-35 -18 -70 -24q9 -37 48 -37q77 0 173 161q32 53 79 165t87 233q3 15 25 15q14 0 24 -7t8 -18 q-111 -262 -111 -431q0 -98 38 -98q17 0 34 17q26 26 40 63q1 4 5.5 2.5t4.5 -4.5q0 -29 -42 -73q-27 -28 -55 -28t-47 26.5t-20 74.5v22q0 64 13 151q-47 -85 -65 -114q-109 -177 -194 -177q-60 0 -79 54h-5q-79 0 -131 53t-52 132q0 74 47 145q-55 12 -88 41l-2 -4 q-12 -24 -12 -51q0 -56 55 -76q5 -2 1.5 -6t-9.5 -1q-60 31 -68 74q-2 8 -2 24q0 33 15 63q-12 17 -16 34q-2 7 -2 21q0 48 40.5 84.5t91.5 36.5q21 0 42 -8q5 -2 3 -6q-1 -2 -5 -1z"/>
<glyph glyph-name="Udieresis" horiz-adv-x="707" unicode="" d="M618 566q0 -22 -21 -22q-23 0 -23 22t22 22t22 -22zM532 566q0 -22 -21 -22q-23 0 -23 22t22 22t22 -22zM378 372q57 22 81 43q31 27 31 50q0 22 -23.5 36t-54.5 14h-8q-32 -4 -50 -9q21 -25 27 -58q3 -15 3 -29q0 -23 -6 -47zM110 337q9 -2 30 -4q3 0 9.5 -0.5 t10.5 -0.5q84 0 175 27q12 33 12 67q0 9 -2 27q-4 25 -19 45q-115 -39 -196 -136zM-2 382q34 -28 90 -41q20 27 26 34q80 92 204 131q-27 24 -73 24q-66 0 -140 -44t-107 -104zM105 329q-54 -77 -54 -153q0 -70 45 -115t115 -45h10l-1 4q-3 17 -3 32q0 44 20.5 95 t51.5 109.5t43 92.5q-91 -24 -171 -24q-26 0 -47 3q-3 1 -9 1zM127 559q-17 7 -38 7q-47 0 -86.5 -34.5t-39.5 -79.5q0 -13 2 -20q5 -15 12 -27q34 61 112 101t154 40q65 0 103 -32q26 6 55 9h7q33 0 62 -16.5t29 -42.5q0 -25 -34 -55q-30 -26 -89 -47q-11 -41 -66.5 -153 t-55.5 -169q0 -13 1 -19q30 6 60 21q49 24 75.5 64.5t26.5 76.5q0 28 -16 38q-6 4 -1 6q2 1 4 0q23 -14 23 -51q0 -39 -26 -80.5t-73 -64.5q-35 -18 -70 -24q9 -37 48 -37q77 0 173 161q32 53 79 165t87 233q3 15 25 15q14 0 24 -7t8 -18q-111 -262 -111 -431q0 -98 38 -98 q17 0 34 17q26 26 40 63q1 4 5.5 2.5t4.5 -4.5q0 -29 -42 -73q-27 -28 -55 -28t-47 26.5t-20 74.5v22q0 64 13 151q-47 -85 -65 -114q-109 -177 -194 -177q-60 0 -79 54h-5q-79 0 -131 53t-52 132q0 74 47 145q-55 12 -88 41l-2 -4q-12 -24 -12 -51q0 -56 55 -76 q5 -2 1.5 -6t-9.5 -1q-60 31 -68 74q-2 8 -2 24q0 33 15 63q-12 17 -16 34q-2 7 -2 21q0 48 40.5 84.5t91.5 36.5q21 0 42 -8q5 -2 3 -6q-1 -2 -5 -1z"/>
<glyph glyph-name="Yacute" horiz-adv-x="707" unicode="" d="M307 499q52 -76 61 -156l3 2q11 8 23 10q-5 38 -14 63q-29 90 -97 110q16 -18 24 -29zM247 545q-42 36 -86 36q-34 0 -56.5 -22t-22.5 -56q0 -27 14 -52q61 82 151 94zM224 -116q-12 22 -31 36q-31 24 -67 24q-43 0 -74 -32.5t-31 -79.5q0 -37 23 -76q21 35 62 63 q51 35 118 65zM496 -28q-23 -86 -55 -136q-45 -69 -115.5 -116.5t-140.5 -47.5q-8 0 -24 2q-68 8 -108 53q-5 -10 -5 -23q0 -11 6 -23q22 -38 98 -38q43 0 88 12q107 28 190 118t108 216zM358 338q-11 83 -66 159q-17 22 -31 36q-2 0 -6.5 0.5t-6.5 0.5q-40 0 -79 -25.5 t-65 -69.5q26 -39 80 -69q58 -33 142 -33q21 0 32 1zM246 -136q3 -14 3 -27q0 -36 -19 -70q-1 -2 -3.5 -2t-3.5 1.5t0 4.5q15 27 15 56q0 11 -4 31q-69 -32 -118 -65q-41 -30 -58 -57q39 -46 105 -55q7 -1 20 -1q66 0 133 46.5t110 113.5q30 45 54 125q-140 -55 -234 -101z M564 246q-13 -28 -23 -69t-21 -97.5t-19 -88.5q32 12 40 16q0 2 3.5 28t8 57t14 77.5t21 91t30.5 95.5t42 93q-40 -48 -79 -107.5t-77.5 -125.5t-48.5 -82q-79 -119 -101 -119q-3 0 -4.5 2.5t0.5 4.5q48 117 48 266q0 22 -1 33q-6 -4 -27 -13v-22q0 -33 -3 -70 q-9 -99 -40 -195q-1 -5 -5 -2q-3 1 -2 4q29 89 37 194q3 35 3 66v20l-7 -3q-54 -25 -61 -25h-1q-5 3 -2 9l61 46q-9 -1 -28 -1q-83 0 -142 34q-56 32 -80 68q-4 -6 -15 -31q-11 -28 -11 -60q0 -72 62 -72q43 0 79 49q4 6 4 1q0 -2 -2 -6q-7 -18 -35.5 -39t-57.5 -21 q-36 0 -53.5 24t-17.5 60q0 42 19 77q12 22 19 31q-16 28 -16 56q0 38 26 64t65 26q49 0 98 -43h5q50 0 89 -28.5t58 -86.5q11 -32 14 -79q44 15 71 39.5t29 56.5q0 2 2 3t4 0t2 -4q-6 -70 -107 -103v-22q0 -76 -19.5 -156.5t-47.5 -137.5q9 4 24 24t27 40.5t27 47t18 31.5 q9 15 41 72.5t57 100.5t66 97.5t81 89.5q5 5 14 5q8 0 8 -7q0 -6 -5 -13q-47 -69 -77.5 -158t-40 -153.5t-14.5 -120t-6 -58.5q28 12 79 41q13 7 16 7q2 0 2 -1q0 -6 -22 -20q-54 -36 -80 -48q-23 -92 -77 -178t-137 -143q-63 -43 -130 -61q-34 -10 -72 -10q-89 0 -121 55 q-11 17 -11 39q0 19 8 38q-25 39 -25 83q0 53 36 91t84 38q37 0 68 -24q24 -18 36 -44q35 15 75.5 30.5t92 34t79.5 29.5q10 36 23 94.5t24 101t23 69.5q5 11 9 7q3 -3 0 -10z"/>
<glyph glyph-name="Thorn" horiz-adv-x="358" unicode="" d="M293 478q-35 -18 -77 -74t-74 -121q-5 -14 -19 -61q12 -8 27 -8q35 0 71.5 39t55.5 78q31 65 31 118q0 30 -11 30q-3 0 -4 -1zM394 644q4 -5 4 -7q0 -5 -10 0q-24 12 -49 12h-5q-72 -1 -162 -282q18 30 62 80t58 62q13 10 31 10q27 0 33 -22q3 -9 3 -24q0 -35 -14 -83.5 t-39 -89.5q-29 -45 -76.5 -72t-90.5 -27q-8 0 -22 2l-13 -44q-40 -137 -46 -191q-7 -49 -7 -61q0 -51 34 -56q13 -3 13 -8q0 -3 -9 -3q-11 0 -19 2q-27 4 -44 34.5t-17 70.5q0 17 3 33q14 66 70 241q-12 14 -12 31q0 23 19 42q2 -18 7 -33q14 43 27 81q18 65 76 200 q16 38 39.5 75t44.5 46q2 1 41 1q25 0 28 -1q26 -3 42 -19z"/>
<glyph glyph-name="germandbls" horiz-adv-x="508" unicode="" d="M510 377q0 -33 -33 -67q-28 -33 -74 -57q-14 -6 -14 -17q0 -6 6 -8q74 -27 74 -97q0 -58 -52 -107q-58 -53 -145 -59q-7 -1 -19 -1q-28 0 -28 7t23 8q79 3 132 52q50 47 50 101q0 46 -41 70q-25 15 -25 31q0 17 31 38q71 48 71 105q0 55 -53 73q-6 2 -8 2q-15 0 -30 -18 t-24 -42q-142 -417 -218 -505q-82 -97 -158 -103h-11q-60 0 -60 48q0 18 12 31q14 15 33 15q13 0 22 -9q8 -10 7 -23q-2 -14 -12 -23q-10 -10 -24 -10q-12 0 -20 8q7 -19 39 -19q6 0 14 2q58 15 98 65q34 43 86 162l161 374q11 27 28 44q18 18 44 18h7q56 -5 85 -31 q26 -22 26 -58z"/>
<glyph glyph-name="agrave" d="M131 351q-6 6 -6 17q0 13 9 13q5 0 15 -8q6 -5 22 -16.5t31.5 -23.5t30.5 -24q4 -3 4 -7q0 -7 -8 -7q-4 0 -6 1q-52 29 -92 55zM324 67q-3 -6 -17.5 -20.5t-41 -32t-49.5 -17.5q-8 0 -17 3q-37 13 -37 95v7l-4 -5q-3 -5 -9 -14.5t-14 -21t-17.5 -23t-19 -21t-20.5 -15.5 t-20 -6h-3q-32 4 -32 45q0 37 25 86.5t62 84.5q47 42 90 42q18 0 38 -9q17 -10 17 -30q0 -23 -19 -26q6 11 6 20q0 22 -25 22q-24 0 -52 -24q-29 -25 -58 -64.5t-43 -72.5q-10 -28 -10 -40q0 -13 9 -13q11 0 35 23q22 21 74 97q16 21 24 21t8 -22q-2 -30 -2 -44t2 -32 q9 -44 31 -44q11 0 29 9q8 4 15.5 10t14 12t11 10.5l8.5 8.5l4 5q1 1 3 0t3 -3z" unicode=""/>
<glyph glyph-name="aacute" d="M291 361q-5 -8 -63 -35q-54 -25 -61 -25h-1q-5 3 -2 9q14 10 44.5 33t37.5 28q14 10 27 10q4 0 12 -2q12 -6 6 -18zM324 67q-3 -6 -17.5 -20.5t-41 -32t-49.5 -17.5q-8 0 -17 3q-37 13 -37 95v7l-4 -5q-3 -5 -9 -14.5t-14 -21t-17.5 -23t-19 -21t-20.5 -15.5t-20 -6h-3 q-32 4 -32 45q0 37 25 86.5t62 84.5q47 42 90 42q18 0 38 -9q17 -10 17 -30q0 -23 -19 -26q6 11 6 20q0 22 -25 22q-24 0 -52 -24q-29 -25 -58 -64.5t-43 -72.5q-10 -28 -10 -40q0 -13 9 -13q11 0 35 23q22 21 74 97q16 21 24 21t8 -22q-2 -30 -2 -44t2 -32q9 -44 31 -44 q11 0 29 9q8 4 15.5 10t14 12t11 10.5l8.5 8.5l4 5q1 1 3 0t3 -3z" unicode=""/>
<glyph glyph-name="acircumflex" d="M284 278q0 -4 -2 -5q-5 0 -8 1q-6 2 -7 4l-37 58l-108 -58q-4 -4 -14 -4q-8 -2 -8 2v1l1 1l122 86q10 2 23 2q8 0 8 -2zM324 67q-3 -6 -17.5 -20.5t-41 -32t-49.5 -17.5q-8 0 -17 3q-37 13 -37 95v7l-4 -5q-3 -5 -9 -14.5t-14 -21t-17.5 -23t-19 -21t-20.5 -15.5t-20 -6 h-3q-32 4 -32 45q0 37 25 86.5t62 84.5q47 42 90 42q18 0 38 -9q17 -10 17 -30q0 -23 -19 -26q6 11 6 20q0 22 -25 22q-24 0 -52 -24q-29 -25 -58 -64.5t-43 -72.5q-10 -28 -10 -40q0 -13 9 -13q11 0 35 23q22 21 74 97q16 21 24 21t8 -22q-2 -30 -2 -44t2 -32q9 -44 31 -44 q11 0 29 9q8 4 15.5 10t14 12t11 10.5l8.5 8.5l4 5q1 1 3 0t3 -3z" unicode=""/>
<glyph glyph-name="atilde" d="M289 330q-21 -45 -52 -45h-4q-15 2 -34 11q-24 11 -34 11h-3q-16 0 -26 -19q-2 -2 -8 -1q-5 1 -5 2q24 43 51 43h4q16 -2 35 -11q21 -8 34 -10h2q19 0 28 20q1 2 7 2q6 -2 5 -3zM324 67q-3 -6 -17.5 -20.5t-41 -32t-49.5 -17.5q-8 0 -17 3q-37 13 -37 95v7l-4 -5 q-3 -5 -9 -14.5t-14 -21t-17.5 -23t-19 -21t-20.5 -15.5t-20 -6h-3q-32 4 -32 45q0 37 25 86.5t62 84.5q47 42 90 42q18 0 38 -9q17 -10 17 -30q0 -23 -19 -26q6 11 6 20q0 22 -25 22q-24 0 -52 -24q-29 -25 -58 -64.5t-43 -72.5q-10 -28 -10 -40q0 -13 9 -13q11 0 35 23 q22 21 74 97q16 21 24 21t8 -22q-2 -30 -2 -44t2 -32q9 -44 31 -44q11 0 29 9q8 4 15.5 10t14 12t11 10.5l8.5 8.5l4 5q1 1 3 0t3 -3z" unicode=""/>
<glyph glyph-name="adieresis" d="M185 318q0 -22 -21 -22q-23 0 -23 22t22 22t22 -22zM271 318q0 -22 -21 -22q-23 0 -23 22t22 22t22 -22zM324 67q-3 -6 -17.5 -20.5t-41 -32t-49.5 -17.5q-8 0 -17 3q-37 13 -37 95v7l-4 -5q-3 -5 -9 -14.5t-14 -21t-17.5 -23t-19 -21t-20.5 -15.5t-20 -6h-3 q-32 4 -32 45q0 37 25 86.5t62 84.5q47 42 90 42q18 0 38 -9q17 -10 17 -30q0 -23 -19 -26q6 11 6 20q0 22 -25 22q-24 0 -52 -24q-29 -25 -58 -64.5t-43 -72.5q-10 -28 -10 -40q0 -13 9 -13q11 0 35 23q22 21 74 97q16 21 24 21t8 -22q-2 -30 -2 -44t2 -32q9 -44 31 -44 q11 0 29 9q8 4 15.5 10t14 12t11 10.5l8.5 8.5l4 5q1 1 3 0t3 -3z" unicode=""/>
<glyph glyph-name="aring" d="M261 315q0 13 -9 22t-23 9q-12 0 -21 -9t-9 -22t9 -22t21 -9q14 0 23 9t9 22zM273 315q0 -18 -13 -30q-13 -13 -30 -13q-15 0 -30 13q-12 12 -12 30t12 30q15 13 30 13q17 0 30 -13q13 -12 13 -30zM324 67q-3 -6 -17.5 -20.5t-41 -32t-49.5 -17.5q-8 0 -17 3 q-37 13 -37 95v7l-4 -5q-3 -5 -9 -14.5t-14 -21t-17.5 -23t-19 -21t-20.5 -15.5t-20 -6h-3q-32 4 -32 45q0 37 25 86.5t62 84.5q47 42 90 42q18 0 38 -9q17 -10 17 -30q0 -23 -19 -26q6 11 6 20q0 22 -25 22q-24 0 -52 -24q-29 -25 -58 -64.5t-43 -72.5q-10 -28 -10 -40 q0 -13 9 -13q11 0 35 23q22 21 74 97q16 21 24 21t8 -22q-2 -30 -2 -44t2 -32q9 -44 31 -44q11 0 29 9q8 4 15.5 10t14 12t11 10.5l8.5 8.5l4 5q1 1 3 0t3 -3z" unicode=""/>
<glyph glyph-name="ae" horiz-adv-x="327" unicode="" d="M221 139q13 22 13 37q0 12 -8 12q-12 0 -38 -33q-24 -31 -38 -66q51 16 71 50zM133 165q-55 0 -95 -78q-11 -22 -11 -38q0 -18 12 -18q11 0 32 16q33 28 45 59q7 38 17 59zM344 77q-25 -30 -76 -56q-57 -30 -99 -30q-62 0 -62 68v10q-21 -28 -46 -48q-25 -22 -44 -22 q-24 0 -24 32q0 27 18 55q44 67 98 91q22 11 43 11q12 0 20 -4q24 21 47 21q33 0 33 -33q0 -20 -17 -43q-30 -37 -89 -52q-3 -13 -3 -24q0 -46 42 -46q34 0 83 28q43 23 67 50q13 15 13 1q0 -5 -4 -9z"/>
<glyph glyph-name="ccedilla" horiz-adv-x="199" unicode="" d="M142 -80q0 -28 -34 -50q-16 -12 -51 -12q-18 0 -48 7q-36 9 -36 24q0 5 4 5q2 0 10 -8q16 -16 57 -16q49 0 64 24q10 13 10 27q0 17 -17 29q-13 9 -33 9q-13 0 -31 -8l-17 -8q-13 0 -13 10q0 3 3 6l26 21q2 1 4 3.5t3 2.5q-30 12 -30 63q0 25 6 47q20 76 73 133 q23 25 50 25q20 0 36 -15q12 -9 12 -28q0 -4 -1 -6q-3 -7 -8 3q0 1 -1 3q-6 11 -22 11q-28 0 -57 -46t-43 -87q-9 -25 -9 -49q0 -39 30 -39q6 0 10 1q55 10 112 76q7 7 7 0q0 -4 -6 -12q-17 -21 -47.5 -44.5t-60.5 -33.5q-19 -6 -32 -6q-6 0 -9 1q-16 -12 -16 -14q18 2 26 2 q27 0 51 -11q28 -15 28 -40z"/>
<glyph glyph-name="egrave" horiz-adv-x="225" unicode="" d="M87 335q-6 6 -6 17q0 13 9 13q5 0 15 -8l84 -64q4 -3 4 -7q0 -7 -8 -7q-4 0 -6 1q-52 29 -92 55zM181 179q3 12 3 19q0 22 -17 22q-20 0 -44 -24q-28 -26 -43 -55q74 2 86 2q12 24 15 36zM243 70q-24 -28 -70.5 -55t-85.5 -27q-30 0 -49 18q-21 19 -21 65q0 7 2 25 q6 30 24.5 66.5t44.5 61.5q24 24 58 24q22 0 44 -13q19 -12 19 -35q0 -26 -22 -56h20q5 0 5 -1q0 -5 -36 -13q-10 -12 -20 -19q-16 -12 -15 -4q0 4 5 9l10 11q-81 -6 -86 -7q-10 -24 -11 -52v-6q0 -28 14 -42t34 -14q1 0 4 0.5t5 0.5q64 11 124 74q8 8 8 0q0 -5 -5 -11z"/>
<glyph glyph-name="eacute" horiz-adv-x="225" unicode="" d="M265 340q-5 -8 -63 -35q-54 -25 -61 -25h-1q-5 3 -2 9q14 10 44.5 33t37.5 28q14 10 27 10q4 0 12 -2q8 -5 8 -11q0 -1 -2 -7zM181 179q3 12 3 19q0 22 -17 22q-20 0 -44 -24q-28 -26 -43 -55q74 2 86 2q12 24 15 36zM243 70q-24 -28 -70.5 -55t-85.5 -27q-30 0 -49 18 q-21 19 -21 65q0 7 2 25q6 30 24.5 66.5t44.5 61.5q24 24 58 24q22 0 44 -13q19 -12 19 -35q0 -26 -22 -56h20q5 0 5 -1q0 -5 -36 -13q-10 -12 -20 -19q-16 -12 -15 -4q0 4 5 9l10 11q-81 -6 -86 -7q-10 -24 -11 -52v-6q0 -28 14 -42t34 -14q1 0 4 0.5t5 0.5q64 11 124 74 q8 8 8 0q0 -5 -5 -11z"/>
<glyph glyph-name="ecircumflex" horiz-adv-x="225" unicode="" d="M181 179q3 12 3 19q0 22 -17 22q-20 0 -44 -24q-28 -26 -43 -55q74 2 86 2q12 24 15 36zM239 273q0 -4 -2 -5q-5 0 -8 1q-6 2 -7 4l-37 58l-108 -58q-4 -4 -14 -4q-8 -2 -8 2q0 1 0.5 1t0.5 1l122 86q10 2 23 2q8 0 8 -2zM243 70q-24 -28 -70.5 -55t-85.5 -27 q-30 0 -49 18q-21 19 -21 65q0 7 2 25q6 30 24.5 66.5t44.5 61.5q24 24 58 24q22 0 44 -13q19 -12 19 -35q0 -26 -22 -56h20q5 0 5 -1q0 -5 -36 -13q-10 -12 -20 -19q-16 -12 -15 -4q0 4 5 9l10 11q-81 -6 -86 -7q-10 -24 -11 -52v-6q0 -28 14 -42t34 -14q1 0 4 0.5t5 0.5 q64 11 124 74q8 8 8 0q0 -5 -5 -11z"/>
<glyph glyph-name="edieresis" horiz-adv-x="225" unicode="" d="M156 314q0 -22 -21 -22q-23 0 -23 22t22 22t22 -22zM242 314q0 -22 -21 -22q-23 0 -23 22t22 22t22 -22zM181 179q3 12 3 19q0 22 -17 22q-20 0 -44 -24q-28 -26 -43 -55q74 2 86 2q12 24 15 36zM243 70q-24 -28 -70.5 -55t-85.5 -27q-30 0 -49 18q-21 19 -21 65 q0 7 2 25q6 30 24.5 66.5t44.5 61.5q24 24 58 24q22 0 44 -13q19 -12 19 -35q0 -26 -22 -56h20q5 0 5 -1q0 -5 -36 -13q-10 -12 -20 -19q-16 -12 -15 -4q0 4 5 9l10 11q-81 -6 -86 -7q-10 -24 -11 -52v-6q0 -28 14 -42t34 -14q1 0 4 0.5t5 0.5q64 11 124 74q8 8 8 0 q0 -5 -5 -11z"/>
<glyph glyph-name="igrave" horiz-adv-x="136" unicode="" d="M43 329q-6 6 -6 17q0 13 9 13q5 0 15 -8q6 -5 22 -16.5t31.5 -23.5t30.5 -24q4 -3 4 -7q0 -7 -8 -7q-4 0 -6 1q-52 29 -92 55zM180 86q-15 -25 -62 -60q-34 -25 -56 -25q-33 0 -33 57q0 15 1 24q2 18 9.5 47.5t15 56t8.5 30.5q1 7 21 7q22 0 22 -10q0 -11 -7.5 -30 t-17.5 -21q-2 0 -15 -86q-2 -16 -2 -22q0 -31 17 -31q11 0 31 17q59 48 61 51q8 6 8 -2q0 -2 -1 -3z"/>
<glyph glyph-name="iacute" horiz-adv-x="136" unicode="" d="M210 328q-5 -8 -63 -35q-54 -25 -61 -25h-1q-5 3 -2 9q14 10 44.5 33t37.5 28q14 10 27 10q4 0 12 -2q8 -5 8 -11q0 -1 -2 -7zM180 86q-15 -25 -62 -60q-34 -25 -56 -25q-33 0 -33 57q0 15 1 24q2 18 9.5 47.5t15 56t8.5 30.5q1 7 21 7q22 0 22 -10q0 -11 -7.5 -30 t-17.5 -21q-2 0 -15 -86q-2 -16 -2 -22q0 -31 17 -31q11 0 31 17q59 48 61 51q8 6 8 -2q0 -2 -1 -3z"/>
<glyph glyph-name="icircumflex" horiz-adv-x="136" unicode="" d="M172 243q0 -4 -2 -5q-5 0 -8 1q-6 2 -7 4l-37 58l-108 -58q-4 -4 -14 -4q-8 -2 -8 2q0 1 0.5 1t0.5 1l122 86q10 2 23 2q8 0 8 -2zM180 86q-15 -25 -62 -60q-34 -25 -56 -25q-33 0 -33 57q0 15 1 24q2 18 9.5 47.5t15 56t8.5 30.5q1 7 21 7q22 0 22 -10q0 -11 -7.5 -30 t-17.5 -21q-2 0 -15 -86q-2 -16 -2 -22q0 -31 17 -31q11 0 31 17q59 48 61 51q8 6 8 -2q0 -2 -1 -3z"/>
<glyph glyph-name="idieresis" horiz-adv-x="136" unicode="" d="M87 299q0 -22 -21 -22q-23 0 -23 22t22 22t22 -22zM173 299q0 -22 -21 -22q-23 0 -23 22t22 22t22 -22zM180 86q-15 -25 -62 -60q-34 -25 -56 -25q-33 0 -33 57q0 15 1 24q2 18 9.5 47.5t15 56t8.5 30.5q1 7 21 7q22 0 22 -10q0 -11 -7.5 -30t-17.5 -21q-2 0 -15 -86 q-2 -16 -2 -22q0 -31 17 -31q11 0 31 17q59 48 61 51q8 6 8 -2q0 -2 -1 -3z"/>
<glyph glyph-name="eth" horiz-adv-x="340" unicode="" d="M319 320l-4 3v-2l-2 3q-2 0 -2 5q1 6 5 19q5 18 5 28q0 37 -48 37q-60 0 -139 -74q-78 -75 -78 -135q0 -35 31 -35q23 0 63 20q35 17 57 34q15 11 39 38q34 37 37 40q1 3 6 3q8 0 17 -9q9 -10 9 -15q0 -4 -54 -88q-94 -148 -108 -219q-3 -13 -4 -17q-3 -11 -12 -11 q-8 0 -8 12q3 78 94 255q-38 -28 -70 -43q-47 -22 -78 -22q-54 0 -54 66v11q4 66 95 138q86 70 156 70q71 0 71 -55q0 -18 -8 -36q-9 -18 -16 -21z"/>
<glyph glyph-name="ntilde" horiz-adv-x="253" unicode="" d="M250 325q-21 -45 -52 -45h-4q-15 2 -34 11q-24 11 -34 11h-3q-16 0 -26 -19q-2 -2 -8 -1q-5 1 -5 2q24 43 51 43h4q16 -2 35 -11q21 -8 34 -10h2q19 0 28 20q1 2 7 2q6 -2 5 -3zM268 24q1 1 2 1q2 0 2 -4q0 -11 -10 -21q-24 -26 -57 -26q-7 0 -10 1q-40 7 -40 67 q0 20 4.5 45.5t9.5 44t11 36.5t6 20q-9 -12 -40.5 -47.5t-56.5 -65.5t-29 -42q-5 -14 -16.5 -23t-20.5 -9q-6 0 -6 6t14.5 64t14.5 98q0 5 -0.5 14t-0.5 13q0 13 13.5 23t25.5 10q13 0 13 -11l-1 -2v-3q-2 -10 -9 -47.5t-12.5 -64t-7.5 -30.5q59 54 127 160q4 7 19 7 q23 0 25 -10v-2q1 -1 1 -2q0 -7 -4.5 -20t-12.5 -36t-13 -45q-15 -64 -15 -99q0 -37 16 -37h2q29 4 56 37z"/>
<glyph glyph-name="ograve" horiz-adv-x="235" unicode="" d="M95 350q-6 6 -6 17q0 13 9 13q5 0 15 -8l84 -64q4 -3 4 -7q0 -7 -8 -7q-4 0 -6 1q-52 29 -92 55zM183 169q-19 3 -30 14t-12 20l-1 9q-17 -4 -37 -39t-31 -76q-7 -25 -7 -46q0 -43 26 -43q27 0 56 47q15 24 25.5 57.5t10.5 51.5v5zM293 185q3 0 3 -2q0 -6 -11 -12 q-22 -11 -54 -11q-20 0 -28 4q2 -15 -8.5 -47.5t-27.5 -61.5q-38 -67 -82 -67q-25 0 -41.5 23t-16.5 59q0 26 11 59q37 112 91 117q6 7 17 7q19 0 39 -17t22 -39q14 -16 38 -16q8 0 24.5 2t23.5 2z"/>
<glyph glyph-name="oacute" horiz-adv-x="235" unicode="" d="M256 360q-5 -8 -63 -35q-54 -25 -61 -25h-1q-5 3 -2 9q14 10 44.5 33t37.5 28q14 10 27 10q4 0 12 -2q12 -6 6 -18zM183 169q-19 3 -30 14t-12 20l-1 9q-17 -4 -37 -39t-31 -76q-7 -25 -7 -46q0 -43 26 -43q27 0 56 47q15 24 25.5 57.5t10.5 51.5v5zM293 185q3 0 3 -2 q0 -6 -11 -12q-22 -11 -54 -11q-20 0 -28 4q2 -15 -8.5 -47.5t-27.5 -61.5q-38 -67 -82 -67q-25 0 -41.5 23t-16.5 59q0 26 11 59q37 112 91 117q6 7 17 7q19 0 39 -17t22 -39q14 -16 38 -16q8 0 24.5 2t23.5 2z"/>
<glyph glyph-name="ocircumflex" horiz-adv-x="235" unicode="" d="M241 266q0 -4 -2 -5q-5 0 -8 1q-6 2 -7 4l-37 58l-108 -58q-4 -4 -14 -4q-8 -2 -8 2l1 1v1l122 86q10 2 23 2q8 0 8 -2zM183 169q-19 3 -30 14t-12 20l-1 9q-17 -4 -37 -39t-31 -76q-7 -25 -7 -46q0 -43 26 -43q27 0 56 47q15 24 25.5 57.5t10.5 51.5v5zM293 185 q3 0 3 -2q0 -6 -11 -12q-22 -11 -54 -11q-20 0 -28 4q2 -15 -8.5 -47.5t-27.5 -61.5q-38 -67 -82 -67q-25 0 -41.5 23t-16.5 59q0 26 11 59q37 112 91 117q6 7 17 7q19 0 39 -17t22 -39q14 -16 38 -16q8 0 24.5 2t23.5 2z"/>
<glyph glyph-name="otilde" horiz-adv-x="235" unicode="" d="M252 335q-21 -45 -52 -45h-4q-15 2 -34 11q-24 11 -34 11h-3q-16 0 -26 -19q-2 -2 -8 -1q-5 1 -5 2q24 43 51 43h4q16 -2 35 -11q21 -8 34 -10h2q19 0 28 20q1 2 7 2q6 -2 5 -3zM183 169q-19 3 -30 14t-12 20l-1 9q-17 -4 -37 -39t-31 -76q-7 -25 -7 -46q0 -43 26 -43 q27 0 56 47q15 24 25.5 57.5t10.5 51.5v5zM293 185q3 0 3 -2q0 -6 -11 -12q-22 -11 -54 -11q-20 0 -28 4q2 -15 -8.5 -47.5t-27.5 -61.5q-38 -67 -82 -67q-25 0 -41.5 23t-16.5 59q0 26 11 59q37 112 91 117q6 7 17 7q19 0 39 -17t22 -39q14 -16 38 -16q8 0 24.5 2t23.5 2z "/>
<glyph glyph-name="odieresis" horiz-adv-x="235" unicode="" d="M147 316q0 -22 -21 -22q-23 0 -23 22t22 22t22 -22zM233 316q0 -22 -21 -22q-23 0 -23 22t22 22t22 -22zM183 169q-19 3 -30 14t-12 20l-1 9q-17 -4 -37 -39t-31 -76q-7 -25 -7 -46q0 -43 26 -43q27 0 56 47q15 24 25.5 57.5t10.5 51.5v5zM293 185q3 0 3 -2q0 -6 -11 -12 q-22 -11 -54 -11q-20 0 -28 4q2 -15 -8.5 -47.5t-27.5 -61.5q-38 -67 -82 -67q-25 0 -41.5 23t-16.5 59q0 26 11 59q37 112 91 117q6 7 17 7q19 0 39 -17t22 -39q14 -16 38 -16q8 0 24.5 2t23.5 2z"/>
<glyph glyph-name="divide" horiz-adv-x="160" unicode="" d="M131 27q0 -13 -10 -22q-9 -9 -22 -9q-14 0 -23 9t-9 22q0 12 9 21t23 9q13 0 22 -9q10 -9 10 -21zM187 242q0 -13 -9 -22q-10 -9 -23 -9t-23 9q-9 9 -9 22t9 22q10 9 23 9t23 -9q9 -9 9 -22zM224 138l-229 1v14h229v-15z"/>
<glyph glyph-name="oslash" horiz-adv-x="333" unicode=""/>
<glyph glyph-name="ugrave" horiz-adv-x="281" unicode="" d="M119 313q-6 6 -6 17q0 13 9 13q5 0 15 -8q6 -5 22 -16.5t31.5 -23.5t30.5 -24q4 -3 4 -7q0 -7 -8 -7q-4 0 -6 1q-52 29 -92 55zM340 67q-2 -5 -16.5 -20.5t-41 -32.5t-49.5 -17q-8 0 -17 3q-18 6 -28.5 35t-12.5 54.5t-1 26.5l-4 -6q-3 -6 -10 -16.5t-15.5 -23.5 t-18.5 -26t-20.5 -23.5t-21.5 -17.5t-20 -7h-3q-38 6 -38 53q0 74 73 183q5 8 25 8q31 0 31 -10q0 -1 -1 -2q-24 -24 -50.5 -72t-39.5 -85q-7 -23 -7 -33q0 -20 13 -20q15 0 37 22q8 7 19 22t20 27.5t22 33t19 28.5q13 20 23 20q8 0 8 -17v-5v-27q0 -105 41 -105q9 0 25 8 q8 4 15.5 10t14 12t11 10.5l8.5 8.5l4 5z"/>
<glyph glyph-name="uacute" horiz-adv-x="281" unicode="" d="M291 318q-5 -8 -63 -35q-54 -25 -61 -25h-1q-5 3 -2 9q14 10 44.5 33t37.5 28q14 10 27 10q4 0 12 -2q12 -6 6 -18zM340 67q-2 -5 -16.5 -20.5t-41 -32.5t-49.5 -17q-8 0 -17 3q-18 6 -28.5 35t-12.5 54.5t-1 26.5l-4 -6q-3 -6 -10 -16.5t-15.5 -23.5t-18.5 -26 t-20.5 -23.5t-21.5 -17.5t-20 -7h-3q-38 6 -38 53q0 74 73 183q5 8 25 8q31 0 31 -10q0 -1 -1 -2q-24 -24 -50.5 -72t-39.5 -85q-7 -23 -7 -33q0 -20 13 -20q15 0 37 22q8 7 19 22t20 27.5t22 33t19 28.5q13 20 23 20q8 0 8 -17v-5v-27q0 -105 41 -105q9 0 25 8q8 4 15.5 10 t14 12t11 10.5l8.5 8.5l4 5z"/>
<glyph glyph-name="ucircumflex" horiz-adv-x="281" unicode="" d="M271 258q0 -4 -2 -5q-5 0 -8 1q-6 2 -7 4l-37 58l-108 -58q-4 -4 -14 -4q-8 -2 -8 2l1 1v1l122 86q10 2 23 2q8 0 8 -2zM340 67q-2 -5 -16.5 -20.5t-41 -32.5t-49.5 -17q-8 0 -17 3q-18 6 -28.5 35t-12.5 54.5t-1 26.5l-4 -6q-3 -6 -10 -16.5t-15.5 -23.5t-18.5 -26 t-20.5 -23.5t-21.5 -17.5t-20 -7h-3q-38 6 -38 53q0 74 73 183q5 8 25 8q31 0 31 -10q0 -1 -1 -2q-24 -24 -50.5 -72t-39.5 -85q-7 -23 -7 -33q0 -20 13 -20q15 0 37 22q8 7 19 22t20 27.5t22 33t19 28.5q13 20 23 20q8 0 8 -17v-5v-27q0 -105 41 -105q9 0 25 8q8 4 15.5 10 t14 12t11 10.5l8.5 8.5l4 5z"/>
<glyph glyph-name="udieresis" horiz-adv-x="281" unicode="" d="M183 277q0 -22 -21 -22q-23 0 -23 22t22 22t22 -22zM269 277q0 -22 -21 -22q-23 0 -23 22t22 22t22 -22zM340 67q-2 -5 -16.5 -20.5t-41 -32.5t-49.5 -17q-8 0 -17 3q-18 6 -28.5 35t-12.5 54.5t-1 26.5l-4 -6q-3 -6 -10 -16.5t-15.5 -23.5t-18.5 -26t-20.5 -23.5 t-21.5 -17.5t-20 -7h-3q-38 6 -38 53q0 74 73 183q5 8 25 8q31 0 31 -10q0 -1 -1 -2q-24 -24 -50.5 -72t-39.5 -85q-7 -23 -7 -33q0 -20 13 -20q15 0 37 22q8 7 19 22t20 27.5t22 33t19 28.5q13 20 23 20q8 0 8 -17v-5v-27q0 -105 41 -105q9 0 25 8q8 4 15.5 10t14 12 t11 10.5l8.5 8.5l4 5z"/>
<glyph glyph-name="yacute" horiz-adv-x="242" unicode="" d="M183 335q-5 -8 -63 -35q-54 -25 -61 -25h-1q-5 3 -2 9q14 10 44.5 33t37.5 28q14 10 27 10q4 0 12 -2q12 -6 6 -18zM136 -31q-68 -16 -177 -60.5t-161 -79.5q-56 -37 -56 -80q0 -9 3 -18q19 -55 105 -55q10 0 26 2q30 4 56.5 15t46 23.5t39 35t31.5 38.5t27 45.5t22 44 t20 47t18 42.5zM225 208q0 -28 -18 -107t-31 -108q31 7 34 24q1 6 4.5 9t6 0.5t1.5 -10.5q-4 -29 -54 -41q-30 -83 -84.5 -163.5t-117.5 -123.5q-46 -31 -96 -39q-16 -2 -24 -2q-39 0 -68.5 19t-41.5 55q-5 14 -5 33q0 61 61 103q90 61 349 128q7 17 14 49t16 79t10 53 q-41 -74 -87 -128q-4 -13 -16.5 -26t-20.5 -13q-6 0 -6 10q0 7 1 12q15 68 15 102q0 44 -22 44q-10 0 -22 -8q-9 -6 -10.5 -0.5t8.5 12.5q26 19 45 19q10 0 17 -4q19 -11 19 -59q0 -14 -1.5 -29t-3 -23.5t-2.5 -9.5q0 -7 89 118q5 33 28 33q13 0 13 -8z"/>
<glyph glyph-name="thorn" horiz-adv-x="250" unicode="" d="M162 109q-37 -32 -53 -57q-8 -13 -8 -23q0 -12 12 -12q21 0 36 27q14 27 14 56q0 2 -0.5 5t-0.5 4zM239 149q-42 -25 -42 -26q-2 -54 -24 -85t-56 -40q-12 -2 -15 -2q-22 0 -22 23q0 26 23 54q4 5 19 17t28 22l12 11q0 20 -16 56.5t-34 40.5q-1 0 -27 -73t-54 -165 t-32 -131q0 -4 -1.5 -13t-2.5 -18t-1 -17q0 -37 25 -41q10 -2 10 -6q0 -2 -7 -2q-8 0 -14 1q-20 3 -33.5 26.5t-13.5 53.5q0 13 3 25q10 47 39 139t53 161l25 68q-1 0 -4 1.5t-4.5 2t-3 2.5t-0.5 4q2 8 8 13.5t10.5 8t4.5 1.5q94 270 98 296q0 1 0.5 3t0.5 3q0 5 -1.5 8.5 t-3.5 5.5t-4.5 4t-3.5 3q-6 3 0 5q2 1 6 1h4q20 -5 30 -16t8 -19l-101 -304q61 -39 71 -110h1q2 0 8.5 3.5t17 9.5t16.5 9t9 3t3 -2q0 -7 -12 -15z"/>
<glyph glyph-name="hbar" horiz-adv-x="242" unicode="" d="M205 356l-14 -32h-72l-29 -80q67 19 173.5 68.5t156.5 87.5q52 40 52 81q0 11 -4 20q-19 50 -96 50q-15 0 -37 -4q-77 -15 -124 -65t-79 -126h73zM477 512q7 -17 7 -37q0 -57 -57 -101q-40 -31 -107 -61.5t-109.5 -45t-124.5 -40.5q-16 -43 -34 -160q14 21 44 59.5 t39 50.5q3 13 15 27t20 14q7 0 7 -12q0 -6 -1 -10q-12 -76 -12 -108q0 -64 23 -64q13 0 31 14q13 9 26.5 24t23.5 27.5t11 13.5q2 2 4 -4l1 -2q-7 -17 -46.5 -58t-71.5 -41q-10 0 -18 4q-24 12 -24 79l5 66q0 1 -2.5 -1.5t-8 -9t-11.5 -13.5t-14 -18t-14.5 -18.5t-15.5 -19 t-13 -17.5q-1 -23 -13 -38t-20 -15q-3 0 -3 8q0 33 13 108.5t24 103.5q-31 -8 -33 -25q-2 -11 -7 -11q-4 0 -4 9q0 30 51 45q12 42 34 89h-56l14 32h57q62 120 138 176q43 34 94 45q15 3 31 3q80 0 107 -68z"/>
<glyph glyph-name="Itilde" horiz-adv-x="441" unicode="" d="M478 628q-21 -45 -52 -45h-4q-15 2 -34 11q-24 11 -34 11h-3q-16 0 -26 -19q-2 -2 -8 -1q-5 1 -5 2q24 43 51 43h4q16 -2 35 -11q21 -8 34 -10h2q19 0 28 20q1 2 7 2q6 -2 5 -3zM409 27q14 -6 24.5 -16.5t10.5 -19.5q0 -15 -27 -15q-15 0 -32 4q-73 14 -138 18 q-26 -33 -51 -46q-11 -7 -27 -7q-12 0 -25 5q-38 -42 -77 -62q-28 -15 -56 -15t-39 18q-1 1 -1 3q0 3 2.5 4t4.5 -1q13 -16 36 -16t53 16q37 20 68 57q-16 7 -27.5 18t-11.5 17q0 4 5 4q3 0 4.5 -2t4.5 -6.5t8 -7.5q12 -10 25 -13q16 19 26 36q-141 -3 -141 -47 q0 -10 10 -22.5t20 -18.5q8 -5 -2 -6q-8 -1 -14 3q-41 28 -41 51q0 64 172 64q7 0 10 -1q27 46 49 107q-2 0 -7 -0.5t-8 -0.5q-77 0 -137 52t-73 151q-4 36 -4 52q0 98 48 155t112 57q39 0 73 -23.5t52 -68.5h17h31q20 0 30 1q17 21 29 21q10 0 11 -20q95 -4 106 -14 q2 -2 3 -4q0 -1 1 -2v-2q0 -4 -5 -4q-1 0 -10 1t-17 1t-38.5 0.5t-43.5 0.5q-25 -171 -70 -307q51 36 61 90q1 5 5 1q3 -2 2 -5q-16 -65 -73 -101q-31 -89 -66 -143q68 -8 130 -23q16 -4 29 -4q12 0 12 5q0 8 -28 26q-4 3 0 5q2 1 5 0zM214 -1q-11 1 -31 1h-1 q-11 -18 -27 -37q3 0 11 2q24 6 48 34zM197 23q10 0 32 -2q30 46 55 119q-13 -4 -35 -8q-19 -53 -52 -109zM295 482q6 -22 9 -50q1 -10 1 -33q0 -116 -51 -256q20 4 34 10q28 85 46.5 181t19.5 148q-5 0 -15.5 0.5t-15.5 0.5t-14.5 -0.5t-13.5 -0.5zM235 140q47 135 47 253 q0 15 -2 41q-2 19 -8 46q-86 -9 -133.5 -40t-47.5 -69q0 -29 29 -53t83 -33q7 -2 2 -6.5t-12 -2.5q-137 40 -137 107q0 41 57 75t152 44q-16 42 -44 63.5t-61 21.5q-56 0 -98.5 -54.5t-42.5 -146.5q0 -30 4 -55q13 -96 67.5 -144t124.5 -48q13 0 20 1z"/>
<glyph glyph-name="itilde" horiz-adv-x="136" unicode="" d="M137 288h-4q-15 2 -34 11q-24 11 -34 11h-3q-16 0 -26 -19q-2 -2 -8 -1q-5 0 -5 1v1q24 43 51 43h4q16 -2 35 -11q21 -8 34 -10h2q19 0 28 20q1 2 7 2l5 -2q0 -20 -20 -33t-32 -13zM180 86q-15 -25 -62 -60q-34 -25 -56 -25q-33 0 -33 57q0 15 1 24q2 18 9.5 47.5t15 56 t8.5 30.5q1 7 21 7q22 0 22 -10q0 -11 -7.5 -30t-17.5 -21q-2 0 -15 -86q-2 -16 -2 -22q0 -31 17 -31q11 0 31 17q59 48 61 51q8 6 8 -2q0 -2 -1 -3z"/>
<glyph glyph-name="dotlessi" horiz-adv-x="136" unicode="" d="M180 86q-15 -25 -62 -60q-34 -25 -56 -25q-33 0 -33 57q0 15 1 24q2 18 9.5 47.5t15 56t8.5 30.5q1 7 21 7q22 0 22 -10q0 -11 -7.5 -30t-17.5 -21q-2 0 -15 -86q-2 -16 -2 -22q0 -31 17 -31q11 0 31 17q59 48 61 51q8 6 8 -2q0 -2 -1 -3z"/>
<glyph glyph-name="IJ" horiz-adv-x="862" unicode="" d="M214 -1q-11 1 -31 1h-1q-11 -18 -27 -37q3 0 11 2q24 6 48 34zM197 23q10 0 32 -2q30 46 55 119q-13 -4 -35 -8q-19 -53 -52 -109zM295 482q6 -22 9 -50q1 -10 1 -33q0 -116 -51 -256q20 4 34 10q28 85 46.5 181t19.5 148q-5 0 -15.5 0.5t-15.5 0.5t-14.5 -0.5 t-13.5 -0.5zM702 422q46 -60 46 -159q0 -48 -13 -108l42 7q62 189 74 319q-94 -7 -110 -11q-35 -9 -64 -20q17 -17 25 -28zM235 140q47 135 47 253q0 15 -2 41q-2 19 -8 46q-86 -9 -133.5 -40t-47.5 -69q0 -29 29 -53t83 -33q7 -2 2 -6.5t-12 -2.5q-137 40 -137 107 q0 41 57 75t152 44q-16 42 -44 63.5t-61 21.5q-56 0 -98.5 -54.5t-42.5 -146.5q0 -30 4 -55q13 -96 67.5 -144t124.5 -48q13 0 20 1zM772 147q-17 -2 -41 -8q-38 -150 -137.5 -266t-206.5 -116q-9 0 -25 2q-2 0 -3 2t0.5 4t3.5 2q16 -2 24 -2q104 0 199 112.5t132 257.5 q-171 -45 -275 -140q3 -15 -18 -18q-4 -4 -5 -6q-94 -100 -94 -175q0 -32 20 -51t55 -19q68 0 157 62q116 81 214 359zM722 152q12 54 12 105q0 97 -45 158q-15 18 -27 29q-84 -39 -84 -100q0 -43 40.5 -77t94.5 -39q8 -1 2.5 -7t-13.5 -5q-76 15 -117.5 48.5t-41.5 75.5 q0 70 97 119q-25 13 -51 13q-35 0 -66 -21q-61 -39 -61 -128q0 -62 34.5 -109t92.5 -49q15 -1 14 -4t-15 -2q-64 3 -102 50.5t-38 110.5q0 91 71 138q34 23 76 23q32 0 59 -15q21 9 52 19q42 12 136 18l20 2l6 5q6 5 13.5 10t12.5 5t6 -4q1 -2 1 -6v-6.5t1 -2.5 q94 -4 105 -14q3 -2 3 -4v-2l1 -2q0 -4 -5 -4q-1 0 -10 1t-17 1l-81 1q-18 -145 -79 -315l44 3h9q15 0 15 -4q0 -7 -18 -7q-27 -2 -54 -6q-110 -305 -244 -388q-92 -58 -164 -58q-48 0 -75 26.5t-27 70.5q0 84 87 174q-3 1 -7 1q-73 14 -138 18q-26 -33 -51 -46 q-11 -7 -27 -7q-12 0 -25 5q-38 -42 -77 -62q-28 -15 -56 -15t-39 18q-1 1 -1 3q0 3 2.5 4t4.5 -1q13 -16 36 -16t53 16q37 20 68 57q-16 7 -27.5 18t-11.5 17q0 4 5 4q3 0 4.5 -2t4.5 -6.5t8 -7.5q12 -10 25 -13q16 19 26 36q-141 -3 -141 -47q0 -10 10 -22.5t20 -18.5 q8 -5 -2 -6q-8 -1 -14 3q-41 28 -41 51q0 64 172 64q7 0 10 -1q27 46 49 107q-2 0 -7 -0.5t-8 -0.5q-77 0 -137 52t-73 151q-4 36 -4 52q0 98 48 155t112 57q39 0 73 -23.5t52 -68.5h17h31q20 0 30 1q17 21 29 21q10 0 11 -20q95 -4 106 -14q2 -2 3 -4q0 -1 1 -2v-2 q0 -4 -5 -4q-1 0 -10 1t-17 1t-38.5 0.5t-43.5 0.5q-25 -171 -70 -307q51 36 61 90q1 5 5 1q3 -2 2 -5q-16 -65 -73 -101q-31 -89 -66 -143q68 -8 130 -23l14 -3l13 12l5 4q-12 10 -19 14q-4 3 0 5q2 1 5 0q9 -4 20 -13q117 99 293 138z"/>
<glyph glyph-name="ij" horiz-adv-x="272" unicode="" d="M145 303q0 -5 -12 -19.5t-22 -17.5q-1 0 -3 -0.5t-3 -0.5q-8 0 -16.5 3.5t-8.5 7.5q0 1 1 2q35 29 58 29q6 0 6 -4zM278 303q0 -5 -12.5 -19.5t-22.5 -17.5q-1 0 -3 -0.5t-3 -0.5q-8 0 -16.5 3.5t-8.5 7.5q0 1 1 2q35 29 59 29q6 0 6 -4zM206 154q-4 -20 -13.5 -68 t-16 -78.5t-19.5 -69t-28 -63.5q-17 -27 -45 -46.5t-61 -19.5q-17 0 -33 6q-13 3 -13 23q0 7 1 11q1 9 5 10t4 -9q-1 -10 8 -20t25 -10h2q28 1 53 31q51 60 89 219q-21 -22 -50 -44q-34 -25 -56 -25q-32 0 -32 56q0 16 1 25q3 28 33 134q1 7 20 7q23 0 23 -11t-7.5 -29.5 t-17.5 -20.5q-5 -1 -15 -86q-2 -16 -2 -23q0 -30 16 -30q12 0 32 17q55 45 59 49q7 31 13.5 64.5t9.5 52.5t4 21q1 4 10 4t19 -3.5t10 -6.5q0 -4 -2.5 -17.5t-9.5 -30.5t-16 -19z"/>
<glyph glyph-name="Jcircumflex" horiz-adv-x="421" unicode="" d="M536 546q0 -4 -2 -5q-5 0 -8 1q-6 2 -7 4l-37 58l-108 -58q-4 -4 -14 -4q-8 -2 -8 2v1l1 1l122 86q10 2 23 2q8 0 8 -2zM261 422q46 -60 46 -159q0 -48 -13 -108l42 7q62 189 74 319q-94 -7 -110 -11q-35 -9 -64 -20q17 -17 25 -28zM331 147q-17 -2 -41 -8 q-38 -150 -137.5 -266t-206.5 -116q-9 0 -25 2q-3 0 -3 3q0 5 4 5q16 -2 24 -2q104 0 199 112.5t132 257.5q-194 -50 -298 -164q-94 -100 -94 -175q0 -32 20 -51t55 -19q68 0 157 62q116 81 214 359zM281 152q12 54 12 105q0 97 -45 158q-15 18 -27 29q-84 -39 -84 -100 q0 -43 40.5 -77t94.5 -39q8 -1 2.5 -7t-13.5 -5q-76 15 -117.5 48.5t-41.5 75.5q0 70 97 119q-25 13 -51 13q-34 0 -66 -21q-61 -39 -61 -128q0 -62 34.5 -109t92.5 -49q15 -1 14 -4t-15 -2q-64 3 -102 50.5t-38 110.5q0 91 71 138q34 23 76 23q32 0 59 -15q21 9 52 19 q42 12 136 18l20 2l6 5q6 5 13.5 10t12.5 5t6 -4q1 -2 1 -6v-6.5t1 -2.5q94 -4 105 -14q3 -2 3 -4q0 -1 1 -2v-2q0 -4 -5 -4q-1 0 -10 1t-17 1l-81 1q-18 -145 -79 -315l44 3h9q15 0 15 -4q0 -7 -18 -7q-27 -2 -54 -6q-110 -305 -244 -388q-92 -58 -164 -58q-48 0 -75 26.5 t-27 70.5t28.5 96.5t84.5 102.5q120 108 304 148z"/>
<glyph glyph-name="jcircumflex" horiz-adv-x="138" unicode="" d="M191 272q0 -4 -2 -5q-5 0 -8 1q-6 2 -7 4l-37 58l-108 -58q-4 -4 -14 -4q-8 -2 -8 2l1 1v1l122 86q10 2 23 2q8 0 8 -2zM92 154q-4 -20 -13.5 -68t-16 -78.5t-19.5 -69t-28 -63.5q-17 -27 -45 -46.5t-61 -19.5q-17 0 -33 6q-13 3 -13 23q0 7 1 11q1 9 5 10t4 -9 q-1 -10 8 -20t25 -10h2q28 1 53 31q19 22 36.5 59.5t29.5 76.5t23 82.5t16.5 75t9.5 57.5l5 25q1 4 10 4t19 -3.5t10 -6.5q0 -4 -2.5 -17.5t-9.5 -30.5t-16 -19z"/>
<glyph glyph-name="kcommaaccent" horiz-adv-x="207" unicode="" d="M99 -79q0 -25 -41 -71t-69 -54h-1q-2 0 -2 2q0 6 13 21q19 19 51 71q-18 3 -18 28q0 12 11 23q11 10 31 10q11 0 18 -8t7 -22zM285 486q5 -8 5 -10q0 -7 -11 0q-20 18 -51 18h-4q-44 0 -85 -77t-64.5 -170t-33.5 -176q13 42 31 73l-4 12q-2 8 -2 12q0 13 5 13t11 -17v-1 q27 45 59 77q47 46 101 46q28 0 37 -16q3 -5 -3 -7q-3 -1 -5 2q-3 6 -13 6q-35 0 -102 -62q-35 -35 -62 -70q23 -42 69 -84t81 -50l2 -1q0 -1 -5.5 -2.5t-15 -3t-17.5 -1.5q-12 0 -21 3q-2 1 -8 3t-8.5 3t-7.5 4t-8.5 6t-8.5 8.5t-11 12.5q-31 40 -53 85q-36 -54 -45 -111 v-5q0 -9 -4 -9q-5 0 -17 12l-13 13q0 32 17.5 123t42.5 172q44 144 126 186q22 12 44 12q33 0 52 -29z"/>
<glyph glyph-name="kgreenlandic" horiz-adv-x="207" unicode="" d="M250 377q6 -9 4.5 -11.5t-4.5 -1.5t-6 3q-20 18 -51 18h-4q-112 -1 -148 -314q13 42 31 73l-4 12q-2 8 -2 12q0 13 5 13t11 -17v-1q27 45 59 77q47 46 101 46q28 0 37 -16l1 -1v-1q0 -3 -3.5 -4.5t-5.5 1.5q-3 6 -13 6q-35 0 -102 -62q-35 -35 -62 -70q23 -42 69 -84 t81 -50l2 -1q0 -1 -5.5 -2.5t-15 -3t-17.5 -1.5q-12 0 -21 3q-2 1 -8 3t-8.5 3t-7.5 4t-8.5 6t-8.5 8.5t-11 12.5q-31 40 -53 85q-36 -54 -45 -111v-5q0 -9 -4 -9q-5 0 -17 12l-13 13q0 50 25 186q11 62 45.5 112t80.5 74q22 12 44 12q33 0 52 -29z"/>
<glyph glyph-name="Ldotaccent" horiz-adv-x="433" unicode="" d="M299 242q-16 -4 -35 -4q-8 -32 -13 -48q18 2 39 6zM437 135q0 -13 -9 -20q-9 -9 -23 -9q-13 0 -22 9q-10 7 -10 20t10 22q9 9 22 9q14 0 23 -9t9 -22zM245 172q-14 -39 -26 -64l34 -18q10 20 32 89q-14 -3 -40 -7zM251 238q-82 3 -132 59q0 -1 -0.5 -5t-0.5 -5 q0 -44 37 -70.5t83 -26.5q5 16 13 48zM243 71q-15 8 -35 18q-43 -71 -99 -71h-4q-5 0 -5 4t4 4h4q53 0 91 67q-54 24 -76 28q-9 2 -26 2q-34 0 -52.5 -16.5t-18.5 -39.5q0 -25 20.5 -45.5t58.5 -24.5q7 -1 19 -1q39 0 68.5 19t39.5 37zM495 367q31 68 31 130q0 64 -30 64 q-23 0 -57.5 -52t-75.5 -162q-14 -37 -28 -83q58 30 92 99q2 5 6 1q3 -2 1 -4q-38 -77 -102 -107l-17 -50q123 34 180 164zM253 246q19 91 19 157q0 87 -26 130t-64 43q-37 0 -66.5 -38t-29.5 -96q0 -55 28 -111q16 27 43 45q7 5 9 1q1 -1 -1 -2q-32 -26 -43 -60 q20 -31 56 -49.5t75 -19.5zM105 315q-35 51 -35 117q0 47 20 86t57 58q18 9 36 9q43 0 74 -46.5t31 -135.5q0 -68 -22 -157q15 0 35 5q31 163 71 234q54 100 108 100q30 0 48.5 -32.5t18.5 -81.5q0 -60 -27 -115q-27 -56 -82 -103.5t-129 -69.5q-17 -56 -40 -103 q18 -11 47 -27t101 -45.5t122 -34.5q2 0 6.5 -0.5t7.5 -0.5q58 0 73 41q4 9 8 7q2 0 2 -3t-1 -5q-12 -34 -45.5 -50t-71.5 -16q-12 0 -18 1q-45 5 -105.5 33.5t-98.5 54.5l-37 26q-51 -78 -126 -78q-14 0 -31 3q-52 9 -80 39t-28 64q0 30 21 50t59 20q12 0 27 -3 q38 -8 109 -43q11 22 23 58h-12q-60 0 -94.5 25t-34.5 67q0 25 13 52z"/>
<glyph glyph-name="ldot" horiz-adv-x="300" unicode="" d="M255 204q0 -12 -9 -20q-9 -9 -23 -9q-13 0 -22 9q-10 7 -10 20t10 22q9 9 22 9q14 0 23 -9t9 -22zM267 481q0 25 -14 25q-16 0 -39 -28q-29 -34 -69.5 -124.5t-58.5 -150.5q56 53 118.5 139t62.5 139zM83 181q-23 -81 -23 -124q0 -30 12 -39q7 -5 18 -5q23 0 55 18t50 41 q6 9 11 9q2 0 2 -4q0 -10 -6 -18q-15 -20 -56 -42t-69 -22q-7 0 -10 1q-39 10 -39 68q0 35 9 74h-4q-6 0 -6 5q0 9 18 28q60 250 158 332q23 18 45 18q15 0 24.5 -9t9.5 -26q0 -32 -15 -69.5t-31.5 -63.5t-51.5 -66t-49.5 -54.5z"/>
<glyph glyph-name="Lslash" horiz-adv-x="433" unicode="" d="M210 113l3 6q-5 -1 -13 -1zM245 172l-7 -19l38 -3l9 29q-14 -3 -40 -7zM253 90q9 17 14 32l-43 -2l-5 -12zM299 242q-16 -4 -35 -4q-8 -32 -13 -48q18 2 39 6zM251 238q-82 3 -132 59q0 -1 -0.5 -5t-0.5 -5q0 -44 37 -70.5t83 -26.5q5 16 13 48zM243 71q-15 8 -35 18 q-43 -71 -99 -71h-4q-6 0 -4 5q0 3 3 3h4q53 0 91 67q-45 19 -52 21q-36 -2 -47 -2h-6q-22 0 -22 8q-46 -12 -46 -54q0 -24 21 -44.5t58 -24.5q7 -1 19 -1q39 0 68.5 19t39.5 37zM495 367q31 68 31 130q0 64 -30 64q-23 0 -57.5 -52t-75.5 -162q-14 -37 -28 -83q58 30 92 99 q2 5 6 1q3 -2 1 -4q-38 -77 -102 -107l-17 -50q123 34 180 164zM253 246q19 91 19 157q0 87 -26 130t-64 43q-37 0 -66.5 -38t-29.5 -96q0 -55 28 -111q16 27 43 45q7 5 9 1q1 -1 -1 -2q-32 -26 -43 -60q20 -31 56 -49.5t75 -19.5zM331 125l-43 -2l-19 -43q18 -11 47 -27 t101 -45.5t122 -34.5q2 0 6.5 -0.5t7.5 -0.5q58 0 73 41q4 9 8 7q2 0 2 -3t-1 -5q-12 -34 -45.5 -50t-71.5 -16q-12 0 -18 1q-45 5 -105.5 33.5t-98.5 54.5l-37 26q-51 -78 -126 -78q-14 0 -31 3q-52 9 -80 39t-28 64q0 30 21 50t59 20q12 0 27 -3q2 -1 9 -2.5t11 -3.5 q17 4 60 4q31 0 46 -1l6 18h-12q-60 0 -94.5 25t-34.5 67q0 25 13 52q-35 51 -35 117q0 47 20 86t57 58q18 9 36 9q43 0 74 -46.5t31 -135.5q0 -68 -22 -157q15 0 35 5q31 163 71 234q54 100 108 100q30 0 48.5 -32.5t18.5 -81.5q0 -60 -27 -115q-27 -56 -82 -103.5 t-129 -69.5l-11 -34l33 -4q29 -3 29 -11t-29 -9z"/>
<glyph glyph-name="lslash" horiz-adv-x="166" unicode="" d="M267 481q0 25 -14 25q-16 0 -39 -28q-29 -34 -69.5 -124.5t-58.5 -150.5q56 53 118.5 139t62.5 139zM198 125q-56 -2 -116 -6q-2 -1 -7 -1h-7q-8 -44 -8 -62q0 -29 12 -38q7 -5 18 -5q23 0 55 18t50 41q6 9 11 9q2 0 2 -4q0 -10 -6 -18q-15 -20 -56 -42t-69 -22 q-7 0 -10 1q-40 8 -40 69q0 17 5 50q-10 0 -32.5 -1.5t-32.5 -1.5h-6q-22 0 -22 8q0 5 13 15q15 9 26 13q15 5 53 6q9 12 14 17q60 250 158 332q23 18 45 18q15 0 24.5 -9t9.5 -26q0 -32 -15 -69.5t-31.5 -63.5t-51.5 -66t-49.5 -54.5l-51.5 -51.5q-2 -4 -4.5 -13.5 t-3.5 -13.5q63 -1 123 -9q29 -3 29 -11t-29 -9z"/>
<glyph glyph-name="Nacute" horiz-adv-x="686" unicode="" d="M441 269q12 1 37 1q-6 30 -13 84q-10 -44 -24 -85zM560 243l4 -23q10 -56 19 -86q7 29 18 86q-21 14 -41 23zM678 601q-5 -8 -63 -35q-54 -25 -61 -25h-1q-5 3 -2 9q14 10 44.5 33t37.5 28q14 10 27 10q4 0 12 -2q12 -6 6 -18zM551 247q-16 7 -37 10q27 -136 49 -186 q8 17 16 48q-12 35 -23 100zM590 112q27 -79 60 -79q2 0 8 2q21 11 21 51q0 43 -31 87q-17 22 -34 36q-15 -65 -24 -97zM512 266q19 -3 37 -9q-9 47 -22 92t-34 98t-50.5 85.5t-63.5 32.5q-8 0 -12 -1q-16 -3 -33 -16q112 -12 147 -141q16 -57 31 -141zM411 252 q-67 -18 -123 -71q-36 -35 -36 -74q0 -42 36 -62q75 88 123 207zM320 379q-27 37 -27 85q0 38 17 67q-5 1 -15 1q-59 0 -115 -44t-84 -116q-19 -47 -19 -95q0 -77 56 -77h6q29 3 56.5 31t39.5 49q5 7 7 3q2 -3 0 -8q-10 -24 -47.5 -58.5t-69.5 -36.5h-7q-35 0 -51.5 27.5 t-16.5 70.5q0 58 25 108q37 73 105.5 118t137.5 45h6q18 20 42 23q12 2 18 2q32 0 59 -21.5t44.5 -51.5t32.5 -77.5t23 -84.5t16 -86q20 -8 44 -25q10 47 16.5 76t19 72.5t26 70.5t32.5 54t44 40t55 13q38 0 64 -28.5t26 -53.5q0 -3 -1.5 -5t-3.5 -1t-3 5q-5 17 -24.5 34 t-47.5 17q-27 0 -50.5 -12t-41.5 -36.5t-32.5 -50.5t-27 -64.5t-20.5 -68.5t-18 -72q20 -16 38 -40q33 -46 33 -94q0 -44 -26 -57q-6 -3 -11 -3q-36 0 -64 75q-8 -27 -16 -43q33 -66 72 -66q16 0 32.5 10t27 20t11.5 10q2 0 2 -2t2 -3q1 -1 0 -2q-44 -46 -89 -46 q-42 0 -78 49q-6 -5 -18 -5q-15 0 -15 9q0 2 3.5 3t10 2.5t10.5 3.5q-41 86 -62 221h-11l-31 -3q-46 -122 -133 -218q10 -3 22 -3q36 0 68 29q5 5 6 -2q1 -2 -1 -4q-34 -31 -73 -31q-16 0 -28 4q-30 -33 -61 -57q-87 -70 -175 -70q-29 0 -47 17t-18 46q0 34 25 66q0 3 4 3 q2 0 2 -3l-8 -20q-8 -19 -8 -35q0 -25 15 -43.5t39 -18.5q110 0 217 122q-45 26 -45 74q0 42 38 77q59 58 140 75q27 68 33 130q-38 118 -130 135q-18 -29 -18 -66q0 -43 26 -81q1 -2 0 -4t-3 -2t-4 2z"/>
<glyph glyph-name="nacute" horiz-adv-x="253" unicode="" d="M265 365q-5 -8 -63 -35q-54 -25 -61 -25h-1q-5 3 -2 9q14 10 44.5 33t37.5 28q14 10 27 10q4 0 12 -2q12 -6 6 -18zM268 24q1 1 2 1q2 0 2 -4q0 -11 -10 -21q-24 -26 -57 -26q-7 0 -10 1q-40 7 -40 67q0 20 4.5 45.5t9.5 44t11 36.5t6 20q-9 -12 -40.5 -47.5t-56.5 -65.5 t-29 -42q-5 -14 -16.5 -23t-20.5 -9q-6 0 -6 6t14.5 64t14.5 98q0 5 -0.5 14t-0.5 13q0 13 13.5 23t25.5 10q13 0 13 -11l-1 -2v-3q-2 -10 -9 -47.5t-12.5 -64t-7.5 -30.5q59 54 127 160q4 7 19 7q23 0 25 -10v-2q1 -1 1 -2q0 -7 -4.5 -20t-12.5 -36t-13 -45 q-15 -64 -15 -99q0 -37 16 -37h2q29 4 56 37z"/>
<glyph glyph-name="OE" horiz-adv-x="1131" unicode="" d="M1111 135q-3 -66 -82 -114q-73 -45 -174 -57q-42 -4 -59 -4q-89 0 -142 34q-50 31 -56 81q-80 -49 -175 -76t-183 -27q-84 0 -125 34q-38 32 -38 85q0 37 20 85q-31 14 -50 42t-19 62q0 80 67 147q64 62 164 100q38 56 99 94q66 40 129 40q47 0 77 -24q33 -24 39 -72 q155 -28 196 -132q49 51 144 76q55 16 102 16q52 0 85 -22q27 -18 27 -46q0 -22 -16 -38q-17 -17 -46 -22q-13 0 -13 4q0 7 12 6t23 13q10 15 10 31q0 23 -18 40q-23 18 -66 18q-41 0 -101 -18q-51 -15 -86 -46q-37 -31 -46 -66q0 -17 -1 -25q9 -33 70 -49q43 -13 95 -13h17 q22 1 22 -13q0 -13 -21 -13h-4h-18q-74 0 -157 -21q-34 -11 -54 -19q-44 -67 -117 -121q-1 -4 -1 -12q0 -49 44 -80q46 -34 125 -34q29 0 53 4q91 12 162 54q73 45 78 99q1 9 6 9q3 0 2 -10zM603 120q19 61 104 110l1 1q49 65 61 119q-3 12 -2 22q2 13 6 23q-3 58 -48 95 q-47 39 -120 52q0 -20 -5 -50q-22 -116 -98 -209q-81 -99 -193 -125q61 -45 140 -45q73 0 128 41h1l2 1q2 0 4 -3q0 -3 -1 -5q-59 -42 -136 -42q-85 0 -152 50q-32 -5 -56 -5q-47 0 -98 14q-14 -39 -14 -69q0 -48 30 -75q29 -27 82 -27q210 0 364 127zM781 263q25 8 111 25 q-54 0 -91 25q-6 -20 -20 -50zM587 545q-27 4 -63 4q-17 0 -51 -2q-114 -11 -222 -60q-34 -65 -34 -144q0 -2 0.5 -7.5t0.5 -8.5q61 51 121 82t110 40q10 1 10 -4t-8 -7q-55 -11 -113 -48q-66 -41 -115 -98q13 -71 67 -119q116 18 200 122q72 88 93 196q4 32 4 45v9z M231 479q-83 -42 -128 -90q-51 -53 -51 -106q0 -29 16 -51q15 -24 40 -35q36 64 96 118q-1 9 -1 28q0 73 28 136zM211 279q-39 -47 -60 -96q48 -14 92 -14q12 0 32 2q-48 45 -64 108zM585 567q-13 87 -97 87q-29 0 -65 -12q-85 -28 -144 -107q100 33 196 37q10 1 30 1 q41 0 80 -6z"/>
<glyph glyph-name="oe" horiz-adv-x="348" unicode="" d="M41 74v-1q-6 -21 -6 -37q0 -36 26 -36q31 0 54 33q-48 6 -74 41zM244 139q13 24 13 37q0 12 -8 12q-13 0 -39 -33q-24 -31 -38 -66q52 16 72 50zM103 193q-32 -35 -50 -82q12 -55 71 -63l5 10v1q0 26 17 60q1 5 1 13q0 23 -11 42q-12 17 -33 19zM116 205l-3 -2 q40 -13 52 -51q7 10 22 25q30 28 54 28q34 0 34 -33q0 -20 -18 -43q-30 -37 -89 -52q-3 -13 -3 -24q0 -46 42 -46q34 0 83 28q43 23 67 50q13 13 13 1q0 -4 -3 -9q-22 -27 -76 -56q-59 -30 -100 -30q-47 0 -58 39q-40 -49 -86 -49q-44 0 -44 54q0 38 19 86q-1 8 -1 24 q0 55 54 61q14 17 26 17q18 0 18 -11q0 -2 -3 -7z"/>
<glyph glyph-name="Racute" horiz-adv-x="688" unicode="" d="M713 607q-5 -8 -63 -35q-54 -25 -61 -25h-1q-5 3 -2 9q14 10 44.5 33t37.5 28q14 10 27 10q4 0 12 -2q12 -6 6 -18zM333 485q18 -44 18 -106q0 -34 -4 -61q20 5 47 14q45 127 85 177q-77 -1 -146 -24zM332 315q6 36 6 73q0 55 -14 94q-67 -23 -113 -59.5t-55 -68.5 q13 -3 28 -3q43 0 72 29q5 5 6 -2q1 -2 -1 -4q-32 -32 -78 -32q-9 0 -29 4v-5q0 -40 71 -40q9 0 35 2q36 3 72 12zM317 499q-19 38 -51 59q-35 22 -73 22q-49 0 -84.5 -34t-35.5 -86q0 -17 2 -26q9 -49 62 -73q7 40 53.5 78t126.5 60zM502 508q-26 -37 -60 -158 q58 26 103 58q5 4 9 4q3 0 3 -4q0 -7 -10 -13q-61 -42 -111 -65q-12 -42 -29 -97l4 -6q43 5 44 5q113 24 173.5 70t64.5 94v5q0 44 -55.5 74t-135.5 33zM84 -19h7q45 0 83.5 24.5t65.5 66.5t45 84t31 89q7 27 11 46q-21 -4 -60 -10q-10 -1 -28 -1q-51 0 -78 20t-25 51 q-29 11 -50 32.5t-26 48.5q-3 14 -3 27q0 55 40.5 92t94.5 37q42 0 78 -23q35 -23 56 -64q75 18 162 18q26 27 55 33q7 1 7 -4q0 -8 -10 -10q-15 -3 -31 -20q93 -4 157 -34.5t64 -83.5v-6q-5 -62 -93.5 -114t-216.5 -65q9 -13 43.5 -65t51 -75.5t46.5 -57t57 -51.5 q35 -24 60 -24q38 0 38 51q0 45 -29 84q-4 6 0 6t8 -5q32 -37 32 -83q0 -32 -19.5 -53.5t-51.5 -21.5q-47 0 -97 44q-25 22 -49 55.5t-38.5 60t-36.5 70.5t-33 63h-2l-9 -27q-90 -246 -278 -246q-51 0 -79 25.5t-28 65.5q0 65 66.5 125t181.5 73q6 1 6 -5t-7 -8 q-101 -15 -164.5 -75t-63.5 -118q0 -31 22 -50t65 -19q47 0 86 22.5t67.5 62.5t46.5 76.5t35 83.5l39 109l-42 -13q-4 -25 -12 -51q-13 -47 -32.5 -90t-48.5 -86t-70 -69t-89 -26h-8q-6 1 -4 6q1 3 4 2z"/>
<glyph glyph-name="Rcommaaccent" horiz-adv-x="688" unicode="" d="M355 -91q0 -25 -41 -71t-69 -54h-1q-2 0 -2 2q0 6 13 21q19 19 51 71q-18 3 -18 28q0 12 11 23q11 10 31 10q11 0 18 -8t7 -22zM333 485q18 -44 18 -106q0 -34 -4 -61q20 5 47 14q45 127 85 177q-77 -1 -146 -24zM332 315q6 36 6 73q0 55 -14 94q-67 -23 -113 -59.5 t-55 -68.5q13 -3 28 -3q43 0 72 29q5 5 6 -2q1 -2 -1 -4q-32 -32 -78 -32q-9 0 -29 4v-5q0 -40 71 -40q9 0 35 2q36 3 72 12zM317 499q-19 38 -51 59q-35 22 -73 22q-49 0 -84.5 -34t-35.5 -86q0 -17 2 -26q9 -49 62 -73q7 40 53.5 78t126.5 60zM502 508q-26 -37 -60 -158 q58 26 103 58q5 4 9 4q3 0 3 -4q0 -7 -10 -13q-61 -42 -111 -65q-12 -42 -29 -97l4 -6q43 5 44 5q113 24 173.5 70t64.5 94v5q0 44 -55.5 74t-135.5 33zM84 -19h7q45 0 83.5 24.5t65.5 66.5t45 84t31 89q7 27 11 46q-21 -4 -60 -10q-10 -1 -28 -1q-51 0 -78 20t-25 51 q-29 11 -50 32.5t-26 48.5q-3 14 -3 27q0 55 40.5 92t94.5 37q42 0 78 -23q35 -23 56 -64q75 18 162 18q26 27 55 33q7 1 7 -4q0 -8 -10 -10q-15 -3 -31 -20q93 -4 157 -34.5t64 -83.5v-6q-5 -62 -93.5 -114t-216.5 -65q9 -13 43.5 -65t51 -75.5t46.5 -57t57 -51.5 q35 -24 60 -24q38 0 38 51q0 45 -29 84q-4 6 0 6t8 -5q32 -37 32 -83q0 -32 -19.5 -53.5t-51.5 -21.5q-47 0 -97 44q-25 22 -49 55.5t-38.5 60t-36.5 70.5t-33 63h-2l-9 -27q-90 -246 -278 -246q-51 0 -79 25.5t-28 65.5q0 65 66.5 125t181.5 73q6 1 6 -5t-7 -8 q-101 -15 -164.5 -75t-63.5 -118q0 -31 22 -50t65 -19q47 0 86 22.5t67.5 62.5t46.5 76.5t35 83.5l39 109l-42 -13q-4 -25 -12 -51q-13 -47 -32.5 -90t-48.5 -86t-70 -69t-89 -26h-8q-6 1 -4 6q1 3 4 2z"/>
<glyph glyph-name="rcommaaccent" horiz-adv-x="177" unicode="" d="M207 192q-9 19 -26 19q-40 0 -98 -90q-29 -44 -50 -115q-1 -6 -6 -7.5t-9 1.5t-3 8q6 25 15.5 104.5t10.5 103.5q1 11 13.5 19t24.5 8q15 0 15 -10q0 -3 -1 -5q-1 -4 -14.5 -53.5t-17.5 -58.5q24 42 61 81.5t57 39.5h1q18 0 27.5 -14.5t9.5 -29.5q0 -8 -3 -8t-7 7z M99 -79q0 -25 -41 -71t-69 -54h-1q-2 0 -2 2q0 6 13 21q19 19 51 71q-18 3 -18 28q0 12 11 23q11 10 31 10q11 0 18 -8t7 -22z"/>
<glyph glyph-name="Rcaron" horiz-adv-x="688" unicode="" d="M657 564q0 -4 -2 -5q-5 0 -8 1q-6 2 -7 4l-37 58l-108 -58q-4 -4 -14 -4q-8 -2 -8 2l1 1v1l122 86q10 2 23 2q8 0 8 -2zM333 485q18 -44 18 -106q0 -34 -4 -61q20 5 47 14q45 127 85 177q-77 -1 -146 -24zM332 315q6 36 6 73q0 55 -14 94q-67 -23 -113 -59.5t-55 -68.5 q13 -3 28 -3q43 0 72 29q5 5 6 -2q1 -2 -1 -4q-32 -32 -78 -32q-9 0 -29 4v-5q0 -40 71 -40q9 0 35 2q36 3 72 12zM317 499q-19 38 -51 59q-35 22 -73 22q-49 0 -84.5 -34t-35.5 -86q0 -17 2 -26q9 -49 62 -73q7 40 53.5 78t126.5 60zM502 508q-26 -37 -60 -158 q58 26 103 58q5 4 9 4q3 0 3 -4q0 -7 -10 -13q-61 -42 -111 -65q-12 -42 -29 -97l4 -6q43 5 44 5q113 24 173.5 70t64.5 94v5q0 44 -55.5 74t-135.5 33zM84 -19h7q45 0 83.5 24.5t65.5 66.5t45 84t31 89q7 27 11 46q-21 -4 -60 -10q-10 -1 -28 -1q-51 0 -78 20t-25 51 q-29 11 -50 32.5t-26 48.5q-3 14 -3 27q0 55 40.5 92t94.5 37q42 0 78 -23q35 -23 56 -64q75 18 162 18q26 27 55 33q7 1 7 -4q0 -8 -10 -10q-15 -3 -31 -20q93 -4 157 -34.5t64 -83.5v-6q-5 -62 -93.5 -114t-216.5 -65q9 -13 43.5 -65t51 -75.5t46.5 -57t57 -51.5 q35 -24 60 -24q38 0 38 51q0 45 -29 84q-4 6 0 6t8 -5q32 -37 32 -83q0 -32 -19.5 -53.5t-51.5 -21.5q-47 0 -97 44q-25 22 -49 55.5t-38.5 60t-36.5 70.5t-33 63h-2l-9 -27q-90 -246 -278 -246q-51 0 -79 25.5t-28 65.5q0 65 66.5 125t181.5 73q6 1 6 -5t-7 -8 q-101 -15 -164.5 -75t-63.5 -118q0 -31 22 -50t65 -19q47 0 86 22.5t67.5 62.5t46.5 76.5t35 83.5l39 109l-42 -13q-4 -25 -12 -51q-13 -47 -32.5 -90t-48.5 -86t-70 -69t-89 -26h-8q-6 1 -4 6q1 3 4 2z"/>
<glyph glyph-name="rcaron" horiz-adv-x="177" unicode="" d="M231 287q0 -4 -2 -5q-5 0 -8 1q-6 2 -7 4l-37 58l-108 -58q-4 -4 -14 -4q-8 -2 -8 2q0 1 0.5 1t0.5 1l122 86q10 2 23 2q8 0 8 -2zM207 192q-9 19 -26 19q-40 0 -98 -90q-29 -44 -50 -115q-2 -8 -9 -8q-9 0 -9 8q0 21 13 110t13 100q1 11 13.5 19t24.5 8q15 0 15 -10 q0 -3 -1 -5q-1 -4 -14.5 -53.5t-17.5 -58.5q24 42 61 81.5t57 39.5h1q18 0 27.5 -14.5t9.5 -29.5q0 -8 -3 -8t-7 7z"/>
<glyph glyph-name="Ydieresis" horiz-adv-x="707" unicode="" d="M510 548q0 -22 -21 -22q-23 0 -23 22t22 22t22 -22zM596 548q0 -22 -21 -22q-23 0 -23 22t22 22t22 -22zM564 246q-13 -28 -23 -69t-21 -97.5t-19 -88.5q32 12 40 16q0 2 3.5 28t8 57t14 77.5t21 91t30.5 95.5t42 93q-40 -48 -79 -107.5t-77.5 -125.5t-48.5 -82 q-79 -119 -101 -119q-3 0 -4.5 2.5t0.5 4.5q48 117 48 264q0 18 -2 50q-9 -2 -23 -4h-4q2 -28 2 -43q0 -21 -4 -73q-9 -99 -40 -195q-1 -5 -5 -2q-3 1 -2 4q29 89 37 194q4 50 4 71q0 15 -2 43q-24 -2 -35 -2q-83 0 -144 34q-56 32 -80 68q-4 -6 -15 -31q-11 -28 -11 -60 q0 -72 62 -72q43 0 79 49q4 6 4 1q0 -2 -2 -6q-7 -18 -35.5 -39t-57.5 -21q-36 0 -53.5 24t-17.5 60q0 42 19 77q12 22 19 31q-16 28 -16 56q0 38 26 64t65 26q49 0 98 -43h5q50 0 89 -28.5t58 -86.5q11 -32 14 -79q44 15 71 39.5t29 56.5q0 2 2 3t4 0t2 -4 q-6 -70 -107 -103v-22q0 -76 -19.5 -156.5t-47.5 -137.5q9 4 24 24t27 40.5t27 47t18 31.5q9 15 41 72.5t57 100.5t66 97.5t81 89.5q5 5 14 5q8 0 8 -7q0 -6 -5 -13q-47 -69 -77.5 -158t-40 -153.5t-14.5 -120t-6 -58.5q28 12 79 41q13 7 16 7q2 0 2 -1q0 -6 -22 -20 q-54 -36 -80 -48q-23 -92 -77 -178t-137 -143q-63 -43 -130 -61q-34 -10 -72 -10q-89 0 -121 55q-11 17 -11 39q0 19 8 38q-25 39 -25 83q0 53 36 91t84 38q37 0 68 -24q24 -18 36 -44q35 15 75.5 30.5t92 34t79.5 29.5q10 36 23 94.5t24 101t23 69.5q5 11 9 7q3 -3 0 -10z M496 -28q-23 -86 -55 -136q-45 -69 -115.5 -116.5t-140.5 -47.5q-8 0 -24 2q-68 8 -108 53q-5 -10 -5 -23q0 -11 6 -23q22 -38 98 -38q43 0 88 12q107 28 190 118t108 216zM246 -136q3 -14 3 -27q0 -36 -19 -70q-1 -2 -3.5 -2t-3.5 1.5t0 4.5q15 27 15 56q0 11 -4 31 q-69 -32 -118 -65q-41 -30 -58 -57q39 -46 105 -55q7 -1 20 -1q66 0 133 46.5t110 113.5q30 45 54 125q-140 -55 -234 -101zM224 -116q-12 22 -31 36q-31 24 -67 24q-43 0 -74 -32.5t-31 -79.5q0 -37 23 -76q21 35 62 63q51 35 118 65zM358 338q-11 83 -66 159 q-17 22 -31 36q-2 0 -6.5 0.5t-6.5 0.5q-40 0 -79 -25.5t-65 -69.5q26 -39 80 -69q58 -33 142 -33q21 0 32 1zM247 545q-42 36 -86 36q-34 0 -56.5 -22t-22.5 -56q0 -27 14 -52q61 82 151 94zM369 339l3 1q16 2 23 4q-5 46 -15 74q-29 90 -97 110q16 -18 24 -29 q53 -77 62 -160z"/>
<glyph glyph-name="florin" horiz-adv-x="333" unicode=""/>
<glyph glyph-name="circumflex" horiz-adv-x="323" unicode="" d="M267 249q0 -4 -2 -5q-5 0 -8 1q-6 2 -7 4l-37 58l-108 -58q-4 -4 -14 -4q-8 -2 -8 2q0 1 0.5 1t0.5 1l122 86q10 2 23 2q8 0 8 -2z"/>
<glyph glyph-name="tilde" horiz-adv-x="323" unicode="" d="M207 261h-4q-15 2 -34 11q-24 11 -34 11h-3q-16 0 -26 -19q-2 -2 -8 -1q-5 0 -5 1v1q24 43 51 43h4q16 -2 35 -11q21 -8 34 -10h2q19 0 28 20q1 2 7 2l5 -2q0 -20 -20 -33t-32 -13z"/>
<glyph glyph-name="pi" horiz-adv-x="281" unicode="" d="M271 240q0 -15 -18 -33q-14 -17 -30 -24q-5 -3 -18 -3l-39 -182h-12l39 183q-26 8 -42 14q-14 6 -41 16l-45 -215h-12l46 217q-10 2 -14 2q-2 0 -4.5 -0.5t-3.5 -0.5q-17 -3 -23 -17q-8 -14 -10 -14q-3 0 -3 4q0 12 14 31q14 18 28 24q6 3 14 3q20 0 62 -18 q40 -18 62 -18q23 0 35 17l13 17l2 -2v-1z"/>
<glyph glyph-name="endash" horiz-adv-x="400" unicode="" d="M280 125q-56 -2 -116 -6q-113 -7 -115 -7h-6q-22 0 -22 8q0 5 13 15q15 9 26 13q18 6 70 6q78 0 150 -9q29 -3 29 -11t-29 -9z"/>
<glyph glyph-name="emdash" horiz-adv-x="492" unicode="" d="M444 125q-177 -3 -395 -13h-6q-22 0 -22 8q0 5 13 15q15 9 26 13q18 6 118 6q194 0 266 -9q29 -3 29 -11t-29 -9z"/>
<glyph glyph-name="quoteleft" horiz-adv-x="187" unicode="" d="M29 276q0 17 26 55q29 38 33 42q10 10 17 10q4 0 4 -5q0 -10 -13 -23q-23 -26 -27 -48q16 -1 16 -27q0 -14 -10 -24.5t-22 -10.5q-9 0 -16.5 8t-7.5 23z"/>
<glyph glyph-name="quotesinglbase" horiz-adv-x="103" unicode="" d="M184 88q0 -17 -26 -55q-30 -40 -62 -60q-16 -9 -23 -9q-2 0 -2 3q0 7 12 20q28 31 50 72q-16 2 -16 26q0 13 11 24q10 10 29 10q27 -2 27 -31z"/>
<glyph glyph-name="quotedblleft" horiz-adv-x="288" unicode="" d="M155 465q0 17 26 55q29 38 33 42q10 10 17 10q4 0 4 -5q0 -10 -13 -23q-23 -26 -27 -48q16 -1 16 -27q0 -14 -10 -24.5t-22 -10.5q-9 0 -16.5 8t-7.5 23zM69 465q0 17 26 55q29 38 33 42q11 10 17 10q5 0 5 -5q0 -9 -14 -23q-23 -26 -27 -48q16 -1 16 -27 q0 -14 -10 -24.5t-22 -10.5q-9 0 -16.5 8t-7.5 23z"/>
<glyph glyph-name="quotedblright" horiz-adv-x="288" unicode="" d="M173 550q0 -17 -26 -54q-29 -38 -33 -42q-10 -10 -17 -10q-4 0 -4 5q0 10 13 23q7 7 16.5 23t10.5 25q-16 2 -16 27q0 14 9.5 24t21.5 10q10 0 17.5 -8t7.5 -23zM259 550q0 -17 -26 -54q-29 -38 -33 -42q-10 -10 -17 -10q-4 0 -4 5q0 10 13 23q23 26 27 48q-16 1 -16 27 q0 14 9.5 24t21.5 10q10 0 17.5 -8t7.5 -23z"/>
<glyph glyph-name="dagger" horiz-adv-x="331" unicode="" d="M320 293q0 -9 -17 -19h-110l-162 -337h-22l163 337h-99q-1 10 17 19h91l73 151h21l-72 -151h117z"/>
<glyph glyph-name="daggerdbl" horiz-adv-x="331" unicode="" d="M320 293q0 -9 -17 -19h-110l-58 -120h124q1 -10 -17 -19h-116l-95 -198h-22l96 198h-93q0 11 17 19h85l58 120h-99q-1 10 17 19h91l73 151h21l-72 -151h117z"/>
<glyph glyph-name="ellipsis" horiz-adv-x="358" unicode="" d="M69 18q-1 -11 -11 -19q-8 -8 -21 -8q-11 0 -18 8q-4 5 -4 14v5q2 12 11 19q8 8 21 8q11 0 18 -8t4 -19zM199 18q-3 -13 -12 -19q-8 -8 -20 -8q-13 0 -18 8q-5 5 -5 14v5q1 11 11 19q8 8 21 8t18 -8q6 -8 5 -19zM336 18q-1 -11 -11 -19q-9 -8 -21 -8q-13 0 -18 8 q-5 7 -5 15q0 14 11 23q9 8 21 8q13 0 18 -8q5 -5 5 -14v-5z"/>
<glyph glyph-name="perthousand" horiz-adv-x="459" unicode="" d="M267 123q0 36 -29 36q-25 0 -49 -31q-16 -22 -26 -54q-5 -20 -5 -35q0 -46 25 -46q31 0 60 50q24 45 24 80zM429 123q0 36 -30 36q-26 0 -48 -31q-19 -24 -27 -54q-5 -20 -5 -35q0 -46 24 -46q32 0 61 50q25 47 25 80zM213 381q0 47 -30 47q-26 0 -48 -31 q-19 -25 -27 -54q-5 -18 -5 -35q0 -47 26 -47q33 0 54 44l2 2q-10 14 -10 31q0 13 7 29q8 15 23 15q3 0 8 -1zM278 117q0 -40 -27 -82q-31 -49 -68 -49q-24 0 -38 20q-12 18 -12 43q0 44 26 80q30 39 71 39q23 0 35 -14q13 -13 13 -37zM325 434l-282 -444h-22l208 317 q-11 -8 -24 -8q-9 0 -16 4q-29 -48 -64 -48q-24 0 -36 21q-12 18 -12 43q0 41 28 78q28 40 70 40q22 0 32 -14q12 -15 12 -36q0 -47 -28 -78l1 -2q6 -3 13 -3t18 6q10 4 14 12l67 112h21zM439 117q0 -40 -27 -82q-30 -49 -68 -49q-24 0 -39 20q-12 18 -12 43q0 43 28 80 q29 39 70 39q23 0 35 -14q13 -13 13 -37z"/>
<glyph glyph-name="guilsinglleft" horiz-adv-x="295" unicode="" d="M100 217q20 18 46 43.5t45.5 43.5t47.5 41q3 3 6 3q4 0 4 -5q0 -10 -13 -24q-43 -52 -102 -107q52 -104 56 -114q4 -12 4 -16q0 -12 -7 -12q-5 0 -13 12q-30 47 -79 96q-12 12 -12 18q0 4 17 21z"/>
<glyph glyph-name="guilsinglright" horiz-adv-x="285" unicode="" d="M234 210q-22 -20 -46.5 -43.5t-45 -42.5t-47.5 -42q-2 -2 -6 -2t-4 5q0 8 12 23q5 5 15.5 17.5t18 21t25.5 27t44 43.5q-49 92 -56 112q-4 9 -4 17q0 11 7 11q5 0 13 -12q27 -44 79 -96q11 -11 11 -18q0 -5 -16 -21z"/>
<glyph glyph-name="fraction" horiz-adv-x="365" unicode="" d="M563 517q10 -7 10 -14q0 -5 -5 -5q-4 0 -12 5q-8 4 -17 4q-43 0 -142 -110q-59 -65 -186 -228q-114 -146 -182 -191q-7 -5 -11 -5q-5 0 -5 4q0 5 6 10q96 88 170 198q15 21 42 61.5l39 58.5q61 89 123 149q78 73 132 73q18 0 38 -10z"/>
<glyph glyph-name="Euro" horiz-adv-x="907" unicode="" d="M427 248q-74 -2 -231 -8q-19 -44 -19 -84q0 -46 26 -81q63 -84 236 -84q29 0 62 3q214 18 306 102q12 12 12 0q-1 -7 -6 -12q-98 -93 -310 -118q-42 -5 -73 -5q-84 0 -148.5 25t-98.5 69q-32 42 -32 101q0 40 13 82l-57 -2h-9q-27 0 -27 8q0 12 33 24q16 5 74 7 q22 45 46 76l-52 -2h-9q-27 0 -27 8q0 12 33 24q22 6 87 8q88 90 214 143q138 59 278 59q82 0 119.5 -31t37.5 -77q0 -31 -15 -59q-15 -26 -28 -26q-4 0 -4 5q0 6 5 16q12 27 12 48q0 43 -42 65.5t-112 22.5q-93 0 -199 -38q-125 -46 -215 -128h24q113 0 161 -6 q33 -4 33 -13t-33 -9q-73 -2 -222 -8q-35 -40 -56 -77h33q126 0 180 -6q33 -4 33 -13t-33 -9z"/>
<glyph glyph-name="trademark" horiz-adv-x="636" unicode="" d="M330 374q0 11 -15 11q-14 0 -30 -14q16 -6 26 -6q19 0 19 9zM466 360q0 14 -20 14q-12 0 -28 -9l8 -4q7 8 12 8l-8 -9q24 -8 28 -8q8 0 8 8zM131 279q-6 27 -38 27q-4 0 -6 -1q6 -29 31 -29q7 0 13 3zM555 374l-7 -9q-18 -20 -28 -36q-20 -29 -35 -63q-21 -46 -21 -67 q0 -10 5 -10t12 6l12 8l2 2l1 -1q0 -4 -14 -12t-19 -8q-15 0 -15 25q0 30 15 60q3 7 19 29q11 14 36 41q32 34 37 35zM633 390q0 -3 -4 -13q-4 -7 -9 -7q-1 0 -1 1q1 1 4 5q4 4 4 11q0 12 -16 12q-20 0 -44 -12q-54 -25 -126 -105q-36 -41 -50 -53q-37 -32 -64 -32 q-9 0 -9 2l21 11q6 5 20 32l18 36l21 42q13 24 26 39l-9 4q-37 -21 -79 -79q-74 -103 -147 -103q-8 0 -10 2q2 2 10 2q40 0 82 36q16 13 70 76q45 53 70 68q-68 31 -109 31q-21 0 -27 -13q-2 -2 -3 -2q-3 0 -3 7t13 11q9 3 19 3q30 0 112 -35q17 10 34 10q27 0 27 -18 q0 -12 -13 -12q-6 0 -33 10q-14 -18 -35 -78q-16 -52 -40 -71q36 20 88 83q99 117 160 117q32 0 32 -18zM275 370q-66 22 -101 22q-34 0 -61 -19q-28 -22 -28 -56q0 -2 0.5 -4.5t0.5 -3.5h5h3q33 0 41 -29q14 6 27 19q13 16 13 28q0 2 2 2q1 0 1 -1q0 -13 -14 -30 q-13 -16 -28 -21q0 -1 0.5 -5t0.5 -5q0 -19 -16 -35q-17 -14 -38 -14q-2 0 -2 2t4 2q48 6 48 47q0 2 -1 4v2q-10 -2 -15 -2q-31 0 -40 30q-23 -8 -38 -29q-14 -20 -14 -44q0 -50 60 -50q57 0 104 74q26 42 40 62q26 40 46 54zM333 374q0 -12 -22 -12q-12 0 -30 6 q-20 -22 -41 -71q-22 -53 -61 -86q-45 -36 -98 -36q-26 0 -48 17q-21 17 -21 43q0 27 19 47q17 20 44 25q-1 5 -1 15q0 39 27 60q26 20 64 20q32 0 114 -29q19 13 38 13q16 0 16 -12z"/>
<glyph glyph-name="partialdiff" horiz-adv-x="245" unicode="" d="M203 175q0 35 -24 35q-27 0 -58 -42q-25 -34 -36 -66q-14 -40 -14 -71q0 -30 17 -30q37 0 95 106q20 33 20 68zM241 251q0 -45 -12 -92q-17 -62 -49 -106q-42 -56 -95 -56q-22 0 -34 22q-9 17 -9 41q0 20 6 43q10 39 48 74q41 38 78 38q33 0 33 -39q0 -18 -8 -40 q18 42 18 93q0 61 -23 108q-30 62 -81 62q-2 0 -12 -2q-6 -1 -12 -1q-8 0 -8 5q0 14 39 14q62 0 95 -54q26 -44 26 -110z"/>
<glyph glyph-name="product" horiz-adv-x="333" unicode=""/>
<glyph glyph-name="summation" horiz-adv-x="333" unicode=""/>
<glyph glyph-name="minus" horiz-adv-x="249" unicode="" d="M241 138l-170 1v14h170v-15z"/>
<glyph glyph-name="radical" horiz-adv-x="333" unicode=""/>
<glyph glyph-name="infinity" horiz-adv-x="337" unicode="" d="M161 241q-31 54 -76 54q-21 0 -34 -15q-12 -15 -12 -36q0 -20 15 -30q14 -11 35 -11q34 0 72 38zM310 249q0 23 -21 38q-19 14 -42 14q-32 0 -58 -31q-1 -2 -6 -11q18 -29 18 -30q13 -16 28 -23q14 -7 30 -7q22 0 36 14q15 15 15 36zM317 253q0 -29 -18 -51 q-19 -25 -48 -25q-22 0 -50 20q-23 17 -37 39q-21 -26 -33 -36q-21 -18 -42 -18q-27 0 -43 19t-16 46q0 29 18 49t48 20q54 0 84 -52q20 25 31 35q20 19 41 19q28 0 46 -19q19 -18 19 -46z"/>
<glyph glyph-name="approxequal" horiz-adv-x="249" unicode="" d="M211 137q0 -9 -18 -23q-19 -17 -38 -17q-14 0 -44 12t-48 12q-17 0 -26 -10q-9 -11 -10 -11q-2 0 -2 3q0 11 18 25q17 13 31 13q16 0 46 -12q32 -12 47 -12q20 0 30 11l12 11q1 -1 2 -1v-1zM211 201q0 -9 -18 -23q-19 -17 -38 -17q-14 0 -44 12t-48 12q-17 0 -26 -10 q-9 -11 -10 -11q-2 0 -2 3q0 11 18 25q17 13 31 13q16 0 46 -12q32 -12 47 -12q20 0 30 11l12 11q1 -1 2 -1v-1z"/>
<glyph glyph-name="notequal" horiz-adv-x="305" unicode="" d="M261 141q-49 0 -104 -6l-28 -36q-5 -8 -15 -8q-5 0 -5 3q0 1 2 5q18 23 26 34l-28 -4q-4 0 -7 6q-4 5 -4 14q0 12 11 12h51l36 44q-26 -1 -87 -9q-4 0 -7 6q-4 5 -4 13q0 13 11 13q53 0 104 -1l20 26q6 10 16 10q3 0 3 -3q0 -1 -2 -5l-21 -29l30 -1q14 0 14 -10 q0 -8 -12 -8q-32 0 -48 -1l-36 -45l82 -2q14 -2 14 -11q0 -7 -12 -7z"/>
<glyph glyph-name="lessequal" horiz-adv-x="167" unicode="" d="M139 14l-1 -1l-128 1v14l1 1h127l1 -1v-14zM141 61q0 -5 -4 -5q-6 0 -50 28q-46 29 -52 34q-4 3 -4 15q0 13 4 16q22 22 52 50l47 42q2 0 2 -8q0 -10 -11 -24l-19 -20l-43 -48l70 -67q8 -8 8 -13z"/>
<glyph glyph-name="greaterequal" horiz-adv-x="167" unicode="" d="M139 14l-1 -1l-128 1v14l1 1h127l1 -1v-14zM146 133q0 -10 -5 -15q-3 -3 -52 -35q-45 -27 -50 -27q-4 0 -4 5q0 4 9 13l69 67l-43 48q-19 21 -29 35q-1 3 -1 9q0 7 3 8l1 -1l64 -59l33 -32q5 -3 5 -16z"/>
<glyph glyph-name="lozenge" horiz-adv-x="586" unicode="" d="M312 615q-118 -202 -159 -278q16 -43 69.5 -141t69.5 -148q26 43 86 147.5t78 134.5q-17 43 -72.5 138t-71.5 147zM275 -14q-13 0 -22 18q-4 8 -10 24t-7 20q-16 39 -36.5 79.5t-49 92.5t-41.5 77q-4 9 -4 20q1 31 103 200t122 169q11 0 24 -21q52 -127 58 -141 q16 -30 47.5 -86t38.5 -69q0 -3 0.5 -8t0.5 -8q-1 -25 -73 -147t-125 -202q-8 -18 -26 -18z"/>
</font>
</defs>
</svg>
